<mxfile host="Electron" agent="Mozilla/5.0 (Windows NT 10.0; Win64; x64) AppleWebKit/537.36 (KHTML, like Gecko) draw.io/26.0.9 Chrome/128.0.6613.186 Electron/32.2.5 Safari/537.36" version="26.0.9">
  <diagram name="PÃ¡gina-1" id="ozly6m2UN5bRbG-qaMyc">
    <mxGraphModel dx="1050" dy="621" grid="1" gridSize="10" guides="1" tooltips="1" connect="1" arrows="1" fold="1" page="1" pageScale="1" pageWidth="827" pageHeight="1169" math="0" shadow="0">
      <root>
        <mxCell id="0" />
        <mxCell id="1" parent="0" />
        <mxCell id="N2gPjFTLfxUgMOe2XuZ2-36" value="" style="group" parent="1" vertex="1" connectable="0">
          <mxGeometry x="140" y="90" width="597.5" height="466" as="geometry" />
        </mxCell>
        <mxCell id="N2gPjFTLfxUgMOe2XuZ2-32" value="" style="rounded=1;whiteSpace=wrap;html=1;arcSize=6;fillColor=#bac8d3;strokeColor=#5D5D5D;" parent="N2gPjFTLfxUgMOe2XuZ2-36" vertex="1">
          <mxGeometry x="-20" y="-34" width="550" height="500" as="geometry" />
        </mxCell>
        <mxCell id="N2gPjFTLfxUgMOe2XuZ2-20" value="" style="fontColor=#0066CC;verticalAlign=top;verticalLabelPosition=bottom;labelPosition=center;align=center;html=1;outlineConnect=0;fillColor=#036897;strokeColor=#EEEEEE;gradientColor=none;gradientDirection=north;strokeWidth=2;shape=mxgraph.networks.comm_link;rotation=-45;" parent="N2gPjFTLfxUgMOe2XuZ2-36" vertex="1">
          <mxGeometry x="186" y="70" width="30" height="80" as="geometry" />
        </mxCell>
        <mxCell id="N2gPjFTLfxUgMOe2XuZ2-21" value="" style="fontColor=#0066CC;verticalAlign=top;verticalLabelPosition=bottom;labelPosition=center;align=center;html=1;outlineConnect=0;fillColor=#036897;strokeColor=#EEEEEE;gradientColor=none;gradientDirection=north;strokeWidth=2;shape=mxgraph.networks.comm_link;rotation=60;" parent="N2gPjFTLfxUgMOe2XuZ2-36" vertex="1">
          <mxGeometry x="304.5" y="70" width="30" height="80" as="geometry" />
        </mxCell>
        <mxCell id="N2gPjFTLfxUgMOe2XuZ2-23" value="" style="group" parent="N2gPjFTLfxUgMOe2XuZ2-36" vertex="1" connectable="0">
          <mxGeometry x="360" y="1" width="145" height="69" as="geometry" />
        </mxCell>
        <mxCell id="N2gPjFTLfxUgMOe2XuZ2-1" value="" style="shape=mxgraph.cisco.servers.unity_server;sketch=0;html=1;pointerEvents=1;dashed=0;fillColor=#036897;strokeColor=#ffffff;strokeWidth=2;verticalLabelPosition=bottom;verticalAlign=top;align=center;outlineConnect=0;" parent="N2gPjFTLfxUgMOe2XuZ2-23" vertex="1">
          <mxGeometry width="50" height="69" as="geometry" />
        </mxCell>
        <mxCell id="N2gPjFTLfxUgMOe2XuZ2-14" value="MQTT Broker" style="text;html=1;align=center;verticalAlign=middle;resizable=0;points=[];autosize=1;strokeColor=none;fillColor=none;fontStyle=1;fontFamily=Comic Sans MS;fontSize=11;" parent="N2gPjFTLfxUgMOe2XuZ2-23" vertex="1">
          <mxGeometry x="45" y="19" width="100" height="30" as="geometry" />
        </mxCell>
        <mxCell id="N2gPjFTLfxUgMOe2XuZ2-29" value="" style="fontColor=#0066CC;verticalAlign=top;verticalLabelPosition=bottom;labelPosition=center;align=center;html=1;outlineConnect=0;fillColor=#036897;strokeColor=#EEEEEE;gradientColor=none;gradientDirection=north;strokeWidth=2;shape=mxgraph.networks.comm_link;rotation=-135;" parent="N2gPjFTLfxUgMOe2XuZ2-36" vertex="1">
          <mxGeometry x="161" y="208" width="30" height="80" as="geometry" />
        </mxCell>
        <mxCell id="N2gPjFTLfxUgMOe2XuZ2-30" value="" style="fontColor=#0066CC;verticalAlign=top;verticalLabelPosition=bottom;labelPosition=center;align=center;html=1;outlineConnect=0;fillColor=#036897;strokeColor=#EEEEEE;gradientColor=none;gradientDirection=north;strokeWidth=2;shape=mxgraph.networks.comm_link;rotation=-30;" parent="N2gPjFTLfxUgMOe2XuZ2-36" vertex="1">
          <mxGeometry x="325" y="208" width="30" height="80" as="geometry" />
        </mxCell>
        <mxCell id="N2gPjFTLfxUgMOe2XuZ2-31" value="" style="group" parent="N2gPjFTLfxUgMOe2XuZ2-36" vertex="1" connectable="0">
          <mxGeometry x="304.84" y="280" width="200.15999999999997" height="152" as="geometry" />
        </mxCell>
        <mxCell id="N2gPjFTLfxUgMOe2XuZ2-6" value="" style="shape=image;aspect=fixed;image=data:image/png,iVBORw0KGgoAAAANSUhEUgAAAr4AAAG7CAYAAAAlopZbAAAAAXNSR0IArs4c6QAAAARnQU1BAACxjwv8YQUAAAAJcEhZcwAACxMAAAsTAQCanBgAAP+lSURBVHhe7P15fBvXee+PfwYAAQJcRZCStcuLZMvZHFlekiYReXvTJrbTps1tuiRps3mLs7rffPv7trchmdvee9PeZo/teMneNGvTJHLSNu0VlTSNbcnykniTvEiyLNnivgEESGB+f+A8w4MHZwYDECCxPO/X62hmzjkzgEAS88aD55xj2bYNQRAEQRAEQWh0ArxCEARBEARBEBoREV9BEARBEAShKbAk1UEQBEGoNiMjI/0AMDAwcIDqbNu28joJgiBUmeDQ0BCvEwRBEISKMTIy0j8wMHDgy1/+8ttZkwUAO3bsOM7qBUEQqoJEfAVBEISKQtFd2h8eHh7M6xAOA+k0AGBwcHB4SCIwgiCsEpLjKwiCIFSEoaGhoYGBgQN6yZPecBjYtg2IxfLOEwRBWC0k4isIgiB4Qnm5+/btO8jbdAoiu5zubqC1FZibyxWJ+AqCsMqI+AqCIAhGKDeX17uxYcMGbNiwAQ8//DBvWqanB5idBRYXAQD9/f0julD39/eP6N3LoRLXEAShMRHxFQRBEAoYGhoaKhrBZbztbW/Ds88+i5ERzTtjMcCygPn53LGW31sNSKT7+/tHRIAFQeCI+AqCIAgFDAwMHBgZGel/xd7z8Wc3/SZytwobmYwN284C6tZh28DHb/8J7jnyDLZt24aTJ08uX6SvD9i4Ef2bNgHzz2LkZ48AALZt27bcR8Pv/cir36lTp5x9mS5NEASOiK8gCIJQAM3GoM/QUBIbNgCbNgFzc+g//3yM/PM/AwB+/dd/Heeeey7OO+88fgYsK99T9WPeZsKyLFiWhY997GMYGxuT/GFBEAqQWR0EQRAEI4ODg8O8rijt7cDGjcDWrcDSEmBZGDmg0oSjUbR0dyMSieD06dNOOXPmDM6cOeMct7W1ob293dnqpaOjAx0dHejs7HRKV1eXUzo6OjA2NsaflSAIAiARX0EQBGGl5A2Ca28Hdu0CAgEgmQQmJ4HTp/kpFeXP//zP8fjjj+N3f/d3cfjwYXzyk58EZMYIQRAMSMRXEARBqA6Wha29vdi8ebNTqsGTTz6JJ554Avv370c2m3XqDx48uC+voyAITY9EfAVBEIQVURDx3bkTCAaBVArvvOwy7NixwzVH162e8Gq3bRuBQAA//OEPMTc3h0suuQTPP/88fvKTnwBqhocDBw4M8PMEQWheJOIrCIIgVAfLwote9CK0tbUhFouhra3NKTx3V8/fpRzerq6uvFxePZ+3u7sb69atQ09PD5LJJH75y1/i4YcfRjKZ5M9CEATBQcRXEARBqAo7N21Ca2srWltbEY1GnRKLxRwR9hJit3re58SJEwCAhx56CM8++6zz+GXPSCEIQsMi4isIgiBUnkwGgUAA4XAYkUgE4XC4YN+tUJ9IJOKIM8kzl+hIJILJyUnnYUmCBUEQTIj4CoIgCJXFtgHbxu5t2xAKhRAKhdDS0uKUcDict28S4kgk4pTW1ta8fTpubW1FW1sbf3QAwM6dO3mVIAiCiK8gCIJQHS7ets0RXBJgkwib2ouVlpYWBINB3HffffxhAQCBgNzeBEEoRN4ZBEEQhMqjZlwIBoMIBoN50kp1ejHJMI8S8xKNRrG4uMgfGSgyG4QgCM2LiK8gCIJQOVSaA4ACuTVJ8ErLwsICfwa4+OKLRXwFQTAi4isIgiBUnmwWViCAgEfhQuyn6NIbDofxxBNP8EeGZVkivoIgGBHxFQRBEKrCS3bsKJBdvZCg8nqvQudQSafTAIALL7zQeVyRXkEQ3BDxFQRBECpPJlMgqW6i61bPC4/+BoNBpFIpAMDu3bvzHl7kVxAEEyK+giAIQmVReb5ceKlAS0fwU+9WgsGgs1IbnS8IguCFiK8gCIKwIvJWSKN5ddUAN7jIrFu9WzGlOQDA6dOnAcP0Zf39/SN5FYIgCCK+giAIQlXQIrC2JsGVxLZt59pcfD/3uc/1i/wKgsAR8RUEQRAqzou3b+dVvtBlltebyGazAIAXv/jFvEkQBKEAEV9BEAShstg27GzWkdhSyvIlCut5nR7lpdQHQRAEL0R864SRkZF+t8L7CoIgrDlFpNWtZF2EOZvNFrRlMhlncNsjjzyiPbQ5OiwIgmDJG0RtY1lWRX5AfnLd9u3bd5DXcfxcByX0EwSh/hkaGhoaHh4eBACsXw9s2IAXnXMOhq+/vmBAmttANa96t7ZQKITXvva1mJ6exu///u/jm9/8Zt7z6u/vHzlw4MBAXqUgCE2NiG8NQpFc50bSoPiV42JC7vc6fvsJglAaeeLb1weccw4u3rABQ9ddVyCrbhLLi1cfagsGg3jd617nKr6Dg4PDQ0NDQ3mVgiA0NSK+NQK9OReT3e7ubiwsLCAajeLcc8/lzQCAyclJXlXA1NQUrzLi51qNhF85FhkXhGUKxHfDBly8fj0+YhBfL6F1K27nBINBXH311Ziensab3/xmfOtb38p7XiK+giBwRHzXCIrqHjx4cF+xPN3u7m4AwLp16wAACwsLWFhYwJ49e1jPtcGPHPvpIzJuxq8cF5Nx+LyWnz6CoGMS3919ffjv7353gawWk1m/hVZy+63f+i1MT0/j937v9/Dtb38773mJ+AqCwBHxXUX8RnVbW1vR2tqKaDSK1tZW3lxz4luL+JFjP31Ext3xI8iVknGU0E9YfUzie1E8jj9/17uMwsrr/BZ+bjAYxO/8zu9genoaF198MR599NG850W/M/v27TvY398/Ir9DgiCI+FYZv7LLo7peiPjWJ37luFg/kXF3/IpNMSH3ex2//RqdPPHt7XXE98/e8Y4CedUL4Sa2/JiXUCiEN7/5zZiamsLu3bvx2GOPobW1FQsLC9qzK6S/v3+EZJiOeR9BEBoTEd8KU2oKg1tU1wsRX6FS+JXjYv1Ext3xK1X1LOMm8cXMDO74yEcKZJUXFFm62Ku9paUFb3nLWzA1NYWLLroIjz/+OOLxOMbHxwEAuXAC4Oe3k2RYUiMEobER8a0A1YjqFuOZZ57Br//6r/NqQah7/Mqxn35+hNzPdRoNv3JcTMahrjU8PDzofNAn8Z2awi1/8RcFEgsmsqUc87aWlha8973vxfPPP+9c+8UvfjF+9atfAQBe49QC02p7Qqvjvx39Mv2ZIDQ8Ir5lMjQ0NOQ3qosKya6OiK8grB5+5dhPv4aXcRLf2Vl86k//1FVaTXX82FSnH4dCIXzoQx9yxHfz5s2Ix+N4+OGHsR0AXzT5BBNfN2zblmXgBKFBEfH1id+obrGBaZVCxFcQmhu/cuynnx8Zh89robc3t4jF7Cz+9v3vL5DVUvd50duCwSD+7u/+zonwQqU3dKktpTpACe9xrY/X/1jEVxAaFxFfD/zKbrWiul6I+AqCUCs8/fTTeOaZZ3IHJL5jY3jXH/4hzlu/3hFWGOQWKmBgWRZSqZSx3W0bCATwla98BYcOHQI00d3uIb1+EPEVhMZFxFej1IFpWGXZ1RHxFQShFsiTXmjie+IE3vaWt2D7+vWAQVqL1fF903FLSwu+973v4d577wUA7FDSS72mlPBSdNct0huJRJBKpZxjEV9BaFyaXnz9RnVXK4XBLyK+giCsNQXSC018H30UW7Zswe/93u+5yiwXWS8RNtUBwNGjR/Hd734XAHCJFuk9XmKUl5ABboLQ2DSl+PqV3bWO6npx5swZXHzxxTX53ARBaGyMwkv09uYWsXjsMQDA1VdfndesS6tt29i0aZOrABerA4DTp0/jBz/4AaAivucCeEZJbynTmREHDhwY8DvrhSAI9UdTiC+lMBQTXdS47OqI+AqCsBZ4Si+Y+La2AkUWk/BDb28vr8pjbGwMwDpVnubNRkwLXcgSx4LQ+DSs+PqN6lIKQ70JpIivIAiriZvwvv584MlJ4NiEqtDFt6MD0aUldkaOZDLJq1bAOgB7ARwG4GPmCRckzUEQGp+GEd96GphWCUR8BUFYLdykl4hGo8siG4/nxPfxxxGNRrFx40bevYCFhQWcPn1aJSqcq2p5aoMutHob7R9W2x4lwk9pfVRLTw+SyWSBdK9jV5d0B0FoXOpafEuN6tbKwLRKIOIrCEK1mZycxJEjR3g1LliXi/JCCyA4c/xq4rtu3bqi71FTU1OYmMgCoCXYufASJtmFSm14SgkvhZ39c7kS3yeZKkvagyA0JnUnvn5ltxGiul6I+AqCUE3corwXrAN29gD3TCxL7eTkZIH4bpqZKRpoyElvl0eUV68zie9TqlygpLc08X0lgDiArCo2gPu0q/T3948MDg4OS/RXEBqHmhffZkth8Mvk5CTWrVuH8847jzcJgiCsiCNHjniu0sYjuXmDxKJRwLLQms0u1zGKpzb42X9axWlLp1dJL5TsEhl1PK4EmJDoryA0DjUpvn6juo2YwuAXEV9BECqNW5RXJxqNOvt+3nf1/lDSa05tcBNc0/6hkqO7xEUALlT7dPfj26yS32MS/RWEhqMmxFeiuqUj4isIQiUpLr3dAPj7zaSSUZsJqg6PHPcYrkP3IZPk6nWTKhbbo9IbnjQKcFtbGwBgfn4+r/4iVWCQXf1OqAvwPewRJPorCPXNmomv36guRHaNiPgKglAJigsvAJyvigk34XWr51A/0stxrY3qCuXWjfb2dti2bZTe3WrfJLluWwAYUwJMyLRnglC/rKr4+pXdZk5h8IuIryAIK8Vdei9T6QQ6PezYjTivUHW6vJLc6pK7ctrb2zE3N8ersVsV092Oi66bFI8BOMr+FzLtmSDUH1UVX0lhqB4ivoIgrAR36a1P3KQXAF4NoI/V8Tufm/DSlsooS7CQ6K8g1BcVF1+/UV0o2ZWobnksLCxgYWEBe/bQABFBEITi1LvwXnDBqwEAiURu1t3Z2dm8rc5uABdrx253O5P06vu6+Noq9/eoNu+v5P0KQv1QEfH1K7v1ujxwLSLiKwhCKbgtRgEAHR0dvMooktVk27bLANjo7OxSNTZs+wXYto0LLngNbNvG+vUvw/r1l8C2bfzyl1/CCy88gNOnT6up0ZbpA/CavBozprsfj/bSPhVo8/7q8gtJfRCEusC3+I6MjPQPDw8P7tu37+Dw8PBgf3//SLH0BR1KZSD4FDcciQJ7I+IrCIJfnn76aUxNTRnn5u3o6MCuXbtgWblBZrRdv/4SvPjF78DZsw/Csiw88siXYFkWursvRHf3Rdi1aydmZmbR15fFj370I1iWhampx7Fz51sRj78MAPDkk3+PyclfYmpqCps2bcKZM2cAAL/2a0M4eXI/gBfQ2bkTL3nJhzA9fRS2bWNq6igAG9PTMwBsnDx5GNPTRwEAMzMzeVuo569L+sU+o7wc3o8LsC6+FPXNqtxfPRta5FcQahvf4js0NDRULKK7mhQTY6/2YtKNIufXAiK+giAUw0t4iY6ODmzcuLFAfGm/o6PDqVu3jiYDs0Ddcm2546mpJwquw683NTWFrVuvxsMPfw1dXbswPX0U09PTAOBsy4VLbzHc7n482ktbvi/yKwj1hy/xHRgYODAyMtIfDocRiUSQSqV4lwLS6TSvahj8SLFXn2Li7XUuIeIrCIIXplzeC7U5F/4zr2VldHVRekIhJL5dXV2wLAvHjx/nXVZEnxpw9iKD9Ba/uy1j6uslwLr8PmFYQ07yfgWhNilJfAFg48aNvLlk/EixV59i4u11biNAYrywsGDMl+ZpJTqm/hw/fQRBqE3chHdXXk1uIrFxJW31xnq1pZka1htmbYCLzBJebYQuu3qdXgDgrGGqM4j8CkJN4kt89TSHSojvWlNMjL3ai0k3ipxf7/iR4pWId7F2QRDMmAavxQH0GqSXOFrj4rteK3QMn9IKQz9+rOOnTd/q4muryO9/ivwKQs3TlOK7lhST4mLtxcS72Pn1TjExXol0w2cfQag1KIdXF9+4ivTqmJaW8MOYth/fldNo2tL+0aO5AWgmjh7NDVwDgF2q77Fjx7Bz504cO3bM6bcBwDlq/6UAnleyy4XTL7yvfszbvHATX32f5PcJAMv/oxwiv4JQO4j4NhnFxNirXaS7uBSvRLyLtQuCG0eOHHHk93wA5wF4mndiU28RJhnuZce8D901eD2XYUqnAID9+/c7becoqdV5mSrwkFKTcLphatPrTO06vN10ri69VER+BaG2EfEVVo1iYuzVXky6UeT8RqCYGK9EuuGzj1B78JzeG5T8+sUkw1yaTX1gqNdFeFwJ7gZ1TPsvAPgXrR+Y9HJMdyhep0swb9PhbSaZdYNfX9/yQjM93KP6ECK/grD2lCy+8Xgc4XCYdxGEmsaPFHv1KSbeXuc2An6keCXiXaxdMMOlFwD+T97R6kIi/BSAh5XMkvjqvKC2D6k+lN5AmO5KfuugCSiH1+nHvI1jEl7aupVRw6A3kV9BWFt8ie/IyEj/wMDAAYj4CkJZFBNjr/Zi0o0i5zcCxcR4JdINn31qCZPwQkV6b+SVAJZn0l09ngTwrwA6PKK5xTDdnUx1cKkvVsfbvdoIqte3XiUL4BdMfvv7+0cOHDgwoFUJgrBKiPgKQoPjR4q9+hQTb69zGwE/UrwS8S7WznGTXgB4T4lpDsUgYS5+l3DnX1Vk9zd5g4JLuemxTHVwqTfVEbzN65i38ToSW7d9Kvryxnrer8ivIKwNJYtvR0cH2tvbeRdBEAQjxcTYq72YdKPI+Y2ALsZ8BbZgMIhMJuMc/6aHYFaa4neOZZ4CcAuA1xnSGtxwu76p3lTHMfXhdX6PueSa6vSSVVs+6K2/v39kcHBwWFZ5E4TVw5f4Irf6jg0RX0EQ6ohiUlysvZh4Fzt/tbmpSMSXR1cJf3eB4hS7zi0q9eES3lAE03VNdSa8+vE2/bhYGx3zfb2Ol6zK+71X9SNkiWNBWD1EfAVBEKpEMTH2ai9Xui9QArxS/N0ZisOvQ6kPL/eI/vJzCLd6E8X68na/x/q2WJ2pkPweY3m/Ir+CsDqI+AqCINQ56XQa4+O5GXMvAPBe1u7vXb44lbrOk2pKsw4lwF6U+ph++/N+Xse6zPJtsTpTodQHPuhN5FcQqk+AVwiCIAiNhWUo5cCvUe51KCq9AcCP1WIWbtfjj8cLh7ebit9+el+3bbE6Uwmo8gr1WhADAwMHZKozQaguJYtvsa/fBEEQhNqHy1i58OuUcq3fBPAm9bX/A6qOX8utELy+WDGdw+vomG95MdXrdaZ2SxPfgFpWWpff4eHhQZFfQagevsVXvn4RBEGoD7iI+aGUvsUo5Vrnq2nY1qvoL5dEt/8Lbyu38GvRMd+61fE2vs9LgO2T/F4BoEedK/IrCNXDt/gKgiAI9QcXLxIzE15tpVLssTi/CeB3ANzFUh/cpLGcAkOd3kbtfGuq41u3fb3OVEh++wBcqUV/RX4FoTqI+AqCIDQYXK544QLJz60kpVzvfLXk8uMq9YE/b3ruVHibqeiY6mlfry9Wp7fxY9O+qU4v+v9pF5NfmkNfEITK4Ft89+3bdxAeU+gIgiAI9YNJvPRjvX2llHqNGwHEAdztEf3lwsjbeB/+/+H7hFe7W5vXvlcdLyb5pQWkRkZG+lWVIAgrwLf4CoIgCLUPlymSLj+YJIzvl3pNotRzXgvgtwA8CuCIy3MwPV/ehyi2r/fn+3zrVqcXU7upjhf6P1DeL0R+BaGiiPgKgiA0EMcAfJqVz6iBY3p50qWYRKzYPpVi+Omjcx6A6wGsA/ADAGcA3O8huXR9/XG89vX+Xud6PYZp69bPrY4X+r/1avILNd2ZyK8grAzfC1gMDQ0NDQ8PDwLAxo0bebMgCIKwRugLWFSDnbyCTcFla330O4rN+un1JvTFH54E8JTW9hMAmwCcVseXAdirtfPHdaszHRfb96rjbXq9276pTi9Ul1VljK30JgtdCEL5lCW+8Xgc4XCYdxEEQRDWgGqLb6UxyTCU7PphE4A3qn0unl77prudqZ++71Xn1uZn31RnOib5zapIPSHyKwjl4TvVQf7ABEEQhErA0yuo+OU0gENqn9IG/OzrdYQpBUHfN7Xz1ASvNl5v6svP04/1tA5JexCEleM74kvJ9ZCIryAIQk2hR3x3AbhZ1R/N62VmNfuUCkWGz2eR0B0AngYwo1IeqJ4odd9Upz9eKXWmLRVTvanOdKynPdyr2gHAtm1yZUEQfCDiKwiCUOe4iW+tQGZWTI7pbrRTSZ4ufPzYVnm/qyG/+r5XHW/T6/3sm+r0YpLf/v7+kQMHDgyoQ0EQiuA71UFH5vIVBEEQ/KCHI3cVKReqLdhX/G7ltQA6y0x7oH0eLjWlG9B+sTreVuq+Xmcqptke9KCUIAjF8S2+kuMrCIIglALJXKno53HZ5WWl8kvHVPQ6vq/34VtTnX5dfi7f53UEb9flly9yoZ0mCIILvsVXEARBEPyiy1spcOmDQXZ5+Y0KyC/BBdRtn2/d6kzHpja9D9/Xjy3t/32hyK8glIyIryAIQgNBqQJriS5s5cClj+q48FZLfuHRTxdT2har89r3cy4dE1Rnkt+hoaEh1l0QBA0RX0EQhAbhGlUaCS6GXHi5/HaVIb9cLAmThNK+Vx3B++mF15v68z56fUDtc/kdHh4eFPkVBHeCpfx9HDx4sP/48eM7ACAWi/FmQRAEYQ3IZDLYmkziT3jDGkKCVi7Fztfb9f3zATynpjvb7NGPX1+XSo7pPL2/aWuq07eE6dp833SsYwGIq5kfJtS9GoAlY3MEoRCJ+AqCIAg1i5dE8ogvj/z+E+vvta/XFavn+3zrVmc6dmsjTG2mIpFfQfCHiK8gCIJQk+gC6AZJHy+/AeANZcovmFTyer6vb011BG/n+6X2NRWRX0HwRsRXEARBqGm4+OlbwjLI7wUrlF9Cf3x+rG9NdaY2Xkz1bueZ+lIJqK3IryC4U5L47tu37yBkAQtBEAShCLT62Eoh2eP7vE6Xv3Lll4obvJ0/Nq/z28avyc/h7byfXkR+BcGbksRXZ25ujlcJgiAIQsVxkz83SABLlV+9zlRP6O18n29NdXyrF8Lr2O1cKiK/guBO2eL76tlZZ214QRAEQag2Jhl02+oSSPL7W0p+n3O5Doc/Hsd0Df4ceJ3exs/n9W7HtM/7mMoukV9ByKNs8b0KwI3pNMbHxyX1QRAEQSigUukO0ETP7dgEyR+X3++XIL/QrmNCb9O3pjpTG7+2V51pX6/TC0V9A0p+e1TfgwcP7lO7gtCUlC2+xwDsVPLbI/IrCIIgrAImKSy2JQEk+f0bAL/U5Jf3dUMXS47pGm5b0z4/z61OP4dvedHl90rVT1Z3E5qdksTXNBn2TgAfANAzPi55v4IgCELV4OKnHxdDl8EAgBs1+aV23tcLUx+9zmvrtW96HqY62udbXkh+J1UfQWh2ShJfLz6g8n5FfgVBEIRqUaoI6lva9yO/dMwfj2Nq54/Lt7yO1xer4/v6Vm/Xy1EALS0tgMr11boLQlNRMfGFyvulQW+S+iAIgiBUMs9Xh8uhH7g4kvz+ykN+iWKPp0smHXttTfv8+bnV6efwrd5OUNRXEIQViO8xXqGgQW+S9ysIgiBUAy5xXBBNWxNWifILD7nU4Y/ttqV9vd7U5lXHt7yPBWAMwHRLC6LRqNNnYGDggHaKIDQNJYmvKcfXhOT9CoIgCNXGJIVucEHUt5Ymv4dYvRu6WJowPY5pS/tux/rjmOro2M954XBY7eUGuYn8Cs1ISeJbKpL3KwjNxdzcnKQ6CQVUI92BZI72+bG+9YOl5HedJr9UX+w6bu38eZi2/HkXazPV0b5er7c/BqCtrQ0AEIvFnH4iv0IzUlXxBcv7FQSh8Zibm8Pc3BzOnDmDS2ZnsVGlOskHXqHaeImgDpdDty0A/IZBfuFxbcKtjT8G39K+Xs/3TX15H9M+r4M2wI0Q+RWajaqLL2SxC0FoONLpdJ7sXjI7i78A8BrVTh94RX6F1YDLHT/2C53jJr8ocl23NpOM6lva58d6vd7Oj/X++r4F4FEAibY2tLS0wLL0XsuI/ArNRMniS3m+boPb3NAXu5CboSDUJyS77ePjebJLwqsj3/ZUl3oLIlQj3QEG4eNqp0ugny3x2jWQXzo2tVG9Vx3ffxTAyfZ2tLW1uUovIfIrNAsli+9KoEFvEgkShPqBpzL8BYC3usguR77tqR4UdRcKhdCtzg+6OK62/Opb075+zNt5n0cAnFDSq+MlwCK/QjOwquJLSCRIEGobLrs8laEUZGnz6jErQYQCTBKoS6LX1sRqyq/puev7xfpS4dKry+78/Lx2ViEiv0KjU7b4lprqwJFIkCDUHm6yW47w6sgUh9VjdnYWO+Q91FUE9eNi6GKpb18LYEKb51fH67pubfz6vJ/+3N329WO9/VcAjre3o729Xeup2i0Li4uLvLoAkV+hkSlZfPft23eQ15WLRIIEYe2ZU1OQ6akMlZBdE5LqVB32zc7yqpqkWnm+Om5yqB+btsW4gS1yoeN1Dbc2/vimrde+6fiXTHp5WkMp91mRX6FRKVl8K41EggRh9eGpDG9Op8tOZSgVSXWqPLsA3MwrmxBd83Q51Ovc0EXStIWS3+9rxzp+rs3hj8G3xfb1418CeMYl0gvkJHhqaopXeyLyKzQiay6+hESCBKG6eE1Btp13rjKS6iRUCy6EpjqTYHqh91tN+fW7/0sAz3R0GKWXor6Tk5O8yRcjIyP9Q0NDQ7xeEOqVmhFfsEiQ3AwFoTJQKoOfKcgqwTafYwAk1ak5WY10B0KXRNOxXu+11TkfwBtWIL+mdv54+rbY/sMAnnaRXmJ+fn5Ff2PDw8ODIr9Co7Ai8fVzcysVigTJzVAQyseUyuB3CrLVRFKdhGrABbPYsR/0/ucDuNhlpgf4uLapXZdafeu1/xCAp4pIL70XrBSRX6FRCJbze/zlL3/57QBwJYA4b6wAcXXth5NJTFgWwuEw7yIIAiOdTiOZTGJ8fBxXpNM4J53G21QaQzfvXEVOAIgoqfXLler5Pyl/775Jp9NOcOAa3ljjmMSvGvDH4cd6XbEt3z9fDXR7GsBmrZ4wPZaOqZ0/pttjPwjgnwHMM+nlg9kqJb3EwYMH+wFYtJCVINQjK4r4VhvJ+xWE4lBkd7VSGaqFDHqrTY7yijqBSyMXTVNdqbxWfaisduSX9h8A8GMAT3Z0YNOmTasS6eVI5Feod2pafCE3Q0EwwlMZSllNrZahVKczZ85IqlONcBTAfl65QlYrz9ckt7xOPy62Ne37kV/+HHRMbabHfQDAk52dsDZtQkdHh9aSj2VZVZNeQuRXqGcs2y79LciyLBvqJnUVb6wSxwDcGg6jo6NDvgoVmhK6kc3OzuLVqq4WRfenADoq8N7wKQDPF8lfbGbm5uYwq+bvpanMduX1qBw3qHSKSqZUmISvGtiaaNN+sWPa17fF9n8CYArAZVo9Rz+HY2qzAdwP4DCAzs5OR3j1+za/h+u/F9VmcHBwWARYqDfqRnyh5PdHcjMUmgy6kdWy7OpUSnyh/t5/Jn/vRlYqOKVIMqU77GLnuV3DrV5ntcQXHoLrdey1ddtfqfyCtR8GcLSzE52dna6yq++vxYxIIr9CvVFX4kvIzVBodObm5pBKpZBOp/HqOpBdnUqKL+Tv3ZWViu9a4CbEF/IKj75u9V7o4kqFH/M6fh5RbL8S8ntIi/J2dnYCcJdd27bX/HdB5FeoJ+pSfKFuhv8WDiMer8a8EoKw+vBUhu1rsLBEJai0+EL+3o1w2eHRWB0/A9T89KlV3P7fulDvVMK5q4jw6semrZ/92wC8FMAmrY1juvMeAnAawHxXl2eUVz+enZ1dU+klRH6FemFF4ktzcK4Vkvcr1Ds0JVU9pTIUoxriC/X3/ikA8Xhc/t4N4lvpHFwY5OyoR4qCSZxNdYRXW7XZqQpJ8AU+BNht31SHMuT3EIBjXV2IRCKIRCLLfVzkd2ZmpiaEV0fkV6gHyhLfgYGBAyMjI/1rLb7Q8n4n5GYo1BEkLdvVSmf1Lrs61RJfQga95VgN8QWTMzfprSReQmxqM9URXm2cnUqAL1DH5xvk1k1y3fb/XwA3sTrOIVW6urrQ1dUFeMiubdtOCtTMzIxTX0uI/Aq1Tt2LLyE3Q6HW4akMjSS7OtUWX0jeL7DK4rsawlttSIJpajY/Ukwi/BtanZvkmvafUo/3Rhf5PQTgWHe3p/DyKG+tCq+OyK9Qy5S9ctvx48d30AprtYCs/CTUInNzc0in08bV1BqVclZuK5Wd6u/9kXQasViMNzcF+sptKJLjuxIaQXoBoFeVV6ryBpUD/EpVD7VqqD5j/ASA46EQjmWzzmA1Po+vFz0A+gD8AMBurf4QgO8DSHR3o7t7eV1FvvIa1ZHwJhIJ3lyTyApvQi2zIvGdqHJUp1TkZijUCnNzc0bZbWThJVZDfKGuf14mg5+m0wiFQggGg7xLQ7Na4tsoFCplTnTj6nUzCfE4gNFsFjOhEI5ms1gHYB2/iAH9sXoAzKro72lNeM855xy0trZqPc2Q9GYyGd5U04j8CrVKWeJ7/Pjxc9UvdU2JL7Sb4b/NzSESiTTdzVBYO3h0t5lkV2e1xBdKWs7LZHAqmcRck/29i/iWhkl83SAhfqWS4J9ns5gNhXAkEMAOJcCE7ZLGAK3+aQA/U8K7ceNGRKPRvH6mSO/MzAzOnj2LVCrFm+oGkV+hFqn5JYvLYSeAzwLoGR938ioFoRrMsaWDafngRs3frUVorIH8vQtuFGqlf3YB+FMAS0tLAIA7QyE8paQ2q4mvXrIA/lXN6ftnAA6vW4dNmzahp6fHua5JdqGE9+TJk5ienuZNdYksbyzUGmVFfEdGRvprNeKrI3m/QjVIp9NIJpNNm8pQjNWM+Oo029+7RHz9YdbL0oirFIjHs1lMBgI4Egggk83iPN5Rye4dAKZ6enC6tRWbNm1CNBpFKBQCmPDq+9PT03jhhRewsLDg1DUKEvkVaomGjPjqXAXg1bOzGB/XhywIQulQ3m77+HheZFeiu7WD/L0LOpWQXp0/BXCeivz+PBrFT1SE9yeq/P8APNDTg/PPPx/r1q3Li/C6MTU1hePHj2Nqaoo3NRQS+RVqhbIivlAD3KCiOrW+llKzD4IRyofn7f5aJoPXSGTXk7WK+BLN8vcuEV9vKi290KZAezybxdLSEp4B8O8Apnt68Hw06kR3dUwpDZZlYXJyEgsLCw0vvDoS+RVqgYaP+BI7AdyYTkseoFCUdDrtmrcrwlsf6H/vuhwKzUGhapbPflWuB3BbWxvu7evjXQAAPT09RsmFJr8LCwtYWFjA5OQkpqammkp6CYn8CmtNWQtYjIyM9A8MDByAGlSyVpGdcpHJ7wUTjbya2mpyAsC9srhN1an0Aha0sIMbfqLJfvpUG7N6lga9Fj8E0KdEl7YAMDo6itHRUecYADZv3pwX7TXdW5PJJCYnJ5FMJnlT0yGLXAhrxYrF96oaH+Dmxo8A/Fs4jHi81hM1hGrSLKuprSa1Jr5o0A+7uvjuUtJbrngeBXBrNFrwNb2OH1kr1sfP8yvWx6udpNerj4mjqjyhtibZ5ZQrvwDw1FNP8aqmRORXWAvKEl/kvrqxUcfiCwDHANwaDqOjo6MpRoELObjsQoS3otSi+KIBP+xWMuL7cQCJLVsQjUaRSCQ8BXgl6GLsdu8pNqtBMbmGzz4kx5S329bWhr6+vpIWPzLJ7wUXXJB3bPp/Tk5OYmJiglc3JSK/wmrT1OILJb8/AjARj4v8NjgkCiK71aVWxRcN9mG3UuK7H8B/9vQgHo9jfHzcl5D5EeNifajd6x5U7Bp+ocd4+umnASW5sVgsT1qj0SgCgYAT5fUrwFx+o9EoNm/enNeH/x+npqZk5hENkV9hNWl68SUaNQ+w2Zmbm0MqlUI6nZZUhlWilsUXDfRhd5wN3Lu5hK/46V3/KIDbolFs2bLFt/TWEn7EOBqNOuI5OTkJKPHdvn07Hn30Uaff+eef7+TgAkAgEEAsFnMk2Qsuvz09PQVTmfF7rchvPiK/wmoh4qvRiHmAzQhPZZCFJVaXWhdfot4/7BYTXz/v7DcC2LlzJ5LJJE6dOsWbG5qLL744T3yj0SjWrVvnyLQuwe3t7UUF+MSJE5ifn3eOufya7rWnT5/2lZbRLIj8CqvBiqczO8Yr6hiZ/L5+kSnIhFL5gPp7b8TpDQsVq5BPANiyZQsANJ30mkgmkzh9+jSeeuopnD59GgCwbt06rFu3DqOjozh+/HhBPq/O9u357zQTExN5EXTTVGebNm3iVU2NTHUmrAZlL2Bx8ODB/uPHj++Iq6VCGwWa/P7f5uYQiUQadvL7RoHyHONzc7hQlg6uCaYBPFcn7ws71YemR9Jpz2heLZJMJpHJZJzjVwAovk5YjqMA7onH0dnZiVOnTmFJrUbWTLS1tWFxcRGLi4u8CUtLS5idncXs7CyWlpbQ0tKCpaUlJBIJ51wTbW1teXPzUjSXosgm+Y1Go3m52s2OLHIhVJsVR3wbkZ0APgvIYhc1ytzcXF50983pNN4q+btCmVylFrvgqQP1hp8oL3G3NnhLvmr3JplM5r1GPJ9XJxaLFUyBNjExkXc+l99oNIrzzz/fV75ysyCRX6GaiPh60MhfhdYbksogVJNmXumtWYVrfn6+7Cj/6OioE/3l9PX1Fcjvc8895ym/kLSHAkR+hWpRtvju27fvIBosx9eE5P2uLSS77ePjebIr0V2h0uxUH3ab4ZseWm3TJGCCP44fP16y/OqYXnuR33xEfoVqULb4NhON8lVovcBTGf4CkFQGYdVolm963KRN8I9bygPKlN9oNCryyxD5FSqNiK9Pmvmr0NWAy64e3RWE1aYevunh70N+5/AVlnEbpOaX+fl5nDhxglc7cPlNJpMFcyWb5JfPAdzsDA8PD46MjPTzekEoBxHfEmimr0JXCzfZFeEV1ppm+aan3DzXeqdSEe/5+fmikV9dsPk0ZzDI77p160R+GQMDAwdEfoVKUBHxbfQ8Xw59FVrL0aBaZm5uDuPj43mpDCK7Qi0i3/Q0NpWSfq+ZHuBjjl+I/PpC5FeoBGWLb7PPsdcs0aBKwVMZ3pxOSyqDUBfINz2Nib7KWiUoJr87duzIOxb5LQ+RX2GllC2+gkSDiiFTkAmNRCMNetsl8/dWBS/59TPHL0R+fSHyK6wEEd8VItGgQmQKMqFRqYdBb4J/EonEige4cVY6xy9c5LdZ51t2Q+RXKJeKiG+z5fiaaKRoUDnwVAaZgkxoVCjN6cyZMw3xTU+l8lyFZY4fP86rHEzyy1MeYJBfmeasEJFfoRzKFt9mz/E10WzRIC67MgWZAJXG0ugfhmVZ88ZgJau3FaPUac74HL8Q+fWFyK9QKmWLr2Cm0aJBJtxkV4RXaDbW6pse/t5S6hy+uyo4nZdgxs80Z1x+i0V+ZYELMyK/QimI+FaBRowGzckUZIJghL7paZS/daFyeA12g885fmGQXxnsVojIr+AXEd8qslbRoErBUxlkCjJBMFPPaU7NPGiqGoPbOMXk188cv2DyKzM9mBH5FfywIvGlPN9Gz+dbCfV2Q5QpyAShPJohzUkoj2Ly62eOX47IrxmRX6EYKxJfwR/1sNgFpTLIFGSCUD71lOYkc/lWfhELL7zkV+b4rSwiv4IXIr6rRC0udmFKZZApyARh5dR7mlMzUa1ZHUxUa45fkd9CRH4FN0R8V5FaWOxCUhkEYXWotzQnYXWoxhy/ssCFGZFfwcSKxHffvn0HITm+JbMW0SCSXUllEITVox7SnLDKUc9aYzUGuHGqNcevyG8hIr8CZ0XiK5SPHg2q1g2RpzLIamqCsPpUI82JX2dn3pE/dspcvmtGNeb4hSxw4crw8PAgrxOaFxHfNYSiQZW8IXLZldXUBGHtqYU0J8HMag5w0/Ea7IYy5/iFyK+RkZGR/oGBgQO8XmhORHzXmErdEN1kV4RXEGqHtUhzEoqzVqkexeS3lDl+qcRiMRnsZkDkVyAqJr6f4hVCSZRzQ5yT1dQEoe6opUFvFC2U3NC1o5j8ljPHb09Pj8ivAZFfASsVX1rAAgCe7+jAe2Wg24rwc0PkqQyympog1B/1MuitGaiFPGevac78zvHLEfk1I/IrrEh8dcLhMDZu3Ihbw2H8iDcKvjGt/iRTkAlC41GNQW+lsKtGpK8WWO1ZHUwcP37c9efBB7tBzfFbDJFfMyK/zU3FxJeIx+P4WUeHyO8K0Fd/ktXUBKFxqVSO/0rgg6OajbUa3Gai1Dl+RX7LR+S3eamY+OoRi/b2dvysowOfktSHFXEVgI2ympogNDyl5vinUqm84115R0KprNXgNhOVmOOX09PTI3ncBkR+m5MVia+e48tpb2/HRDwu8isIguADPzn+1aKWxK/ZqdQcv5zNmzeL/BoQ+W0+ViS+xZC8X0EQBP+s5qA3yfFdptZeh2IzPfid45ezefNmXiWI/DYdVRVfQvJ+BaG52C7f9JTNWg96a1ZqYYCbTjH59TvHL0fk14zIb/OwKuILyfsti50A3LO9BEFoVGph0FszUUsD3HSKyW85c/xGo1GRXxdEfpuDFYsv5fnywRYmKO/31nBY5FcQBKEIpQ56KxfJ8a3d16Aac/xGo1GZ6cEFkd/GZ8XiWyrhcBhxJb+S+iAIguDNWg56E2oDmeN3dRH5bWxWXXwJyfsVBEHwR6UHvdmq7KzBgV1rQT28Bl4pDyK/lWdkZKTfsix7YGDgwMjISD9vF+qXiolvOW/GkvdbHMnzFeqJn6pyQv6mK47XoLdS5vG1eYUA1ODgNs78/HzV5vgV+XWHor+6BIsI1zcrFt99+/Yd5HWlIHm/glDfkOz+NYAHOzrwYEcHNm7cKN/oVAEa9FYOFOUVCqnVwW2cas3xK/LrD5Lg4eHhQYkE1y8rFt9KIHm/glBfnHCR3fb2drS3twPsGx1h7fArvLU6uGu1qJf/f7GZHsqd41dWd/OmpaXF2aeo78DAwAER4PqjJsSXkLzfQiTVQagVdNn9VjhslF0OfaPzXkl9WHX8CO8uFRUU6oti8itz/FaelpYWdHV1oaurC7FYzBFhEeD6o6bEF5L3Kwg1x08BfE0Vkt14PO4quxxZwXF18SO8QiH1MMBNp5j8ljPHL0R+PVlaWkI4HEZbWxu6u7vzIusiwPVDRcWXD7goF8n7FYS1heftzsXjTnS3XOQbneojwrsyan2AG6dac/yK/JqxbTvv9Y7FYgW/MyTAQ0NDQ3kNQs2wYvGlBSwqjeT9CsLqwmVXT2UIh8O8e1lI3m91qESUt15yXKtFvQxw4xw/fpxXOfDBbvA5zZkscFHI4uIiYrGYUX67u7vzcoABYHh4eNCyLFsEuPZYsfhWG4oSyY1SECqPl+yuJLrrBX2jI+lMlWEnrxDKpl7lv5RpzuBTfmWmBzMm+W1paUFbWxtaWloQi8UQCoWcNpkBovaoqPhWKtWB08w3yp0ATvJKQVgBfmZkqDbhcFjSmcqkkq+XLGDRGJQzx6+ffF+R32UWFxdhWRYsy0JbW5tRfru7u53IcGdnpyPAkv9bW6xYfKuV6sCRG6UgrIxSZ2SoNpLOJNQS9f4BoNQ5fv0OdhP5NdPW1mZMjwmHw84guK6uLhHgGmTF4ruayI1SEEqDZmSg6G6pMzKsBjLoTRAqQ7GZHlYyx6/Iby7qq9PW1lbwgSkWizl1lmUVFeC8k4VVoa7El2imvF+Zx1coFZ63W4kZGaqNDHpbe5p98YL5+fmCEfr1SDH5LXeOX1ngolB83Whra8ubPYMEuLu7u0CALcuyJfq7utSl+KLJ834FgcNltxozMlQb+ZtefXY1wFf8QiHF5Hclc/w2u/xaluXsx2IxY7oDQTnBOiTA+iwQMv3Z6lJR8U2lUryqqkjer9DMeMluLUd3vZC/aWEtqddZHUxUY45fyAIXABPalpaWgkgwF2KTANMKcITM/rB6VER8V2uAmwnJ+xWaiVqYkaHayN+0sFa4iWK9Uo05fiHy60ApDFx84ZL/SwJMEhyLxdDV1VWw/LHIb3WpiPjWAo2c9yt5vkKtzciwGsigN3/s4hVl0kjRTmGZUqY5g0/5lQUulmlpaSlrKlcS4JaWloLor6Q+VJeGEV9IjqDQYNTDjAzVRga9FVLp9zaZy3eZRhngplPqNGcyx687fHU2qG+o9IivbduwbRvRaBTz8/PGNAcdam9ra0Nvb68jwJL6UD0qIr779u07iCouYFEKeo6gRIqEeoPn7dbDjAzVRj7QVh+vG7NQ/xQb7Mbl1+9gt2aUXxMU9bVt94XDiwkwVJ+2tjZHfin1QaK/laUi4ltrUI5go3xNKqkOjQ2X3XqckaHayAfa6lPsptwsNGrKhx/5lTl+q48fAebv+8PDw4Miv5WjIcWXkK9JhVrFS3abObrrRaN9oBVqj0ZP+SgmvyuZ47cZ5NdNWhcXF41pEF64XQsuKRWU+sDrhdJpaPGFfE0q1BDNMCPDakAfaEV+K4M+l2+jRjuFZYrJr2mOXz/TnDXDAhcUifWS1lJxu5YefaePFLLgRWWouPjWQp4vR74mFdaSZpyRodro3+bIB1qhUngtRtBIlDrH73PPPedLfht5gQuefgAPaS0Hr2vFAVyuCbDk/a6MiojvWs7j6xf5mlRYTWRGhupD3+Y0+2IXO3mFsCIabVYHN2SO39Io9/fCTWbdIAHWH+8YgF4AVwC4TNVJ6kP5VER864l6zPvdCeAkrxRqDp63KzMyVJ9mXOyimSVfqCzVmOMXDSi/4XDYGPH1i1c01ws913cSgKUE+HUq+isLXpRH04kvJO9XqCBcdmVGhrVBvs2pDJLj2zzpDqjiHL/RaLSh5NfrvTydThsHoy0uLhacV6oA6+dPKGELKAG+HMAFIr9lUXHxrcUcXxOS9yuUi5fsSnR37ajHb3NqAVnAorkpNtiNy6/fmR4aaXU3k9gS8/Pzxg+MiUTCNT3CrwDrjzuuiS+VC7TUB8n79U9FxLcecnxN1Ever8zju/bIjAz1gXybI1QCN2FpVPzIb7PO8VsszaGUiC+nmACHw+G8152ivfq2Vxv4Jnm//qiI+NY7EikS3JAZGeoP/dsckV+hVJo1+l1Mfpt1jt/29nZXOV2J9OoUE2AowSXZ1YvFZn2QKc+KI+KrkEiRQMiMDPVPMw56EyqD21fXzcDo6ChOnDiRV0iIR0dHCwa7lTLHbz3Krx7tNYmp2++KV5qDFyYBpvTRi6mPhwBT3i8k9cETEV8NyfttXnjerszI0BjUQyrTWiMLWAg62WwW3d3dTslkMk6Zm5srmKf3ueeew8LCgiNtbiUej9ed/PL3fy6mpojv4uIiLMsqKeLL4fLbS/XaVk930MtOTX5lqWMzFRNfyvNNpVK8qa6o1bxfyfOtPFx2ZUaGxqTRU5l28QpBWCHRaNQpFK3t6enB5s2bjbM1jI+P8yoj8Xi8QJxrFa/c3sXFRczPzyMcDiMQCDhlenoa09PTvHtZkGQvLi46wgst4gsW7aWtpXyB5/1K6sMyFRPfRqPRb5bNipfs8k/3QuPQSKlM9f7864FmzfOFmrLsySef9Cw6JMinTp3Kq3djy5YtvKom8YpOz83NYW5uDul02klFWFxcxOLiIqAiwbRfKXiiBY/+8rQHnvcr8ruMiK8HdLN8r9xs6hqZkUGADHoTSqCZUz527NiBiy++2LPo+auU4xuNRn1Hfmtdfjs6OgrSDXRIdltaWmDbNrLZLObm5px2ihbz1IhSocfRUx149Fev5wIcUKu9Sd5vPiK+RQiHw9i4caPk/dYhMiODwJFBb4LgTTkLePT29iIejwM+0x6i0WjNym84HHbuESZpJcGNxWLo6upycnwXFxedNDl+j1mpAK9nx27yq6c98NQHPe+32ac8q5j47tu37yDqaAGLUlnrvF/J8fWHzMgg+GGt/55rDVrEopkjnUL5JJNJBAKBkuXXK51grejo6Mg75oPZUqkUurq68v5WEomEE1Tp6elxzQ1eifzyM7n80rEuvVx+L1d9mj31oWLi2wxI3m9twvN2ZUYGwQ+N8vd8lFcIwhpBszckk0lf05zV2kwPbgPaSFjn5uYQi8XyZnJYXFzE0tKS7/tNKdFfniesCy4d69AxSS8vvQBez/J+mzH1QcS3RCTvtzbgsiszMgjl0Ah/zzKrg7DauH0zQFK3ZcsW34PdakV+Ozo60NtL2bSFzM/PIxQKFUxflkgknJxgv0ILnwJM36D7SXXgxyTJPO3BYnm/zTjlmYhvGUje79rgJbt+P20LAkf+ngUT5SxA0AiUM6OFHt2tR/nt6OhwUhxMMppOp7GwsFAg/IlEAq2trXnBFtP5XvgRYGjSqh8XayPxNQmwKe+3WVIfqiK+jZrny1nNPMGdAE7yyiZAZmQQVovV/HuuNWQRi3zKkT9hGcuyEIvFSprpYa3kV5degovo7OwsotEobNt26hKJBILBoPE+5Fdmddz6lxPt5fu69OqpD7tU9BdNlvdbMfGlBSyajUbJE6w1ZEYGYS2o9b9nno6xkx2Xg62KkI98AChEX764GJZlOakDpcjvai1w0dnZic2bN6Ozs5M3AZqIjo+P56U4pNNpTE9Pu0qvjpvMuqELsz5HML8KF1x+bGrTpZfqLTXf7xUq7xdNMuVZxcS3mWmEPMFaQGZkEGoB+ntuhMUuvBDhdaecKb0aBdP/fXR0FI8++qir9PIIOQlcOfK7GtOcdXZ2FkR5OalUCmfOnEFra6sj48lkEgsLC875fsS23Oiv/nN4pIjg8mO3NroGF2CS32bJ+xXxrRCSJ1gePG9XZmQQaoFaXexiZwWivCK8gl/cIryhUMgpUOI7Pj5eIHnlym81Ux5M0svFdHZ2FjMzM4jH42hpaUEymXQiv729vYhEInnn8vNN+O0HFu09y9IduODy42JtJL66AOupD80gv1UR32bJ8TVRrTzBRprHl8uuzMgg1CK1uthFuSLuV3jlK/4czTq4DUpkTdLb3t6ODRs2IB6PY926deju7nZSAMbGxjA2NqZdJYcuv6VMc7Zz586Kpj1EIhH09fUVTW2YnZ3F0tISOjo6YNs2EokEQqEQNm/e7Bnldavn+OmnrwL3YgAbXCTWdOwmvHyfR32p6Hm/jSq/FRPfZs3xNaHnCZZ7k2o0ZJCaUK9U68NsuVzFK4rgR3j1wW2CwGlvb8eWLVvQ3d2NUCiEYDDobPXobDH53bp1q++ZHqDSHlYS/Y1EIujq6kJfXx/6+vqcSK2bfJL0RqNRJJNJTExMoKWlpWiEmPAb1fXqp0d7AeAlamsSWn6s49amn2e5CLCe99uIK71VTHyFfChPsNa+Kl1NdNmVQWpCPVPrg96gCS5Jrh/hFdwx5bo2C8ePH8fo6Ci6u7uxadMm5yt/kl0qlO6gz39bafktZbYHEt2uri5s3boV69evR2dnJ1pbW3nXAsbGxrC0tITW1lYkk0m0tLRgy5Yt6OzsNEqql7x6temY+ujR3pcwIdULwff5sWlfP6ZzeNpDL4Ar2WIX7BJ1i4hvFanVr0qrDQ1S02VXBqkJ9U6tDHrTI760eAUXXH4slE4zpzoQutwGAgEEAoE88Q0GgwgEAohGo4ir5Yq9sNQ0Z7FYzHe+L1TO76ZNm3g1AKC7uxvd3d3Yvn07NmzY4IhvMUg6U6kUnnvuOSfNbnJyEuFwuCAlwiSp8KiHavNqB+szNzfnRHs3AHiZJqam4lxD2+fHfJ8f05ZHfalcqfJ+R0ZG+htlqjMR31WgUl+V1nKeL5+RYS4eF9kVGo5aG/QmUd3q0cwRXwBoaWlBNBp1BJcEzbIsR4KpQEVb6f2eR331c60yBruRMFNecXd3N3bs2IHt27f7Fl0Ts7OzmJqaQjQaxezsLMLhMLZu3VpylNdUp1OsHaqPHu19GdUzQTXt07EOb+PHpn1T2oOlfcBulKnOKiq+lOebSqV4U9PTiHm/fJCaPiODDFITGpVG/CZnp8rx9XODbiaaOerb0dGBQCCAUChUILu6AOu/M/z1Moki1fX19SGZTPpOe7AsC3EVUKHUB35tHd7Gj2dmZjAzM4OlpaU84dXh5xCmetP/VadYuy6956jCBdSrgO3TsY5bG78GT3sIqMgvGmTAW0XFV/CmEfJ+uezKjAxCs1Kpb3JqDS4vQvNiWZaTzmAqJpmjWUG8BkvSeTTTQymRX0sJtx6FLoWZmRmcOnUKMzMzTi4wF14dt+uXWk/w5zw3N4czZ85gdnbWEV49xQEl7BN8nx+b9vVjOkcvvdpUisPDw4P1nPYg4rvKrCRatFapDjIjgyCYqYdBb0L5yNRu+ZC06cUNL/GFulZbWxvi8TgmJiZ4c1EsJeUk5sWeD7Qorx/h1XG7rttjutXr6MJLPA/g5QA2GsTTbyH4o7u1uZ1nGdIelocw5uRXO6wrqiK+zTyPr19qPVokMzIIgj/om5zVWrmxmo8xOjqKaDSaN0q/WSkmbs2Al7zpbX5Ez4Slor6xWMy3/JoehyLAes6xzszMDJ599llYloWuri7fwqtjelzCrc30uszOzuL06dN5wgsAe5j0gklpqftux37bCD3doU/L9x0ZGemv15SHYCWf9/Hjx889ePBgP1R+kOBNOBzGk5aFR9JpxNXceV4cA5AGsJ03VJCfAvgZgHvDYYzFYojH44jFYpLGIAgeBINBdHR04KfpNDKZzIpXV/NiAsC9av9qH+8bfjmmrr24uIje3l7Mz89jaWmJd2sawuEwWlpamlaAo9EoIpGIk+Prhm3byGazyGazsG0b6XQai4uLAIC+vj7ePQ+6bmdnp7O4RSwWc4TRJI4ck4Dr56VSKUxMTDjCq6+6Vkm8nqdlWZidncX4+LgxMHipKjzSq+MmpivZ58d8n471+rgaUDsBQPmeVW/rOBR+NBJWlVrI+5UZGQShMtT6NznF6OvrQyKRQCKRwObNm33Nfyo0Jn4F0bbLn1fEtm1HUuPxOBYWFowru3Gp5Mc6dD2KAsdiMWzbtq2sKC/H63Hh0j47O+sUzl4ANwK4TIuqknDyAkOdn0LwfX5s2teP6ZwAgAu19nrM9xXxrQH85v3uBHCSV5YJH6QmMzIIQmWo17zfnWoKr+3bt2NsbAwTExNNLb7z8/NNP9CPRI7kdiWS6wU9Tjwedx3oZpJKgrfRsS7ANBhupRS7Bok3yS7lFetcAeC9aktCWUpBGft0rOPW5naepQn6Tm2wW70tbiHiW0NQtKhaN0wuuzIjgyBUB/omp16nL9y+fTsCaiqr3t5eJw+TF0HQsW3bSXMo5feDZDEajSIajbrKrw4XUH6sQ9evlACbzifBPXXqlDNrBBfeKwF8oATh1fNrSdaoTd/3W/j5dKzv82PTfgDARZr4AkA95ftWNMd3ZGSkn3J8I5EIgsEg7yIUIRwOYy4SwcPJZEHe7wSAxwG8VKsrxgkAD6tUhsmODjwfiSAejyMcDovsCkIVCQaDmItE8PNMBudlMhXLxdVzfK+sYI7vLgAPJRJYaGtDS0sL2tra8gotHKCXvr6+vML7tbS0FIhyS0tLXiFRqkU2bdqE0dFRXt0UdHR0IBQKoaWlhTc52Lbt5PjSdmFhAdlsFi0tLeju7uanuEIyGYvFsLCwgEQiUSDPXDj5sY5bm8XmH3brV4zZ2VmkUimMjo5iZmYGqVTKuIbBVgAvAvBmAFt4I0OXVNOz4nVuYrqSfX7M93nfdQCeq7N8X6uSX13o6zmTXAnlkU6nMTs7ixvTaedT1TEA/wTgrayvCRqkFg6H81bUEQRh9RkfH8d/Tafzlhsul2OA863QB1nUZaXcDeC+3t6ig5KqCR9MxldQ4+1udZVgx44dOH78OK9uCjZt2oRIJILW1taCVAcSXtu2kclksLS05GwnJiawtLSEWCyG7dtLH4pNeb+PPfYYdu2iOQTy0b2FO0w5bdlstqAOKoobiUQQiUSc6O309HReHxNbVbEBvFKrtw3Frd5vofP16/jdp2MdP220zQBYUu9J9M3W4ODgcK1Hf0V8axx+w3wvgL9gfYifqhzgE+rTusiuINQOc3NzePXs7Irl90eqAMDnWFslqAX5XQkmCfaSZ8uyCtqhBvq1tbU1tfi2trYiEokUCK++X0nxtSzLiR6PjY3BUoPeoB6P4N5SqTb9eGFhAWfPnnWOvSDRhUF0OTYTyFIKnZN1qTdd31SnH+v9TMdubXSNjCq6/Nq2zQPDNUXVxFfEq3LMzc3hnNlZfMAgvj9V25+p11xSGAShdtH/lstlNcR3RKUm8MFd/KvneqXY19v8a/ZEItFUAtzS0oK+vr488dWFl7a6+JL8rkR8Cbr2xMQEbNtGPB4vKq0raVtYWDAeu0V3twLYpsRPF12dYmZF4uhV/PYznaOfW2yfcNvnx/r5WSW+We19qdajvhUVX+TeUGyI+FacdDqNnvFxHAPwalVHsgs1mEYQhNqH/pavKjNNodriCxW5OWoYmKcfcwnWj2tNmIuJrh9GR0ebJt+3FPHVo72VEl+o61PKA//9oUFw0WjUmf6MnpdpOjS9ztR+gdqSDV2g9ncA+Be2YupWAL/mI1/Xy6xMEqnLJK8rteiP4aeO9vU+pmO365iivrUsvyK+dQTl/dL8ivL6CkJ9Ysrh98tqiK8fuBQf1fZ5mx9hrrQsV0J2Oc0ivy0tLVi/fr2T3+omvtlsFplMpiriC/UYY2NjGBsb400O/O9np0HeSGxp30vmTHWPA/hXNp3oVgC/rx1z+HPQ4W1cJP0WGNIe+LVM1/fap2MdUxs/f0k9l3qQXxFfQRCENYLn8PuhVsS3XLgUkzDzen7MRdhNmPlxpWkG+Y3FYli3bh1aW1sRDocLxJf2ufguLS1hcnKyKuK7C8DNVM+2xer0/VLr9LZfAfh3AM9qda80pDsUsyq3drtI8dPHVgJKffVzvOp4e7F9fi6lPNgA7lGzzwBALeb7ivgKgiCsIaUOetPnBq5H8S0XLsJ+hZmLsJswc7H2otHl1018edSXxFdPdyDxpevEVK54Ka+vDsnvlWNjuEavN+z7rdP3S6mztVzWg1offWAbzebghVc7PQ4VU12pRb8G7ZvqeHuxfX4O5fqOK/kFgP7+/pEDBw4MaKeuOVUTX1qNTBAEQfCmlEFvJL471XRmgjdchP0IM81L7EUjyy/Nx+xHfEl6ufhGIhF0dnY689umUqmyosD0uGNjY3jF+Hie/KKIrJnq9P1S62xVLABpALcZVlPdCuAVmgxz9Oub4I9fqaJf208d7et99GNTf1uL+upjBGot5aGiC1hATWJ8/PjxHbRGtiAIguANLVzz3WQSO4ssSnGv+hoxrhawELyhhYCo7FLlSlau1sq3E4mi4ksRY9P0afVOOBxGNBpFKBTyXIiKph6joi9gEQqF0NnZ6cwj393djaWlJSwsLBRE273QF7b4hSa+9P25vi1WV6zdq07f2mr1ssvV7A7jAGj+hxkAj6h9N/l1gwsmPZ4b9FzdCof/P4rVuR2b6vRjG0CP2k7U4OIWsmSxIAhCDRAOh7Fx40bcGg47Obwm9AVtPqnK3arQwBK9CKXzQQAnTuhj+c34iQzXI7RaW6UHCHZ1dWFpaamkSLmllhumOX33623algscryvW7lXHt3q/XQBuAvAnTHR/AeBbLB+4HPTHs9gSxryNF77ksf68eV9TnamN9nX0Y/2xdikBBoDh4eHBkZGRfq3rmlHxVIeBgYEDIyMj/ZLqIAiCUB5eeb/64DYAOA/A09qWOFdtn9HqTCPgdxnqhdwHiUM+xfbs2bOeMw/UG93d3Whvb0draytCoVBBioMe4eWzOuipDvTakbjS/okTJ7B7927tEc1YllXwmE888QRuM8iX/rW7nzp936uOb3mdrc2skAXwKICvaX2hpT9UYgo0esyVFv1apuu71enHpnbap5QHW3u/qpV834qnOhw/fvzcgwcP9mcyGWeOWUEQBME/4XAYT1oWHkmnjekM92r7k2xLTAFYB+C/qfLrALrU3KRURtUglL4i6RXNyC4A84kEjhkGwnEora9R0h4otzcUCiEQyP9iWA+W6QJM+3NzcwCAUCiE9vb2POGlrWVZvlIe9Iizvp9IJLCLya9XZJLXFWvnW1Md39L+BgD9KgeY8n/9pD/oYukFPY4Jeh68uKG38f+TWx3B60zHtradyPnhDtRAyoOkOgiCINQg7e3tmIjH82ZxQInpC88AuFNNwaRHg89T5b8CuFalSwiFXA3gsiKD2EgE+/r60Nvby5vrFj9pDiS7+jHR2tqal6agQ/m+Xq+rGzzdQUcXPX3rtu9V56dN72NpQhVUvzvvMKQ/fLyC6Q9uqQy88H5U9GtRKaWO0I9N/S4EcL7aHx4eHlzrgW4ivoIgCDVKOBzGRDyOW8NhR3h18e3t7XUKTR1FReekmn6Jyp9r5d8BvFvk15WrAXSPjvqK5jaK/PIobTno0msS4O7ubl/pITzqa1kWent7XeUXBlnT64q1+23jW108aX8ngBtV/q+e5vBtJcF+MUWD6bFWUvTnbLqmXkf7OnobHev7Qa3uQvVhG0p+ta6rjoivIAhCDUPjJWjQmy6+bW1tzgCr7du355Xdu3c7QnxMm/7sg2r+38+p/WfUDWmpxGhyM/HB3Ne0vDovwknUo/zGYrG85xwOh/Pa4fJ/1TG1c+nl8rtx40Zfgwg58Xgc9/iQXy5svM7U7qdN76P35VFXOr4QwA0A3qIJsB79LXzl/MOfh/7YvPA+vND19Ot6PYaOfmzat1T6EFSu71pGfUV8BUEQ6oB4PI6flThuoq+vD7FYDDtV5FIoHz7Tg0n0iHqTX9MAPq9oL/+/82Oo84uV1tZW47lgj8/3LctCNBrFE06tO1zeTPt8a6rT27z6uIlmAMDFKrXo11RfqOjvtwGc0upKgV49egzTY+vPgRfehwpdk9dxeBvfp8eAigBfAGBkZKR/LaO+FRdfPWk5nU7nNwqCIAhlU+5qmDJrw8rZCWDf/DxGR0ddZU2nXuTXlBpDouklv4Tba8Fzf01lcnKy6AA3N9ra2jBRJOpLcJnT6/nWVOenjW8tF7kMAbgKwKCa6QFKet0E2PzquqM/lp/iJcJ0Pa/r6ujH+r4uv/pfxFpFfSsuvoIgCILQiPgZ7KZTD/JrivYCy5FVL7j08uNsNluwyAWVZDKJdDrt+vj8WjzqC/UtyA+1PsXgEuenzk+b25YKl0oAaFG/T3+spT+QAJeS/2tCf2z+HLjc+i36dTm8nu/rJV4DH8RFfAVBEBoYmvrJxFGV32u6mQlmrgZw+dhYQ8ivHu2lwXuhUMhVeLmM6ti2jcXFxbxjt5JMJjE7O1vy8sWEni5RbKAbxyRyvI5vTXVuW6/CxRNKAq8D8IcANqu6ewB8YoUCrD8el1293q2P/hz1ff2Y11ObaZ9k09KmTlyrdIeqiq+kOgiCIAiNxtUA1o2N+ZrpATUqv7FYzBht5dLrJrt6Pe8TiUQQiUQKhJfK9PS08bGLQc9Nf7ze3t6Sor6ESdBMW1Md3+rF1Mal0iSbu1X+7yvVuVAC/B1D+gNh/skso+f/+ilchOn5eV2DMB3zfRJOfc7wtUh3qLj4rvXExIIgCIJQba4GfEd9UWPy29vbi+3btxfk9upwAXZDl9ClpSUAQCqVciSXpzpMT0+jo6PDeWwuzaVAz7HUqC+hy5ppa6rT24r10bdcJqnodQEArzekP3yniACb4K8qf878ebgVen5uUD9e5wbvf/DgwX3a4arg9f8RBEEQahgvcfEL3YSeqYHcu3piJ4D+RKJk+SXhdJtzuZr09vZi9+7dRaOt5UivbdtOBJxWfePSOzMzg3A47Dw+nV+K/JqeW29vL/49FsNR3uATuiKXPt6m9+F1xbZ68RJgWy32cC2At2rpD7oAwyC2fuCPrcu4XvjzLbXoj+d2TOlXIyMj/asd9bVK+YXzi2VZNgB0dHSUPQpZEARByCedTmN8fNw5vuiii4wioHPixAlcl0gYpfZuAIsA/guA/0/N7SuUxt0A7uvtLSqTpcLTKObn5/OOebtbHZQYFnt+J06cQCKRQEtLC/r6+hAOhxGJRJx2XWChBq5lMhlkMhksLi5iZmYGyWQSUIPOaC7gdDrtpD1GIpG856H7h+n32FQHgyjbto2xsTG8YmwM1+S1lA5d2W1rqnPbmupsQ8l61AHA4wC+ofaJKwFcwep09OfA8XouvNDz4NtihV9fP4b6P9EHlf7+/pEDBw4MqMOqI+IrCIJQJ5jEFx6CABHfVaFa8rtSEomE74gyiW8sFkN3d3dBni6wLL9Q4ru0tITFxUUsLi7mrcIWDocd2dWj2m7SC4/fYbd6/Xzar7b8mur41lRn2pqKSSp14fx3AP+prgGVDnEFWxUO7LmY0Nv54/FiEl7T83Qr/DHo+OcAlt/JgMHBweHVivxWNdUhlUrxKkEQBKHCcIkQVpdSB7utFn6lV4dmZuARXv3YVrm7mUwG2WwWU1NTzvm9vb3YuHEjdu/ejd27d2P79u3oU6sL8mvq0DX167r15ei5vuUMdOOQapu+wjdt/fThW8uQVmBKNaC6IIDfUOkPev7vd1Xxm//LX039MUpJd/AD76cfX6jtY5VzfasivjLATRAEYXXxIwhC9eAru9UzXHZ5rq4upxMTE86gNkqp0AeueckuVJ9MJoO5uTmMjo7i5MmTePbZZ3Hy5EnMzc3lzQXsxUoHunF0wfPamuqKbfVikk1THZ1/PoB3suWPyxFgDn8c/jzLKfza+nEvm91hZGSkXzusKlURX0EQBGH1KSYHJvhNSSifRpNfLry6+CaTSZw5c8aJEOt5xF6iy8lmsxgbG0PP1ClcHZ7AR7ck8U8XJfHRLUn0TJ3CE088kbdante1aV7fSkR9CfrbMG1NdW5bvbi1mWTXVGcpAX6Hmv+XC/C96rgc+OPwovfRz3GDt3md1xCpDoIgCMLq4iYFQvUpZ6aHWoGitHqqA21JdqlMTU3l5fTqlPL7l8lkMDY2hmsik/jbncBbNwIvVcOCXtoO/O1O4J9fDry+ZRyjo6PIZrOuOb86lYr6Elz4uAS6bcvta5JdU50F4AIAf6Itfwwlvv8I4DmtDoY0Bx29zfQ4vOjPB4Z2Kjr6scUivljFdIeqiO++ffsOQhawEARBWBNKkQ+hspS6slstosuuHum11apr09PT/BTf0HUymQzm5+exdXESb93Ie+Xz1o3A+Pi485y8qEbUF0zk/GxNdcW2XDhNsutW91o1QJVHf00CzOHvFja7frFC8GO3elMfrGK6Q1XEVxAEQVhbSH4TLjM66LjdiITyIPmt17QHPa9W32az2RVJL2FZFrIqP/hvi/1yKt56Tm7BEL8f6mIrmNfXC/pbMW25DJaypX03sXWro3pbDYD7EwB/ZBBgt/QH/mrqx/rj+Slu5+nwfsTu3buBVUp3EPEVBEGoI2h+VD8Uk4RjKldQqDxXA7gukcBjjz1WF9HftrY2Z2W5dDrtRGahPjy98MILePbZZ5FKpVxniyj2+0bttm0jGAyitbUVXzvDe5l5aUdu6/cxEomEs0hCpSFhMwleKVuvc/3ILq+n43PV6m96/i+lP+jwV5Ifw/A8eaHHdjuH1+nHOiS+qwF/voIgCEKNUor0QlvQ4CYluW48Lau2VYWdam5kiv7W2nRnOrrMTk1N4fTp0zh9+jTGxsZw9uxZZ3pSP8sdc3SJ1vd7e3vx/USnL/n92hmgtbUVlmU51ygqwbyigugiV8qWS6HX1ipBdk19zwXwNi3/9zklv6cMrw0/1uv48zYVkklLO18/l9eB5fg+9thjwCrl+VZdfCXPVxAEoTqcPHkyr4yNjeWVkydP5vU/phXCdGMSKgtFf8MnTuDEiRMYHR3F6OgoEolEQVlLaCoyktp0Oo25uTnn2M8KcDpcTvm+ZVno6enBV58HHp5zmgr42hngZKgbbW1tBdKrH1OdHu21tVIN6G/Ha6sX3lZsqxcv2TX1pf1+Jr/fY3m/pteG1/Hrm4oulLxNr9P7EBTxXY0836qs3DYyMtI/MDBwAGzpQkEQBKF89JXbdhaJ4uq83tD3STUi/De0VaE+yPoIleeYtlQr/5mY6kyRVV7X1taWdwxDn1IhMQeA7du3Y3R0NE96R0dH82Z26O3tdVIlYJBcr/35+XlMTEwglUrhpe3A2zYCD88CD83lhLi7uxvxeByBQMCZ1YFvdRKJBFpPnsTNvIFReGb50P9KNype53drqjOtlsbr+DGvewrAt7TH+B0Am7RjQn8evM60gpu+zRieg6nQNf9J7f/u7/4u/vEfc8kYtm1X8kdTgIivIAhCnZBOpzE7O4t0Ou1LfK9S29errX7DoW1WfR3/Bkl3qElMP2M+aMvUh9eZRJjX6QLN2zg8dWP79u2IRqN5fbhf+DkmCY5Go070mcutfmwS4LGxMVxZ4tLFlTIt099YKVtTHW2Lia3pmOro/KcB/IcW8b0MwOVqH+x5mOr4dfmWyy8/h5f/ADAG4E1vehO++93vAgAOHDgwUM2F0ER8BUEQ6oTx8XFHenf5ECAushewYxvAP6tIL+8rNBb8dwNFfn9onwswHfPUDB7xNcF9wxT91bfFBNdNiE+ePIkbVjC4baUSrAufn62pzm3rJrZex7wtA+Dr2ipvJL/0GDq8jo71x9EfL6MJMH9sXgDgMQCPK/F99NFH8dhjj2FwcHC4mrM7VF18Ozo60N6uZqQWBEEQykYX3w9p9W7v4lx2uOhA5Z8KggnL8DtDv1N3s3pCF+Vi+17i64ab+FqW5eS2XwOUFO0lViq8OvS/KLY11RXbmqSS1/Fj3maS38vUPkGP53bMxVffkgDTY9L5vIyqqC+J74YNG0b27dt3sO7EF7lfQhsivoIgCBWjVPEVhJXiJoOfYB+sblFbN1Gmei7TbhFlHZ5CoROLxTA+Pl4zwqujC59pa6rzuzWJLa/jx7wtC+AggHvUNTcBeKP2GDpudfrj6FuSX/64vIwB+JkSXwD47ne/W58RX4j4CoIgVByT+FbnHVwQcrhJoZv4FoNfj4syP4bhmwudo0p2a0l4dejvk29NdaVuTWLL6/ixqW2Eye9lbNAbPZ6OXsfF12YpD3o9nUtl1CC+/f39IwcOHBjQHqKiVH06M0EQBEEQ6hOT9KCIjJbCLlZIYvXyIVZu1sptNSy90B7HYoW3+d3q5xebxsx0rNdTmz7d2WkA31dbN/jvBL82PB63FhDxFQRBqFP4DUgQqkGx37N6Ghi5FgKmP2Y5Wy6O+rFJMHmd2zHJbwDAPgC/p64PJb+HtGOC/y7QMX8O+vUtdo7eX2e15vKtmvjSVBS02osgCIJQPul0WhYEEmqScmdPWE1MorXa0OOXsjXV8a0umFSKHfP6gFq+/PcBbFbXPqzklx6LwyWYPwYXbGhta0nVxFcQBEGoHnercowVQagGXHLWirWWppVCz9/P1lTntiXBpH0/x3o9lXMB/JFBfjmm3wfb5dr6PsfS9i+++GJnv5pRX9PzEARBEGqIubk5Z8U2sBvJj1i5iZVPGgpJs5s8i0AL1UCXnGaGXgevramu2JbeE2jfz7FeTyWo5HeLuvZhAD8wPJ6OLsL8Mei6/DEtNbiNoOnpqrl4BVDFWR0GBgYOjIyM9IfDYcTjcd4sCIIg+GRubg6zs7POcSmj2E2j5HkdPzbV8TxOfmz6upv3EeofS/1ufFKr+6DLz5/DZakcyr1GuedVE32WA7e6cra2YTYHfswLnavPxJAF8FM248NvuTwmhz+uPsuDPs3ZQSW/b3rTm3DxxRfjf/yP/wFUefW2qonv0NDQ0PDw8CAAbNy4kTcLgiAIPkmn03kR31LEt1JwES52bKozibBeZ5In0znC2nKsDsUXKzy3mnCBrMRWl063Y73w8/RpyPhcv3sBkNXxx+b7dA0SXl1+oaZSE/EVBEEQ8uDiu0tN5VRvcBHmdcXa4SLCIs+ry1qJ71qfX024QFZiS8JJ+6Zj3l/vp8vvUwC+o/oCwBuUBJseV8d0PV2Av636ifgKgiAIDo0ivpWAizCvK9YOFxHmdVzkeHszU474VkI6V3qNlZ5fTXQT4xLptqV9Xq9vSTppnx/r/fQ6XVTd5HcvgEtdHlffQrsGX9jim6r9L//yLwFAxFcQBEEQ8a00XIRNdcWOuQjzYy6CvL2euVsNpCREfCuDbmNcHvnWVKdv+b5JfvV2XmCQXwB4GsB/AjiljvcC2KNdy7SlfXpcXX6/odo/8pGPwLbtxhHfeDyOcDjMuwiCIAg+EPGtPbgIl3psEmGvlA1T/7WCi6+f5YpXKp0rPR8VukY14TbmJpClbnXp1I+9Cp3L5dcGsKQitaXIL231a50G8H9V/Uc+8hEAwEc/+lGgXsV3ZGSkf2Bg4ABEfAVBEFaEiG/jwUWY1/F2fmwSYS9xhss55VCP4rvS81cDk43pdVwiS9lS8SO/pnN08aWo7X+wQW/XsPPdtnSNU5r4fuMb38Cjjz4q4isIgiDkOHPmjLMv4itwEeZ1xdpNEuxXnEV8q4OXjZkEstStLp36sV54X/2cSsgv7WcB3A/gV2rhisHBQXz729/Gd76TyyIW8RUEQWhydPEFgNvyjgShNIqJcbF2nZ1KlN3EuRLSudJrrPT81cLLyEwiWeqWipv88n78HF18qfxMk18o+d3Irse3WQA/BnAWwIte9CJ85CMfwXe+8x18+9u5eR5s267aj6xq4gsAlmXZANDR0YH29nbeLAiCIPhExFeoFT6uSfAuJTpHXcR5p5JOkmJdiE1RZRMrNaCVnr+aFDMyk0SWuqXC5Ze3m4qb/B7XpiZDEfm1VX7vv6i6oaEhXHzxxRgaGsKjjz6a6yfiKwiC0NyI+Aq1Ahdfr7Qb6se3tK/Lr5scr9SAVnr+auLHyEwyWeqWCkksr+eF2nXZ1Y9tAM8w+b0UwMu1c2lrAzgC4CFV9+1vfxu2bYv4CoIgCMuI+Aq1QiniWwxdhI+p7RNand7OhZhHjPkxUTWDqgJ+jUwXyXK3fgvvbxJfOs6wGR+4/NpKes8AeEGlOQwPDzvi+8gjj+T6ivgKgiA0NyK+Qq1wg7a/UvHVKWY6PFqsCzLVwSDIlqGulvFrZXo/XVBpa6rj22LFrZ+b/FIh+d2opjqjtIe7ATyvrgtNfB955BEMDg469YODg8NDQ0NDWteKIeIrCIJQB3DxNclGrd/QhcZAF99rVKkExcTXL1yQ4RJF1v9eLmR1a/m3VKqV6YJabOtWZyrF2r3E11aLU5zSxPdudU3O7//+7zszOxB1K74DAwMHRkZG+sPhMOLxOG8WBEEQfDI+Po50Op1Xx6ekoq+K4XLj9op68WNBcKPWxdcvboJ8odrqOcirKcblWJkuqqVu3YpXOzyivrQymz7VGaezsxMAMDMzw5sAAP39/SMHDhwY4PWVoGriq6/cJuIrCIKwMubm5jA7O+scvx7AVXk98tEl2FT3pLYPQ39+Y/eSZrc6oTFpFPH1Ax+UR5FjHjW+sIJSXK6V6bJa6pYXt3reZhJeffsJ1V+HpLezsxOjo6NIpVK8S/2Jry69EPEVBEFYMVx8dwJ4f16PysJF2EuaIdHmpuGoGtxG3FzBn18tim8xdDH2kmL92M/rVa6Z6WJa6tYktsWKSXyPAzgB4D/VtXT6+voAAKOjo4hEIkbpJao1wK2i4suFV2fjxo28ShAEQfAJF18A+EzeUe3ApZnXcXHm/bkYeEmzW51QHUR8/eM3WryrRCkuhklq3bZudW6FUht4XRbAAbWYhYnOzk50dnZiZmbGNb2BU/Pia5LeXbt24ejR3I9YxFcQBKF80uk0xsfH8+pqVXxXChdhL2mGRJtXlWqJb1UMp4axmRhzSeYizLdemGSWb011ehsXWxvAU1q/p7X9Z1SU10RraysikQg6OjoKpDcWiyGRSOT116nWssUrFl+T8F5zzTW45pprsH//fuzfvx8Q8S2LdDotSz0LguDAZ3Z4v2GAW7PDpZnXcXHm/blYeEmzW10jI+JbObzsi4sw3+oizKXYVv349bnc8jb623hSa39K61MK3d3dAICuri5MTU3Btu086e3t7UVvby8ef/xx7ax8qjWzw4rE10t6AYj4esBHZxPhcNiJ6vA+ugR3dHSIFAtCk8Fndig2wE0oHS7CXtKMJow271eFEPFdGeUamFe0eK0g2aUtCe/09DTrmeOiiy7CyZMnXaO+NSW+xYSXEPHNJ51OY3Z2tkBoiY6OjrxEb7d+JLzxeBzpdNrpl0qlRIgFoYHheb4ivrUFl2Zex9u5SHOB9JJmt7pqw8W3UgupNKv4YgXya0KfcaNaRKNRRKNR53jdunWwbRvkk5OTk4ASXw4NaIvFYojFYgCAsbEx3g2oJfH1K70AcPToUSfHlwQYLHIJ9UK4tfHjeoXfsPzQ3d1t/MUhwuEwOjo6CvL+9LZGef0EQSh8H6n2zA5C5fG643qJMW8DazdJsJc482O/iPhWD6/fDT/oaSixWAzbtm0riKaW4ny2becJ7vj4OCYmJtDT04Oenh6nj76dmJjA1NQUWltbsbCw4Jz7xje+Ebt27cLf/M3fOHVQKQ9u4lutKc1KEt+RkZH+gYGBA3TsJrzFIBk2HXu1wSDCJM28nh+vFRTlpf2WlhYsLi4CTPj5lB4tLS0Ih8OYn58H1BQgqVQKra2tOHv2bF5fAGhra0NLSwvm5+ed60OmkhOEhoKLLxp4gFsz4P/uW5xiYszby40272dfqYv4VpaV/E6YxNeEm/fxen4MD/m1bRtnzpxBMpnkp+Ctb30r/vAP/xB/9md/hl/96le45JJL8OCDDzoRXy7nxJqL78jISP/w8PDgyMhIP3JPCCMjy4Ptdu3K/7PRj73aSoWLMB271RNchKsVZabUA35zqjaUU5NIJNDZ2Yl0Oo2ZmRkn6ruS/5MgCLVBM83s0Iz4uxuvDLfH4CLsltvM+xH8rl7KsUhvPm4/o2Lo0XgaPOaG7n4knslkMq+e9nnwjMuvbdtIJpOYnJx0xPeyyy7DoUOHnHPuu+8+XH755QCAz33uc7jpppucNi+qMaWZb/EFAMuybOTSHfLWVEZOjPOODx486NpWC8K8f/9+HD16FP39/Xn1YM+PC6ObMJPshsNh19zcYrS0tMC2bSwtLfEmhEIhADC2QYnv/Pw8Wltb0dHRAcuyMDY25kSSN27cWPC8+P9NEITaR2Z2aA7835nLo9zrf0aT3wu0VBsuxPyYR5z5senuTgs/wNDOjxuNcn4+H9ei8du3b3ciqnCJ3o6NjbmmGehQukM8Hnf2dfmNRqN47rnnnP7XX389br75Ztx666345Cc/ib1792Lv3r247bbc9wOXXnop7r//fqc/56KLLnJme6hp8S0XLsWrIcz79+/H448/jgsuuAALCws4cMDJ3iiAPwf+/Hi7jp7W0NbWBihB5qkIaW3aMkqH6O7uhm3bSKfTyGQyWFhYQCQSgWVZSKVSrgIcj8cRiUQwNzeHVCqFVCqFcDjsCHsqlXIEWKLBglB/yMwOzYn/O3VplHpdN/GFIXKrH3u1QRM2vV4PV3FRzg9lFYqwlzS71dUSpf5cUER8Cdu2kUgkkEgkfEkvZ8uWLYhGo0gmk3nfPlGk9+Uvfzm+/OUvIxaL4ciRI3jzm98MsAjw3r17cfjwYWCN5vJdc/EtFy6cXEh1uDCfd955eP3rXw8A+MAHPmD8JOSH4eFhmAYctre3I51Oo7e31xFPGPLzOjo6gNzrmrdPz8e2baRSqbyZIHSZNh1v2LABs7Ozeb9IPArd1taGdDoNy7KQTqfR0dGB9vZ2p10QhNqFv4+I+DYf5d2xvHG75o+1/X/W9sHE95hBZnnUl+ASS+zSih/cJJkf8zZTnekxdXnWMfUlvNpKxe1n4oY+o8Pu3bu1o3wee+wxXoXXacsOZwBsVYtUnABwinfWZnaYmJjIq7/11luxb98+Z+GKN7/5zfj5z3+e1+eGG25wor9e4tvf3z8yODg4LOK7QgYGBvCSl7wEF1xwAVCG+I6MjODgwYNG4dUhmbSs3J8mRVpNub+RSKQgFyeVShV8Guvs7HSiuFDS29LS4vzShEIhR2AXFxexsLCATCaTd41169YBSqr5QDiZck4Qah8uvjKzg+D/DuYPWwkvF10vTGmDpjoA2LdvH68CVACLvkklgdzpIcNctFcCF2F+rFNum+n/oMNFm36uxc7bpR5XX1hk+/bt2lGO+fl5J9pLvFd9gLEApAEsalsqzwC4D8Bp7Vo9PT2Ix+M4diz/Y8yRI0fQ1taGSCSCcDiMT33qU/jYxz6W18ev+KIWIr4DAwMHRkZG+vv7+z3TA2qZlYivKcLLo6l6PS3TNzs7axRenc7OTifqCwCzs7N5ktve3o5AIOC0RyIRLCwsIJVKobu7GwsLC7BtG8FgELZtO8KdTCbzZoxYt24d5ufnnefMn7/+HHgKBD8WBGH14eILGeAmaPi7m5k5pqK0epTXi2q6AH1T6yXDXBRrHS8phke7Wz2KtPFUB5JMEk2SXmjiq0sv3z8E4EHtejt37sSpU6ecNIdLLrkEX/nKVxCNRh3x/cQnPlEgvnfddRfe9a53ASK+q0O54jswMOD8Iba3tzspBnNzc7yrM0GzH/S+fX19zvHo6Cjv6kD9oCK3tm0jm80im80ik8kgm806/6elpSXjcyTi8biTp8Ol3itlhEuw26A/07Hp+UiqhSD4Iy0zOwglUPzulhNdkl436P6g3ydW2wW8ZLjUNIlGRE916O3tRV9fn1aTI5FI4MSJEwCAT2r1FoAlAEkW7eUC/CXtnJ6eHiSTSUd83/nOd+LDH/6wM3aIxPd//+//rZ1Vp+KL3JPJa3P7SqPWGB4exj333OM7x5dHedetW+cqvF1dXYCK3j777LOAQYJbWloQCAQQiUSc1AVavzoSieStZe2GLr46lGyu5/2GQiHXgXBQwkn/l1JSWLgU+82xdiOsFtzgdYIgFCIzOwjloN/p/EZ3+X2Bvk00ta0FXjJ8TZOJMF9cxJTnOzo66qRRfkJLF7FUjm8SQMqQ7kDHRwD8UrteT0+Pk+f77ne/Gx/+8IeddQjC4TB+93d/F//xH/+hnbGc6kCrt/G0Tp01F18+l68bXIL1Y57bw/tWG118f/zjH+PJJ5/Eli1bnOehPz+ey0s/SC69kUgEra2t6OzsBFQUNpvNYmxsLG8GBf3ryS1btjh96Y2Eory6KNNANCCXtwv1eJ2dnXnyOzMzg5mZmQLRJtyeuw79LoyoPOZ9+/ZV5eejv3GWAhdh+v/zen4sCI2GzOwglMuPlPC6DTCDFtXlUjsyMoKBgeX1BGpBfE2QDA8PD2NkZATXKAluBopFfU+cOIFEIoELANxkEN8FJb4pQ7SXjv8NgOk76Ve96lW46667ioqvPquD18ptqAXxhZJfffW2SsIlqxrCPDw8jK997Wt48kmvL3XMcKmMx+POgLWtW7cCQF6agS6+nZ2deZFdPpgtnU474kviRiuxhVW+cDgcdr7iXL9+vdNvZmYmLx84HA6jq6vLqYeKRmcymTzx7erqwtzcnDMAbmhoKC86S/sHDhwo+/U2QW9GPBJ88803F0w9p8PnYq61xUsEYbXgeb4ivkIxflRGdJdTL+LLoW9uG1mAyeT2A7hbq+dRXy/xtTXxXTDk+NL+QwAezbtqDpq/l6Q3HA7jd37ndwrEV2fbtm04efJkXp0+j29NiK8Oj/zqxwcPHswzVd63knApM0VvqV7P1S2Frq4udHV15f2ASF7HxsYcEc1ms4CKauoLSOjSHIlECj6FjY6O5rVDi/zG43G0trY6049NT0+jq6vL6UdpFVDi1tbWhkAg4ESIbdt2FtfIZrNYWlrKmwGCD4Cj65B4owpvcCMjI44AQy1/TXD55celwkXY7xLZXIJFmIVagYuvzOwguFFMeIeGhnx/u8fFt9JBkWozPDyMrysBXtldpXYwGdyN2j6t4EbftJL4wpDqYCvBXdAE2BTxXQTwXe0xiOuuuw4333yzE6gLh8MFrvO2t70Njz76qLOAhSnHt6YWsKgUXILdhJn3qwaDg4PDQ+p7naGhoaHh4eE8uyPhJSYnJ50bji6ofFYGy7Jw6tTy7Hf6DzcSiWD9+vVOGwCcPXs2Lzo7PT3ttOk5vXqaQCqVwvT0dIG0Ep2dnU76BS1FGAgEMD8/j1AohGAw6PSdnZ11Ir8kz1CPQc+7kvJLH0D6+/sxODjoO0eYS3ApC5eUipcUe7VxCRZhFiqNDHAT/PBpl5QGt1SGYtS7+EILupxWKRAru0usDcWsjUd9L7roImdfX63tJm1sAInvIov6mlIe0gAeAfCEc9Uc1157LW6++Wa0trYiHA7j0KFDeOMb34gXvehF+OhHP4o3velNef1p1gkuvjoNI77lwkWYjkuNLg8ODg4fPHhw34EDB5y/YJP0RiIRbNiwwTnOZDKYnp5GOp1GWi1Q0dfXh8cee8zJ2dUh8aX59GgkJRffVCqFs2fPOsfd3d2YmppyjimNgn5WlmVhZmbGmc7MC11+bdtGJpNxiq1mhACAhYUFLCwsoK2tDYuLi2hra8Pk5GTetUhSK/FGp4svHyjpBZdiEWahWeED3ER8BcItyrvS4AUf7F2P4kvUowCXYmumqC+UZNI3169TBZr4LjHx1VMedPl9HsB/ao8BAHv27MFXv/pVZzozffGKP/3TP8Xf/d3f5fUvFu2FiG95cAkeGRnppwivXkd5yy0tLWhra3OmAdu2bRuA5YFleqRl27ZtaGtrw2OPPeZEZfWILKUgmMRXF+qFhQVHfCnSSikG0MSXmJ6ezpv9gVIWKKF8cnLSyS02Cbkuv5STzKc9CxvmJy7lK7FilCu+5cKlWIRZqHe4+MrMDgJcpLdSQYtGEl+iHgS4HEvzivqSWF6g5vKFJr4ZQ8TXLd9Xn0ECSnxpHt/W1lZs3rwZMIyPgmHVWULEdxUwDdbr6OhASq201tXVhY6ODmQyGViWhVQq5YgvRXxPnDiB9vb2gnQE+lS1e/fuvClEuru789InXnjhBSfaun37diQSCRw/fhwwSLJt23lTpXV0dGBhYQFQUp5Op/OkNWLIJ6ZoMdT1SHzLgb/p6cemHGtitcW3XLgUizALtYLM7CBwTNK70iivDhffRvKHWhTglby6NoD3aMd61PfkyZNOpJXm8iXxtbVIL4/86rm+JvEFgIcffhixWAy33HILPv7x3Fpy69evd4J7dJ8JBoMF0V4A+PCHP4y//du/dY5FfCuMSXqhCeXY2BjC4bDzy0JC+9xzzwGa+I6OjmJpaQnd3d1On4WFBSciYxLfdevWOW8azz//fJ74njhxwon4tra2YsOGDU7f6elpJ/+3q6sLnZ2defnBfX19CKtpy6anp520CjqfT3sWDodh27bxk9dqUOviWy5cikWYhUrDB7iJ+DYvJuFFhaUXbCEnlCC+dI7+PqjXUxCkv7+/Yt8qlkstCLC/V9UdOv9ul6ivnuerr94Gda4uu14pD78AkJvBd5kHH3wQX/jCF/DpT38ara2tsG3bCfTZto1UKoWlpSWj9ALAHXfcgWuvvdY5FvGtIG7SC5V3sm3bNmdWho6ODkdoA4GAE3GNxWLYvn07RkdHkclk0NPT41zDsixMTExgYWHBkVn6QW/evBmtra2AGnR2+nRuBewdO3YgFovh0UeXJwrZsGGD0xdKqKempmDbtiPPen6wnhZBMkxiMjMzkzdoLqymSaObZ1gNatOXNCb27L0C1930AViWBQvA/YfuhRWwcPi+ewDtd+jwfffkneeHZv0dNMGlWIRZcIOLr8zs0JyYpLfSwktw8aWghel9Su9HIsuFlr4V7O/vx4iaP35ETXW51iK8FgJcqTuhfh1T1DeRSGBsbAyJRCIvzxfqXJrZwSTAuvw+AeAp7VywOXqhor0kwNPT01haWoJt285qbzo7d+7Ehz/8YVx33XVOnYhvhTBJLx9QdtFFFyGRSOCFF15AX18fAoFATvosy4nQxmIxbNmyBclkEmNjYwX5tAsLC0gkEujt7cWzzz6LRCKBWCyGnp4eRKNRp9/4+DhSqVRBmkNrayvOOeccgMlhNpvFs88+i3POOQe2beOFF14ADIPmdEzSu27dOgSDQWe+YcoV1nN99dyca2/8AK5/7wdwxy2fBgBcduUrcNkVr4St0iX0AvWc71ciTHVHDt8HKHE+cvjevDahfLgUm25EpmMuwSLM9YPM7CCspvTCIL5Q0mpKcSsmq6br6JhEmP5fvG81IQFuVwJcDSp9B9Svt1/9nhDkNvrUrFx+vcRXT3kwia9Od3e3M7h+YWEBk5OTaGlpcY32EusBUDhPxLcCDA0NDR08eHCfPuhtw4YNCKtBYSR99Mno8ccfx/bt22FZliO/k5OTmJiYQDQaRSwWK/jkwn+oNHKRlucj6aVtMpnExMREQZpDNBrFxo0b82QSACYmJpybPy16AW3qNf4z5bNGECQJra2t6OjowOTkJJaWlpxob2trK1pbWwvm+b3+pg/i/kP34PB99+CG930IN7z3Q3nSe/i+e3D/fffg/kM56b31C3+f95xsAHfe8mnceVvuNm2KBuj5wav5Jtds8JtPPQizXsfb+DEXYfq74fX8uF7gA9xEfJsDS8mMLjSokvQODw8D2hRonCGXhY/ofZu/j5igiK9XlJcElPZXW4SHh4dxWM0BXAmqZV76dWn/Jq2O3EZPd4CW62sbZnbgApzSIr5PO1fIh8Yy0b3/hRdeQDab9UyrPAfASwCcAfCr3M91RJ99q1I0lfjyKcsi2sCxxcVF2LaN559/HmC/HJTGYFmWI6lcdsuF5rGLx+Noa2vLG824ZcsW5ysCKslkErOzs85MEXpaBH2lABVFJeHVo7aciDb4bXFxEfPz885MDyQJVK9DIzJveN+HchW2jds++0lcf9MH8eSxJ7B123Zs3bYDqdQCvvPNv8fTTx7DrXd9DXsuuwK2bePI4fsQCARwwzv+KO+6fuBvcnTsNZhOqCz8ZlaLwgyDCDeaMHPxlZkdmgM+P2+lhZeirUNDQ47Y9vf3u8pvtag1Ea6E/FbTuPi16fhuQ9QX2uwO0KK+tprZgcsu308DeAHAEe26BI1NAoCpqSlfU69eAuBl6rEfFPGtHJZl2dCkLRKJoLW1Fe3t7c6sDXre3IUXXohMJoOJiVz6Nm2rSW9vL6LRKJLJJHp6epxPSyS+p0+fxoYNGxCLxYyD4KivPkWaTlitpkIzQIDN9UvTnFEeDj0+pYHQjT6sBsVxIf7qt76H3S+6JPfnYwNWwEIykcCBf/tXfPHOW/Drr3093nVDbgKVhx64H7d99hOYGBuFDeDk8WfyrlVJ+BuhfizCvHpwKW4WYTa18eNykJkdmo9qSi/N2kDCCZdIr/5tJUdP4/OqgzZ9JzE+Pl7wjamOl9y6iTDvt1LKld9qmpbbtfV6PeoLJb886vteAOer87jo8v0FlY5gEl8oJ6HZo4rxciW+WVVOA/h3Ed+Vw1McYrEYMpkMwmpAF6Uy0GwIANDT01NUdn/vzX8AGzlBzGZt2HYWF12025kaBAAuvOhCPPboo3j8scfwxOOPw4aNo0/wNU/y6e3tRTweB5TIQo3EDAaD6Ovry8sFBoBzzjnHuckuLCw4eb/hcBiWZTkJ7XSzTafTziA2P4tcZLNZxGIxTExMOItcpNNp2NqMENff9EFc+54P4P5D9+Ses207Ed7O9hj+/qtfwV8N/n+456GcLAQCAQDAt//hqwgGgzjxzNN4+MHD+MhH/xq2bePRR37l/N8ffeQRBFSmzyOP/AoAkBtmBzzyq1/mGqoAf9MUYV4buBTXmzDzfX7MJdivMPMBbiK+jU01pHdYLR0/MjLiXI9PW6bT09OTl7JXCfT576GEOpFIOFsT9H5bTIR1Wa4Uw8PDuH9oCFfzBgPVNKxi19bb3aK+XH4vAPCbALYYZJfv81SbLVu2YHx83PiByI1N6j0ro57vaRXxPSviu3L0NIdYLIatW7difHwcCwsL6OjoQDAYRDAYRCAQwDPPeEceX/SiF+PiF78Yv/fmPwC0aKwNG5mlnDDqv3K2bcPOZpHNZpHJZmFns7ABHH3icTzxxBM4dvQJVxGOxWKOAFMeMNRiGHq0lw+Cm56edt4wuru7EQ6HMTo66nzdoE8ezcWXRJfSP2yVYhEKhTA3N4d169YZZ364/9FnYAO4/k/+0MnvvfSyK3DLXV/LpYkkEhj+y/8X5523E+++8X1OzvR3v/n3sAF8/StfwLvefS0ufvFLtNcvN6DQKfRgWt1ylYVf/fKXoCrLsvDLhx+iVm0/lyP38EMPOseVhr8JizCvDVyKG02YOTKzQ+PCB7KtVHpJbnXBJQHm7Nq1C7t27UI8HndmNYK2SFMl4RKMMkRYf08lsef1K2Ut5dfP9fQ+tP9e9R5xTLlFb28vYrFYgfwCwHkAXqPN4EDllFq1bXl00TJbtmyBbdvOlK8mrr/+ehw6dAhHjuRixW8AsEGL9p4B8C+q7+Dg4DBfcKwSNIX4mmZx2Lp1K2KxGJ544gls3boVgUAAgUAAqVTKmV6M8+bf/wO86c2/n4s0WssRRwrvZm0b2UwGmcySkl9qBB5/7FFks1lks7nV0i7YuWs5KmwBdtbGE088jh/98Ic4dqzwxqb/ko6Pj+cNajvvvPOQzWadY/qZzs/PY25uDuvXr8cLL7yQN73Z+vXrnZkedPGl82dmZmCr6G8oFMqLKpnYe/mV+PyX/gGH77sHw3/xYZx+LrdcMwBce+P7c6IbDOBv/3oITx49ilvu+iosK4BAMIDvfesfkMks4etf+SLede212P2iFwPa/wPqzVB/Q6SfF0WNKWLP++n9LSv3elsALCvXN2BZsAIBPPTAA3n9H3pQfYFjAw8++EDe28hDD66+MIssry785l+rwrx//37s358/jbwMcGs8qiG9hJdXXHPNNY70FkOX4FOncu//K5Vk03s5lAjTjCZeIkzTrVH0dy3lFz6F1YtSzjeJ7zEV0dV/n7Zt24ZYLJa3qIVfKOofj8dx6tQpRKNRRKNR4zflN910E66//nr84he/wOc//3kcOXIEewHs0aQ3C+CflVhDxHdlDAwMHOBLF+tR36WlJfT09GBqaqrgB/aSl74Mf/BHb8GLX/ySnLhS3iu9blbuH6r75je+DtjAd779zbzr7Ln00uV+sPHAkSPYdeGFgA1cdXUuW2jnrp3IZm0cPfoEfvyju/HkMf1LrRyUA0xvIlu2bEEkEnGitMTS0lJeygYtlww1CI6+Sk2lUs75BL1pUS5wR0cHZmdn0d7enjfVmQ6J7+2f+xQee+SX2HnhRTh+/Gn8+7/k/rxuvetruPTyV+Cu2z6DTCajIr5B2LCx/3vfRjqdxsf+ahDf+t4PACa98BBfJxKsFarPOzdgOR9ULKhjQ9RYh+pzP1vnM4wTBbcAPPRgvjB/+Yt3AbDw4APLmU+bNm/J+yBQafgbuUSX1w4uxX6FGQYRpmO3euKGG27IOxbxbSy49OpCVw4UAYXhdxBKdvVtNShHkt3ep+EhwpTmQO97AwMDTl2lWA35Xek5tK/XHVOpM1BeEVOzT1GpFB/60Idw00034ROf+AQ+97nP4dJLL8X999+PzQB+i0lvFsAXtXMPHDgw0N/fX/hLukIaXny59OozHFAe7ejoKJLJZEFeyh+97Y/xlre8DTZyUmln7dwvjm3nortq9oNvf+PrAIBvffMbuP7G9wA2cO0NNwKwsbS4hMzSImw7i0AwhMzSEiwrF3F84IEHAAv4wp13wIKF++8/jJ07d+F1V1+FnRfswpNPHsWP774bx5gA6zNO0AA4El8qk5OTaG1tdaLYNDiNor0c/fdAT4mAlhaxYcMGJ4pM3PC+D+Hwvb8AAHz+y/+A2z/7KRw7+jhe+7qr8dSTR3HnrZ/Bnr1X4Nob34c9l12BT//d/8Zjj/wKt9z1VQQCQQA29n//uzj2xOP45YOHMfRX/8u5Nj0nk5zy6K6n9BpSIrg0u0Gvbd7fiW0jEAzmIseBAGzbzkWeLeDB+4/gwQeO4IEj9zvy+573fSAXbabfH9i47557YMNy5jUeHBwcRk6U8kyVf2CrJFyCRZjXDi4gpQgz5/VsZgeZ5aF+qaT0UtTT7ffnmmuuqajs6ik5/MNaKZgkmba8nUgmk3n1Bw4ccN7DqpH6QPJ7jU9J9dMHJfTjmKRX36ftMfX79aTWhyARLodXvepVeOUrX4kPfehD+NjHPoZPfpImS8uxGcBlADYy6X1ORXwJEd8y4NLb1dWFlpaWvFwWtwFsf/TWP8Zb3vo2gASMon1ZG1k7J8H/8PWv4Zv/8PWc7AK4/sabAE2UbNvG0tISspkl2ABCoZAjy2BSFggGEbACuP/+w7j9tlsxPT2Fq66+Gjt37sKxY8fw47v35wkwpT5Eo9G8x7NtG+Pj42hpaXGmKRsdHXVSI9zEFyovGGqxC5Jcmv2BBgFSXTAYdNI5bnjfh3DbZz6B62/6IK676QP4/Gc/iZ/8y93Ytn0H5mZncf+he3Hvw8fQ3dGGK17+IvzPv/sM9uy93BHff/3RD/HIrx7CLx96AP/jf/7vvOdk23be60THMEQAuNzSdllyAaicYUpxMImvfmwSX9p3k2wA+MBNN+LBB45g06bNeOOb/lvuuWezaiAkcOjee3DJ3itxl5rL2M8fOJdg/ViEuXkxDUTarO3r2XZcgvWlSnmbW52wOlRSer2ivKUK79GjRx2pNaVBUOoNT8GB6n/zzTfz6orBhfgXv/iF81z16C99CKhk9LeW5NdLdk3Xq8S4gNe85jV49atfDQB45StfiYMHD+Jv/uZveDdcqd6fuPRmVP4w5ffC532xHBpWfLn0Et3d3VhaWnKilvxTzVve9if4IyW8JLF6Pq9t23j44Yfw9a99Fb/2a6/CdTe+xyhitG+r6LCdzcJWwmwDgJ0vwIFgEIFA0JGn+w8fwm23fBbTU1N4/dXXYOfOXfjR3fvx4x/pK2/n8nN0+R0fH3dmfoD62kdfCa6zs9OZG5hIpVJIpVJ5K7u1t7fnTXnGCYVCWFpaAlSaA5BbUe6OL38TNnKLWOizOliWhTtu+RRsG3j3je8DgNz/N2DhJz/aj7t/8I/YvHkTfu8P/tB5DP11tZTA0nEuwqoJq/b/Wc6vzskpDVoEAFhAgPJ79RxhAHzAHL1Gzmtl5352tkpzIHEmcvs5wX7/TTfiwSP349K9l+GKV7wSh+67F5s2bcbGTZtgWcChe+/Fyy69oiTxLRf+d1BrwiyyvDK4+O4EsLzgJ6BPOMiTp+jYUjcdjkjz2qB/DY0qSe+uXbucHF4vjh49iv379xsHVdL5R48exTXXXONIsUl6iZtvvrngMffv349du3Zh//79vp5TKfA8eD0/mnKd10p+4bOfnz46XHL51oRX9JfzkY98xLkv/vf//t/zgkN/9Vd/hb/+679mZwCvVI9/hSG9wVaD6E4B+FftnGqs2oZGFV++UAXR0tKCeDyOlpYWjI6OFswx97Y/eTv+6K1/DCiJy2YyOem1ArCU8Pz9176KY0eP4vr3vAd79lyadz6Y/IKuY2dzYkX+hJxEZbM5QcsJWNARKUfSABw+dJ8jwBfsuhCw7QL5pZSN8fFxWJZllF6oFep06Z2ensb09DS6urrypNcP7e3tSCaTyGQy2Hv5lTnRVbM4XHfTB7Fn7+XO42SzWdx122dxx62fxrtveF+e+AYCFn468u/47jf+Hps2b8R/02bKIHQZzZ23PLBNl2Ius1CPrZ9rw3bEVz8PmlAXymw++gcWN1595WUAgDf89m9j67Yd+P73vovnTp3Cps2bcdnlVyKRmMPExDRsO4sjh++rqviWC5dgOl5NWQYTYYkuFzIyMoKBgfwZfz6Xd+Qf/sWmfuwmzTBIMxdpLsEize5w6QV7PywF/qGI8Bvl9Yre6tD1dMlsa2tDOp02rtSlR351UebpEZWSYC7vevS30qkPtSC/1LfY1sSTbJwAfSjYt28fXvOa1+QFhA4ePIif/vSnTh3t/+xnP3POf5XavsIgvFSWtGWQ/945U8S3JGihCqjRhpT0vm7dOrS1tSEUCuGFF17Iy+n9xKc+i5de8nJksxnYdjY3J69KS6CL/f1Xv4LOzi7ceNN7YTuDybxfv1zObSYXLVRdLSv3S2PT1/gkviyyqXPo3ntx+NB9OHnyBC7YtQuf+eQn8topOZ3mJObSS8sHQuU/TU9PF11Jhejt7UUqlXJmdqCljClvWIfygffsvcJ5bSiPFQBuuetr2LP3ckCJYzAYwn2/+A/8r//xl3jXu5dndNCh10U/zovWeohv7lyoW3EOXZg5XGrp5xQMhWDBRijUAqh0BajIt44N4Mjhw3jvDdcCAN7wW7+N+++/v2Bw22/85uswPpF7/e4/dE9Nim+5cBFeC2HmN7BGF2b+u1yu+JaLlzAnmQTzY9PER80qzSbp1fNTS2FgYKAgrQFFpPfo0aN5okmyePTo0bwpMMHGywDAbbfdlie+vL+OLr4f//jHjdFkwhQhLhe36G+lUx90+UVRS8jhpw989ONyy7c6pjoA+IDaDg4OYnBw0LkvUoT84MGDeeMQTOxT13+VQXQptYH2SXqX1By+j6hriPiWAEV8Y7GYM6HyzMwM1q9fj1AohJmZGUxOTjr93/7Od+Pt73p3Lg3Bzs3Ha9s2oGZxeOjBB/Dhmz+IG95zE254T27VsdzX4rmBTQ62DdvOLh+rr92zmdwqaLkFIXIRyEAgCFsNigoEQwUSx6Hc4NtvvQX//u8/weuvukbN/LD8hhGLxbBt2zYkk8m8WRy6u7vR3d2d91ypnRa4oJXYoN6w9Ndn8+bNzpKD1M9Wc/tSHdSiGPqb3aWXXYH7D90LqFkdcmkPcP7cLMtCNmvj4QcP468+8ud413XX4WKXqcy4zOryqhdTxDZXnJqCc92g/yfNu0x1uefPZBxAMBgELAsPPfAAPvi+XN73Nb/123j22VN46IH7sXnLFhX13YKedesQibY58x03kviWA5fgWkvHQI0LM5ecD9aJAHJh1usoLKGLcYId80gzr+OvgZc08+PVplLSa/oGAB75tXp6AkVZKXWBZgzxkthy0B+HRDQUCiESiRSsBlrJyC9cor+URkLR33LTSnTWQn71eueeZajj8HoS3361XDQJrx8G1PX2GQTXVCjaS9vnABzMPXZVFq9Ao4svVMSXor5LS0uIxWJ569tf8vKX4xOf/lwuDKtFBaGisbZtY+DVr8CDjxQuMOGmTDbU9FewkcksYTGdzuX32rnrUi4p1Nf9wVDIOSZ545D42raN+w8fwt9+7H/h9VddjSePHctLfaDI78mTJwE1eK+7u9uZ6ox+3tPT08hkMs7KbVCRYHqDo/zezs5OdHR0wFYR7qWl3BzFJO2tra2AWv2lpaUFUPMHA8ChXz3lPJ6zzR0Amvj+6uEH8NH//md4z/vehxe9+CW5WTQyyznQATVzAh3z10iXWC6zbn29or469LpB+z/Ato35vVQePHIEH3jvjThnYy6f9w1v/D3s//53cPmVr8A/ffc7AIAXv+QliLSK+K4ULsG1JsyrJcv8K+16Ed9ieP11cmnmUWZoEkxttSzNfFW2cqSX/x4QpigvRT8pR5fQc3ap30ro7u42fjvIIfE1pUeYnv9K4dFfer0p+luJ1Idy5BdF+rm16fW076cvQb97x9jMCsX4dbU9F8AOdW0ut24CnFHCq6c6LAL4johv6YywBSt0+aW0B+ITn/osLtmzB7DyZdOyciP/33/TDXjv+z+Iy698RV4UMod2bEPJc+6AJDcnbLl0h9wMD5ncdGaB5emwKM0BTKB0dPEl+b3jtlvxyle9yii/UKLW09PjTHGmS+jS0pKTvrB+/XpMT09jZmYGUCu56fsdHR155y0t5SLYlmWhtbUVqVTK6Q/AedO67Ytfd9Ia3MTXtoHHHn0Y7/jDN+HH/5b7kenP0w3n9YKVi7JbVp6kWuo4oAa36fUkvTw6TO0EvdbqYPmn7SG+APDFu+7El+66A+ds3ITnz5zG9Td9EPff9wts2bbVEd/ffP1VGBubEPFdI7gEr0U6BpgIryS6zIXnalXKxf0vr/p4yW4l4MIMTZT1tlNaPR2b9k11XIS5NPN2PoNDJaWXZI7goqvT2tpaMPZFR783QH3LRcEPuqdwaDYgIhKJOAOQaYA0pYzRMYenO3z84x93/h8UES6Ho0eP4uMf/7hzXErqA08jcfvqf2hoCLvUCmW72N8W/RT0WLbX355bm17P+9Bj6B+qnlT9/Axk0zlfFRvAf1VbU+GCy2VX3+rR3iX14fSnIr7lwWd1WLduHQDkfYX/iU9/Fpe8fA8CwZCKyOYitSRFX7jzdkSjUdx40/vyfpks+gFnM5rsKmzkrgUs5whnc2K23CF3kZws5WYnKPZmnydhUI+RtXHDde/Ghg0bAAv48d358huPx2Fr8w3Tmw2J6djYmJMCcfbsWUC9KfX19WFmZgYzMzPo7e11FruAemNaWlpCOp1GMpl03qj4p/rDjzyd95yXt1Cv3rL4Hn38Ufzx7/82fvST/+ucr5/D0SUztw/1Grp/YCDoXPrQQft0PqxchJngz2H5WD0uHeWeBCxtRod88f1PJb7fBQBs3rIF1/z2f8PnP5eb31DEtz7gIrwWwsyFiI4rKb7NjP4Xz/eTrE4XY10XTwHQFVCfafZ5ALsBXKWOf6QEhMSknFXZTNKrf4Wvw9NiiO7ubgDwFZ2FtmoXbS3LKggsQaXgQd13QqGQU6DeTxcWFpz7ClwGxenia8oJXkk6hCn1gQ986+/vL3h9y4WeofmjR3H4hyYTfCBqOVygiq1k9zy171Wgtlx2TcLLxZekN6NSHaq1ahsaVXy59Jp4+zvfjT95xzty4qkgSQqFWvDgA0fw1S9/AXd+8atK0LKq17Lt5ERy+fUj6dJlz7YLV3nLYS+LGos+6j8T2tcFzrKs5QikncXtn78Np549BSB/xoeLLroItia+lKowNTXlfGrftm0bzp4963zKp+WLTSu6zczMYHZ2Fm1tbQgEAq7LGF962ZX4/Je+7vz/ddnVr0fi+9STT+Atb7oG/3S3+QsWXXTBBqeZio6X+OopJ6a+FDGG9ryD6g27hQ1q0we5ve/G6/GAEt/NW7YBADZt2ohgMIB/+sec+K5btw5v/qM/EfFtAvh70WqlY9zCKwRf6HdEfnd0a6N9m+3TlqQ4pOYpjWjim5vjJoebrLrhls/rJc8mSfZLb28vFhcXYalxIVDvqZOTk87UlyTQ8/PzsCwLGzZsQCKRgG3bTjoc3RsopU4faN7S0oK2trYCAd+l5gzW0xNodVG9vdzoL0994JHyRoG+fSCBpt9TOibZpbZyi5vw8joe7aXffhHfEnCbykzn5XsuxWc+d6tSz9w8u4QVCMCChVdduRf3P/SrApEiLMtCIEiyo6c25KckUN9lAc0CNpwlc/WptSyW26tfI0/KDI/xnhuuw6tevQ+f/uTy1zZ61NdWc/xOTEygr6/PmfLs6aefzvtqa8uWLc4+1HMgSHyhRK+lpQVLS0sF+Vj3P/pM3vPTr0H7JMOBQABPP3UMf/g7V+Gb//j95Yuo6KlJaGleXr3NCgRyi1KwvradG6wI9RTyztF/tjTfMhNfSp9Yft7LP1P9fP34z/70Q3j4oQdxzsZN2LR5CywrgE2bzkEgGMT3//G7ziC362/6oCO+1Rq9KtQvXILLEWYeHdLjYV5tzYx+R+R3R7c2P/1sdbP/MYCwEt+VpDjoX8frfuAmvRS5zHvfM0CLE4W0sSdQEdtwOOx8ewoKwgDOIlBu877H43FHlIl0Op0XIdYH0BUbTNfS0oKWlhYEAoG8+eZ3uQzg8wuP/hZD/xsioeS/C+ezY45VJOWA/7S8+kI9J3oO9Pz0Oo6pnv/++ilZduwmunodF9+fAMh991zdYFBDiS/P7YX6RBiNRvPmqb3l83fgUif3NItMJuOkL8Cy8N4brsN7bnof9l5+eS4qSHmkDEvLzXVQ8kuiatMgOTWfb27miFzbsoDlpuCiaGL+5XI/n6x2np3NDS6jdtu28cADR/CJv/s77Ny5syDfNxqNIpFIIBAIOMJL6Ku6dXV1obOz0yiqlMdr23beGxJPcbj0sitx+5f/wXleVECvLxPIQCCAqYkJ/Gb/FbkcX63v0tKis3DIopb7FVCD3XSBzYlwAIGAlftQARjeMjzEV3st1UHestR5bQr9fP16JL4v33MpHjhyP959w/vw4OF7cPrMGZx+Ljerg2UhL9VBxFdYKfxD/wVq+WId/abJvw7lN1QvMfZqq3f0v3J+d+THOn7aMgCeAPB/1WpZ+oC2UqO9lmXhwIEDeRFf/h5F0V2SaV2SKXhB0dZIJIJwOIyFhQVPAW1vb0c4HM4T2eeffz6vDyccDqOjoyMvbW5sbMyZCSgcDqOlpaUgyguVShEKhfJS62hqzunpabS3tzsLUhE85YGO3eo5FPmlGS/o9Xv5yEieRLpt+T4d+32T5/1KOS72HLyOTXW2j8KllwuvSX518SX5/br2uCK+PuFv/FDiFwqF8v4w7zvycC66qsQmm80omcriyP334647bsftd30xt3CFIzTLr5Nt08wMhbMvkJTZ6rokaLZasILyfilB1EJOti0rfxAWJ3e+ij6qyDEXsrvuvAOnn8uNW+byG4vF0N7e7tTBRXpB/z8F5frGYjEsLi6ira0Ni4uLzmAF/sZ4+5f+AXsuuxJQU8Lpz0+/Lu0HAgHMzkzjnW/5b3j/Bz+El17ycnWu0zXvOPeyqddOvYZZtUiFpVbYcyYfs/Mfk6LEFBnWUx1Mzy33YSX/+dM+/V7kH+e8/cM3fwAPP7gsvu+87ib88/7v4fTp0wCATZs3I5lIOKkO1UziF5oH0/sfnx6rFLzE2KvNS4q92hqdLIC0mmOZ8q/1n08p0d6BgQEMDg46Oahg4uyWAsGh/Fvat9Qc8DzH1sQ555zjvH/qMyVB5em2tLRgfn7euU44HHYGXgPA7Oysa7pcR0cHwuEwZmdn0d7e7kSh9TSL6elp43M0fXiggWc8dYEfcxHmU54NDAw48gvNCvTbVd6ty6OuGF5y63bs9Tzc2rz60bGpcNnl9SbRNUkwRXsXAfyD9rgivj4w5fW2tLTgnHPOyVul7dK9e3HbHV/MGZS2ehrxwP33487bb8Pn7/qikplATrYcydVfL/6rpwa88Tp6je3lJW95BNmycnP7ckh2c5Fk+tqeRDBfLm3bxl133O68CfF8X5I1XXihorbhcNj5NL6g5uyFivSSkCcSiQLR5Vx/0wdx7XveX/D8oL0OuabcfjAYRCqVwlvedDXe+4EP4qUvuyRPQuk8XTBpy/edQuepr+cWFxed8yl9gX/IaGlpgWVZTg4aQY8BLP/8qN4qEN9c3w+97yY89OADuGTPpbAsC4n5BJ54/FEAwKZNm3HpZZfhh9//JyfVQcRXqASmb7zeZ5DNauMlxV5tMDzXRpFmW5X96q5x1QqivfqcqnqKA4lzKTm8vb29aGtrQyKRm8/CUvm6+ns8BT1Ikunb040bNwKGlAV9kFxfXx+mp6eRTqcd8aX3ydnZ2bwZIjg0sFq/v2UyGWQyGczOzuYJtZ5i4Zbq4QcuwvoHi6GhIezbtw/XDwzgQ6o9/05V/HilcOPgx4T+uPw5uLW59aPfXSrFhJcKRXS56Oryq4vvEhPfan4LWhiyrHN6enryRpmmUqm8HNZrr78xt6OEJbdU8HK54/bbcN2N71kWmZz1amKV+0rdFO1F7oeVJ2p59Wo/T6YUthN91op2jdyiGlkl68sRX6jrBUMhBINBXHf9DXjh+eex68KLtKvnvlaan5/Ho48+WiC9XV1daG1txczMDJ599lmMjo46kd5UKoVEIuG8MXpJLwB8/nOfxN4XnYcb3vGHeVHbvFeDvTbBYBBbt+3AQw8+6Pzf6Q2ORvsuqfmD9e1SJpP3etm2GkjIormE/jOh3GTKD0skEkgmk5ibm3NKMplEOp3G0tKS8wHE0ucABhBQEWRKtaBvCYiX79mDjo5cpH3v5Vfg0ssug23buPSy5WWe9+3bZ54HRxBKwBQd4WK5Guxk5fVaeT8rn2bldazQTTKrpFEv79HKJ1i5WytHWVlt6F3nGICnlPQeYx8C/IrayMgIRkZGsG/fvjy5pUixH+ml1AGoudvHxsbyPrhz6Q2FQlhcXEQkEkF7ezs2btzoSC+UwEIJ6MaNGxEMBp2UhVQqhb6+PmzevBl9fX0F78k6FCXm0HtuMBjE9PS0k9ag96VvM00RcxJXLrUm+vv788qBAwec15O2fzQ0hLuVdAZUyVmC+7FeZyp6P6/Cz0OROr5Px16QuNK+qV7HVE91pmt5teUnYlaPhon40jLFPT09iMfjSCaTGB8fzxsteunevbj1ji/m+i+f6nD/4UO44/O34PN3qmgvLCCQ2wYMaQim147k1JFfNedrTmwzyCpZC4Valp+EkjU3mYa6ru3IF+9nI5OhgXO5x33llZfjqmvegB/t/6HTa+vWrXj22dzEOj09Pejq6nKEzrZtTE9PO5/m+XKUOpTfRW9AISXdvP+1N74fe/ZegT2XXZ73WtG+DSAUCsLOAn/63ndjx7k78La3vwOAhczSkhM1hnoDJejN00ldUMsUBwK5qHlAGyRI0qz/P3VR1p8XvbkSwWDQGUChp0lQmgpB16Hy/3zw/U7Ed8+ll2L07Cief/4MLrvscixllvDUsWOYmp6VOXyFisO/+SLhbHS8IslebTyKDC2S7NXmF5JtEt3PqPpyo72mFAcTJLahUCgv8BMKhZw8WZ22tra8NLZ0Ou3IpJ4/S8KrCyzl6kKt8gkAz6mUO71OZ2xszHlPb2trc7bz8/N5c/7q02mmUimMjY05bXqkd926dc5UpfR6UroHyfDIyEjZ0WD6/9K1h4eHcVgtTKHfDQqNwFxXLiZvIbhErqSOt/HCo7umeoro8iivvtXze7MA/g0AheWqGfENFvt0WEdYBw8e7E8mk0gmk4jFYojH43mJ+te84bdw6aV7DT+uXPno0F/i2utvxKbNm9QV4cztqn8idjCIr0V/JDRLQDZbMHNDMJBb2nb5pNxnMieSyB8HUM/RHXWJHLYN2wbmE/PYdeGFOHY0t+rc0tISurq6sHnzZkSj0QLxa21thW3bznRm9Gm/ra0tb2JzygWjN8dIJIKOjg50d3c7ecLZbBaH7v0Fzpx+Dtf89u86j5GHbSOkcrd+8uP9WLeuGy/fsxehYFClXuTSL1pbW9He3u6UUCiE1tbWvAEWlpoajV46/f9F7boo5wuzOg4G82aGWO6Te3H1nyE9kP7zslU+97/+84/xwvPP45yNm7Bx02Z0d3dhy9Ztud+ybBY//4+foaOzC2dO56a8f/vb3/7lHTt2HM97woJQBsePHz/34MGDeWGvK/SDBiXOih5xvoIVPQJ9BYAebc7SCwCMq3fbewzR4q+ySPI9WpnQBPdu1XdcXf8KAG9Vz/UYm8nhi1/8Inbs2KHVmBkeHsaOHTtw4sQJfOlLX+LNedCHey65FAAgurq6kEqlsKhmbFhcXHSCRfF4HJFIJE98LcvKG6BmWZYT3Q2FQrBtG9FoFJb6tpX6tLa2Ou+V6XQ6L8Vh/fr1znVyQaHcPL+ZTAY9PT3OecFgbjB5KpVCe3t73j1Jl/vjx49jeHgYX/7yl53j48dzb68jIyOwLMsYGfbCsiyMjIzg+PHjsCwLg4ODOKbqdmm3XroN+yml9reKWkB+O+3zbal1Xsdu9TaTYNo31eli/DSAy/v7R3bs2HH87W9/e+4HWAV46LBu0ed7SyaTOHXqFE6dOuV8RQ8Aey+7PE92eLn/8GFcuvey3OwAwWBuOeFgruhSqpe832Isy08w1IKWlnBuOWLna/BlcXLOd/mVpue0jJa7auupDuo8y8o970AAgVAIgWDhjzaRSCAej6vHzZc2S6101tnZiXQ6jUgkgs7OTqcdhq+W1q9fb/xqigbDUdRBp+CPRuXJ/tprBvDVL38pl+KgpTfwkllaQkj9TIJKVFtaWhAK5Y5tezmNYXFxEUtqlbnlh1Nfm4VCKj0kF60OhUIIsp8x1I0ik8mlXiwtLWFRXTvDUi9MEWT9OjmW2yjaC5evqAWhEqxFqkO94ZaawdMyeGoGpWNQf7p5Z9XxZ9Q5V7HosS699JV6MdxSHD5751fxiwefwOfu/Cr27M3/iBMOhxEMBtHR0ZH3Pk1iuX79enR1daG9vR0bNmxwggjE3NwcAoGAE8yAyuedm5szvLfl5oBPpVIF6YX8m0CiRU1Jlk6nYVmWk3oGIG/KTcJS0huLxTA3N5e3GBU9R9P9iHKOiaGhobw8aT8MDg7mpTwMqyWNadZfuhOXUkzwPrx4Qe16X771W8cfjx/rdbxex+258AL1dzOmxioMDg6W9gMqkUI7qmP4i8XTHF6+Zw8CavYGAAgEg2rKLOD+Q/fh0r17tbNz6DKjS5HlCKwqgVyBFcj9MOmcPJnKz/8EVH6oFUAgEEQms+SUnFDlpC2XwpCfy5q1bWSdOiVeWbVKXDaLd77r3bj7hz/A1VfnT+ZNgxD0/4etBg1Y6tP4wsICOjs7MTs7i/n5eUxNTWFqagqLi4vo6OgomB2CxBFKeltaWpwPHEcO34v7D9273JlFYrNqkYjZ2VwEIJPJYMnJ7V3E0lJOYNPpNNKpFFIqJzetRh0vKvHMZArTF2g/m806KSbOa5ihGTaWz8lkMs61qSSTSczPz+dyfheSSCYTSCQTSKdzURKSa/2xX3rJJQCA58+czv28beS9PZxRsztApFeoMKbfJ/5Vv1AZSJQpUnyVVkxpElhBbi+Jlj5Tw8v3Xu5My7ln7+U4cnj5fZYCD93d3cio2RDA5l+Hev9ta2tz7gX6e3symUQqlcq7Z6VSKYTD4bz7By16FAgEkM1mMTc3h46OjrwZI0huLcvKi/aS+NK4HGiirEeWoe4tKTXmxERvby9aW1vR1dXl/D/Xr1+PsJoqjcTezwcNE1x+KXVieckLf3Dp4wLoB34enatvV1JHuD2G3ocw9dXbvLYA8Ctt3/Q+VkkaSnyHhoaGvPNCck02TX8F5ERMpTIQuXxabeoxNS3WcqF+/MeL3DyyWgjYoqgw+3WwlYzlpC0XyXQELZNx8oFh0ywOuXNJ5HLnKzlcTKv83/yBXe++7nrs3/9DXHXNG5zHpYEMYBFJGmF79uxZdHV1FYy4pTke9aiA/kZGM0XQhw0Swv7/8hv4m78exJUv24U7b6UMt3woxeDXXt2Pu+74PKanpzE/N4f5uXnMzeVyvlILKaRSORlNOdKbewwn6qpklpPNZJxI7eLiIhbTaaTVdlleF5FR55Mc0wcQ6rOQXEAyuYBkIon5+QQWFhawsLCAZDKJhYUFfOkLd+HLX/wCvvqlXB45Ca6tfs1gA6dPL+e+wfBhTRBWgumGIVHf1cF0w+eUE+2lRSp4lHLP3itw07vfhldcciFeccmFeW3btm1zxJOLIr1Hnz17Fslk0ng/IMbGxtDS0oJt23IrUEIbzEZ0dXU5srm4uIjt27fnRWv1lAdLpT1QpJnqqJ7gj0GRZC7DxMzMDCwl4bFYzBnDokP3Lq/c6GLoH1Tow8heD/nVRdDP7wcM/U3FL9RXP8dPndvj8Dqv58TbvI6fB5Cb98j8HlZpGkp8wVIedC69dK+TOrD8B24hGAzlBoupyFwuAqh8U03HRZFVEmHbWaBCE2R1nM1knEhlJrO0LK7ac7FYfmmuUF3QiRJDLZyhCzalXOT2gwiFWhBqyX0C17EsC9dedz1+tP+HxqjvxMQEJiYm8PTTT+PkyZPO1069vb2YmZnJW/Cjs7MTvb29eQMN0uk05ufnkcnkpm+jNyZoo4IvvexK3P6FL+Our34bd371Wzhx/GncedtnnesSARUlf+Wr+/Hdb30TCyrKmkgksJBMYmEhiURyHsmFpHO8kEwilcxNu0YlvbjoCG06ncZSZgmZLM3qu/zBhSQ4rc3qkEqlsZhOq5kiKDpsI6Byy+jrQSrBQCCXpKJed/2DkY7+U7HVAEpBqCarceMQ3OE3eKKcaK+e4qAL28v3Xo5//NbXMXqW1rlaJhQK4fTp006Ulb7+D4fDiMfjeX1nZ2e1+2Hu/Swej6OzsxM9PT2ANuUZQVFg/TxoYknowq1LLYlya2srWtSiFWNjY056BAmr/hgU7aWIM6Vn6KvIRSIRWNr7dTAYxMLCAs6ePet8a0jQwLeBgQEMDw87hV5vKiZIMUbUynm6/Oo/e/7z1+H9/JxTDDrXa+u3juDPjReOWxt/HN7vl1rf1Zjas6HEd2RkpF+fwF3/Y7M1SaEUBVi5aKODBWfGhGWJUeKapcgs5XcuORHbnCjlIo5Li4tYTKeQWkiqspDbJhNYcI4XsJRZyvuaPfcLQNHagEp/CChvzvWxjAOzgiofeVmi9Teka6+7Hj+6e39e1DeRSKCtrQ2BQAC7d+/G7t27nZyqtra2vPyszs5OdHR0FAgdVA7YoppQnN5cSXoB4N03vBcT07No7+jAJXv24p3X3YSTTH4tK7fSWiAQhGUBv/bqfnzrm/+gphfLlcR8Aon5+VxJJJBM5AYwJhJa/fw85uZmMacmRZ+dmcH01BRmpqeQmJ/HYjoX0c1mMwgGgwi3tKBVRbEjkQgikVZEWluXP0jQ6xkMoiUUQjCYm/GhJRTKfXUWzuVvh0IhhNTr/9KXvQwA8BK1BUtrAOyCNAeRFKHS8OnxJNVh7dBv7uVEewcGBgpWZwOAc8+7AJMT43j2ZOGY2KWlJWc6ykQi4bwnp9NpTE5O5skvffDX7xmtra0FecEmdDHVAzIm9L56mZ+fx44dO7B9+3ZngN/CwoIjsdBSHKBSI1pbWxEIBDA5OZmX56tP0xkIBJBMJpFVg+XAllPW5XZoaMgpJMNU9OdKdboQDw0NOc+z8A6Zg4ueWz83+Lluhfp6bU11bufr53jBn4NXPX8cqGgvfXxbrfthQ4mvLr380ydF50ggLRqXpn5pj6iBbSSPnNyAt9CyZFKUGMtims3mfpyW+tSZu44NKxBEMNSi6iwANuzs8qpxzjRnmSVkM0uwqS6bKZivF+xNJhd1Lly+N/fYuXSHu/f/ENcw8U0kEnmr6EC9cehTydBsDSboOVEagIkb3/VWvOddb3OirDsvvAh/8Na3467b8lMecoPycv+fV756H3750MP4j58dxMmTJ/Hss8/i9OnncObMGTz//BmMj41hYnwck5MTmJ6ewuzcLObmZjE/P4fE/DzmE3NIJBKYn5/D3GyuzM7O5PKV52bVHL20ncvJdSKBhWQuupxOLSCZSGBR5fCmFhYwN09pF3OYnZt1Xr+FhVz0eXFpCUuZJey++GL88qEH8/6qT5/JpTYcuu9e/OB731tuMAiKIFQDSXVYe7gA+In2uknvf/mN1+Efv6Uv7pqPHvCxLCsvWptWg9N0+LgPfT8SiTipEXrO7uzsrDPAmO51QcOUnwQPyEDdQxa1hTFIXElyaZ++faQ8Xcuy0NXV5VyLvoXUB+HRuXNzc04+M4cCD35lq1gkeHm5KLP0cfQ+XsUv1Ndra6oj3OqKFY5bHT+H9h/W+q1W6l/DzOPLVy0Kh8MIBAJO9PL2u76AvZdd4QhbUE29kssJtXD7bbcim1nEtTe8x7lm7g81oNJmc/vL313npiyjgXJEToC1OjuXd2vbdi4HFbYS7sJPyJlMTnRNOG8alj67Ay1mYSMYDBUIO0nzFXv34Lbb78Td+3+IH/7g+4D6+qq3t9eZF1GfHxHqzaSzs9P5AGHbtjNfYzgchm3beYPYdC697Ir8AW2AGnV8Obq71+Gma/8Y556/E++6/iaVYhHG179yF0B/FLaN//zZQSwupvHsyeOwYGHT5s1K+i1s3bodgWBO7oOBIM4977zcmy+LfAes3ABE500XuWh/QE2LE1JbOPKde/3oNc293kBWDZzLdQQsNbUZvelbAfrAEcQPvveP+N53v+38vwHguhtvwgvPn8H3v/ePefX0lY7fN15B8AN/L8QareAmLPNp9gGk2H1Xz+d1yd5zZfv27VhQq2+2qBUpz2opEfp7P73v0zd7UPcaes+cnp5GKBRCX18fRkdHnf49PT15aQZQkdrJyUls374dAPDYY485beeffz7A/t/JZBIzMzPYvn07EomEM+UY1P9B7zc9PY2uri4kEgkEg0FEIhHn/xSJRNDV1eUIsP4Yp06dMs5H3N/fPzI4ODhseu/lK8DqxwcPHtzn1jY0NIRDQ0POctQ63j/t8jBdU5dK09ZU59VG+8WKPk0ZHfOV2/i8vhkAzwH4F/U4g4ODw26pqpWmIcTXtEY95467vuSsmkXSGQgEcnm82Syufefbcd0NN2Lv3styPzgaAJdXchFcaL8YJE7Eskznk83m0iCy2SyC6qsX3s8ZTEeo1Av+GPR88smXYqjnAti44bprMTDwX3D06BOO+MZiMaO0Qs2rGNGWioS6Vm4gXsb5+sxNfIFcykI4EsHxZ57CM089iT17L8fn7vwqwpEI/vavhvDEE4/ic3d8JSeOsPDdb/197jWltA8bePbkcXzja97zVXI2bd7iRPO3bN2upBTYvn0HoOZKhgWce+55yz9XLRqh/6yXX2c79/oCzocgWBaCKtUkGFR9AwH8y4/uxt0//EHec6Ip8g5rHwboDXc18pmE5oMW9CGaZSGLWkUX32ILVui5ozzaW4wNGzagtbUV2WwWCwsLzn0ikUhgbm4O4XDYGbOhiy/UAkf8fXBqagrBYBB9fX04e/asEx3evHlzXgQYSlCTyST6+vowPz/vLJYUjUaxZcsWwLkn5XjuueewYcMG515E4tva2ooNGzY4/aDuxyk1o0MoFEJXVxdOnDjhtG/dujWvv23bmJmZwdLSEgKBgJPSoUPRxeHh4cFyFxHS3YPSJW5hfUo1rFL7E3Resa3fOn1bajHJLpfgrIqSv0CP4zkxQWVpCPGl1Yr0VdugPu0RjviqQWFQ03AtLS5iaSmNO2//PADg+hvfmwvmZrO5CKMmR8Fg/ry0zswLUEYE5CK8BrLZLJaWFmFnswgEg5og06wP9JuWm0UCKBwQp+/rx4DKW1YXWv6Z5maguOP22/D8mTO48KKL8H/+5mN550G9MdGsDa1qEQuoT/C6/M7Ozha8eXhx7XveD9jAHbd+GlBR372XX4kv3n4L7r3n5474BqwAvvkPX0YwkHtdOLYN/PxnI/jPn+Xel+iTOn3a9voU7od8Wd6WiwpbFrbvOBdWMICAEuZzzz9/+XU3/IwC6mdw4sQJ3Pl5/vaXT7lvtILgBxHf2kFfsQ1KkLxSHfTVxigA9nI1bdkDh+/L68uh6GdATS1G71eWmqoyEongzJkzuOii3JL2jz/+uHNud3e3E8Wle8yCmrUmHo87K6Fy4SXovqtD+cT6dGXE0aNHcfHFFwMATpw44aTZbdq0KS9V0VbfbKZSKUxNTaGlpQWZTCZvLAoX37NnzyKVSuV9q+mHUqOOPOjGo76FdzNz3UpZvuO71xXbetX5LRT5JcH1EuDntLz31b4fNoT46r980WjU+WPTxffIw4+oP6AMAEsNVlPSChtfuPNOwLJw3Q03qjeL3B8+LWRBX59DSawTCaWlcOlXxYlYLh/rucD0lfmy+KqzVfdc12Wp5bM6wE18DZHhXL2F22+7BadPn8Zv/fYbce273uG0xeNx9PT0qFzj3CINUM9tenq6INeKD2ALa0tGQsu1ovPOPf8C7Psvr8WX7rgVAPCuG96Ha298H37jNZfhf/6fz2DP3stVflgQ3/7GV7UUDgDIpRrYto2f/3QEP9ekt5Q3Ji7BlZLlzVu2OKv6bd22Tf2+ANu2bcezJ0/i5//xM34KoCK9+/btO1jK/0EQSoXfkC9QiykIqw8X3wMHDrgObHOL9t5y19dw/6F7cJdhVhwTbW1tzlf8uvxaloXZ2VlEIhFj1JdSEqjv+Pi4sy0F0zeKsVgMsVjMkeBkMone3l5YlpWXFrF582YnAENlcXERiUQC6XS6IDUiEolg/fr1zvkptRIdRYh1+vr6MD09nXffam9vz0uDKPUe4xb1NZmVqc4Pfs+jfqVuTXX6ttRiEl5ed7ca2Nbf3z+y2t98Noz4Hjx4cJ9JXugP8PADDyNrZ5FZWnKEyrZthEIhZLIZPPTgg7j9tttw2+13ONLrjOwPBGEFgwip5H1aitgNmu4sN1iNxFUJsHq56fGXXdUC1JRbXGD5z8hNfEnMOYcP3YeP/93f4v/5f/8M/+dvPoYn1Kd8L/HVmZmZQSaTQWtrKxYXF53BBvSG0dbWhqWlJefNR58Obc/eK5xoxZ69lyNgWbj91k/jc3d8BVBRdwD4p+98A1lbzSMH9QnAtvEfBw+ULb3lwn+PKiHLFKFe7U+2QnPCxRfq63Zh9Sklv5dye/VBVJfs2Yvbv/wNXP+OP3IivrFYDOl0GktLS/j/t/fm4VFcV97/91b1otZOSwKMBHHesDheMCDheCYTI2be55k4xpklcTKJHcc2aAFMkvFkZrJMIjHZE+8xaANiJ3Gc2JPFMXZmyQzilzeTGC3g3YAnY1YbkGQtoKW7q+7vj3vP7VvV1UKS2bmfx+XuvrV00+qu++1T33NOOBxGXl6eah0MGZSgsl/Q5gwmLX4HDhzIiPrG43HE43H09fUp28LpJjc3F6WlpSphGFL4QpsjOecYGxvDsWPHMGvWLOTm5qq68Tk5OSgsLFQJfaOyfNl4lJWVYWRkRIndeDyO48ePKzE82XnG/11rbGzEjgCvb7a/erbxyULHmept0Jh+O9HFnUDE9yCAnVL4no058YIQvsiS0KHT3LYZSyqrkEolYdu2bFTgIByJwkmlYIfCWLp4ITp2Pi8kKJUPs0VdXVEzV3pz/QlsPhhjWiMEiioLawQ1SaAvtB+/oIUUw4BIsoOvlm8a/+M0jAFLlyxC25aHsfWXv8CTv/gFIJMcpk2bpoQvRbJ18T0wMABXdvcZHBz0VHGIx+NKLOsZteTtgpbUBgCbmx/Ckz97HB/865uwsu5OQCYZAsBTP3tCWEFoRw489oMt2L9P/Kqf7MnoTOMXwX6x3NDQsL69vb36XP43GC4cgs6HJsHt7DAZf+/y5cvR0NCgasoCwDfv24A//b9/7hG+FRUVynoAWfGgoKAAfX19nuPNnDlTncttmcxrWRYGBgZg2zaKi4txWCuxOFGxe9lll6XP1ZIFCy5TcYvdu18B5xx79+zxbZWd0tJSdbWW5kaaj/r6+pTXGABefpnaHQiLRmFhIQYGBlTAhawS0WhU/Uig0mfUaa6/v1+JXwrijJf0Nh5BUd8N2nr/e0VkG58IQfvS2FRvg8b4FJYgwauPPSVFLwCcSW8vccEIX8iTfbuvli9RU1ePmrrVSCXHYIfC4K6I/kaiIhHADoVQtegqPNvZLWwDVA1AVQWwJix8AUBUfJALOBgYOLSua64Dx1dmRfwip6it+LuQGNWjvEERX+j7BvxNP3Hz3+Af/vHzePIXP1PCNzc3F+Xl5erfI6pKpPcdHByE67rIz8/H4OCg53JQJBJRtYCj0aiK3JK3iti46Qfo6tyBXV0d6Or4PQBgZf2daeErT8ZPP/kzjI1JzxYDfvTI+SN6DYZzEePzPfv4bQ6NJ/H3MsYySph9+/6N2Lv7VZUrQfMQZM1endmzZ3sCDwUFBSgoKFBWPQqa9Pf3qzlkdHQ0wxKg86GbPgIA+OsPfRicy9wWfyK2Pt/J+SSVSsLlLvbu3gMwhmee3gqAYe+e3en9JOQbHpZlNnUBPDIygr6+PlXpQfcD64lwR44cwejoKCKRCOLxON58801UVFQoiwTNX3qiXX9/v6eEJzFZMTZe1DdzNg4e0znZ+iBon6neBo1x3xI0FrT4hS4tOwB0yuMQk32vTwUXlPAl/B9CAKiVwjeRGEUoLMpxJUZHEMvNF19gBqyurcGq2lpUVlbBDoU9olf3+Iovtv5R8ELvKf01OedIOSkVSfbA055gDtkeWV8tRTL9UvdlwqXxiOZMli5eiId/8Ch+/tN/wZO/SNeTLSkpUScXV0uGgFbH9+jRoxlJbXSySSaT6OvrQzQaRU5OjvrFTSXNllS9x9NDXhe9kMLXsmz869NP4sQJcWL60SObjeg1GN4mRvieffzCdyL+XrpP3LuhDXetrdG2TBMOh9UVOBKMvb29Ht9uUVERiouLVcDEks0f/NFhHRK7H77pI6p8I+cuXC6CMdTAiaC5C+BwpfBNl4H0JWqDYY+MBG996pd4bW9wVFi3QeTl5SEvL8/j7YWMaOsJ2cOy3BkAvPnmm5g9ezY45558n7KyMpWP4jgO3njjDbWOmIoY8+uOD8jFT7BqyD4+EWjft3sbNMansOiiFwB+C8Bb4DTNVN7rt0t2pXSB0dXVCS5/UXNHdO9SIk9WcaiqWoruri4xpDxRXtFL66jFcBAiIc1rGwiHw6rWLj0vd6mdrjfay2ih0lnquGJrf7B3ojDG8O7Lr/APw7IsTJ8+HTNnzsSMGTMwY8YM5Q07duyYEr30S5paWVISAd3X2xwDQNPmH2LV6nVYWb8OGzb9AP+981WP6NX/PbFYDAzAj75vIr0Gw6nAf7lW7xxmODP43/NsohfS3xsUDf7+llbPY6pZG4vFPBaznp4eDA8Po6SkxNOciCwANI9lE703ffSjuOkjH8VjP3kCH/rwTfjwTTeJecmS3TVt0cFy9+5X8Yuf/RRP/uLn+MXPf4Ynf/4z/PLnP8e3v/l1fPub38B3vvVN3P3tb+Hee76Dp7c+hT179op5lIkgEgDMmzcPc+fNxac/cxfWfeozmDs304QzPDyM/fv3Y3h4WAabXE93tlgsphLlaJ4kiwM9tizLsw+1SiaCRC8CrGtTYbi6OqNrIs33frKN6/jFpb7Q+qDbyeDf1/88/ufMBpfi8ncA7vWJ3hUrVmiPzg72haorHnnkkdv0x28cPoya2np1qUZ4e5OwQiFhQ+AcO3d2A+CoXCo8qUKApm0FjpNSLgISsEEfACa7vDHLEl9YR5Q9U80puGyDLG/FfVfeIv3Rktukq0/QOq8glgOZY5Kuzg78z2uv4bply1BaWopfaI0USktLUVxcjEgkIptJiGV4eBhvvfWWem4SvSJCK+oi9vf3C5uIbWdYPxq++m0sWfoeXDKrHEuqrsEls0TCQhC2HcLhw4fQsuF+7H/9fwEjeg2Gt83rr7/+zu3bt3smcBPxPbM8C4AkZnV1NW67zTMteXjkkUfAGMPDD3trl8+cVY433xA+3Gg0ipKSEk/SWiQSUaW9UqkUioqKkJubC8aYsjBQAtfhw4czfLwf+/gt+No3vokrrrwKl19xBSADLiSUGbPw8ssvoX3bf2F9w5cwfOI45s1fgPz8fOQXFCA/vwAFhUW46aMfx3v/5H1437I/xXXLqvHH730fjp84gd//7ndoa2nC3r178Pvf/Tf63noLYMC04mJw7qKkpBTXvOdazJ07H/F4HK+95pWLekJ1YWEhUqkUkskk3vnOdwLyPaAAE9n1kskkOOcoKCjAiRMnkEqlEI1GVdBGR7fmEZdeeuk+/w/HkyG3Z/Sde/3111Gi+eqDtAKmMD5Z6DhTvc2GVCkZCwPwGwCPySQ2YsWKFbjrrrswf/58bN26VY03NjaekW5tOsEhy/MY8vn6xwGgu6sTlmWBu66KmuqC9Lbb70BrczNcR/h/nVQSjpOEk0oK8RqQAKbq/OoLRYI5dWmTdXaZrLTLRBksYW6QFgexkYxEW0KgS8GsC1p67gwChnR4looRw8PD6OnpUVmy+/btw759+zyer0gk4unvrpOSVTJ0llS9Bzue/W/s+P1v0dXxLLo7d4Bpnc5CoZAqvyZOWi7af/1vRvQaDKcZfwTKcPrYO8l20dna4e7q6lD3i4qKAHmJns6fkUgExcXFgDyfU+kxvbNaUJT34zd/At/41t24+RO3ymCNjVAojFAoDDsUwr888TieePwn+MiH/hJPPfkk4vE4ul94Ga1bHkHdmrWoX7MO9WvXiftr70RlVRUWL1mCxUsWY/GSSlQuXYr6NXdi08Pfx66XduMfPv9P+Pt/+DzKZ5XjN9u3Y93aNXhm61YZUOKYv2Aerr/hBtz3wHfx/vdn/kTr6elBb28v5syZo8qgkTinq6+u6yKZTGJ0dBQzZ870VLrQ8c9ZZH04lVRXV+MZeT/b9DzZcT+64KTHp/o2aNFhciwBYATAwwD+n7Z+xYoVaG5uPicivcQF5fGlxLZswpcS3MZGTiA3rwDJZBK2LaKytGxua4Vl2ahdvUaJWItZYBbzRHtVxNf3/nH6UnGyPOhClfy8Yt3o8HD6Y0SiWNaD9e5HHy16KAR3BkFjYOju6sT9996Nz3/xnwAAn7zlZrU2FotlRAAI6t5GondkZATDw8PIzc1FMpkMTAqYCFddvVj+CJDd5hiwq1tY3o3oNRhOHUE+37nyfubFZcOp5FT4e/1QgwpIkUfilzGGEydOqASu0tJSFBUVBUZ4IUXvx275hJyM0uPJZAKP/ehRPPGTH6Oufg0AoG7NWkA+H+Wi6NMeY7IplKxmZMmmRJkSyVcDH0Br0wa0Njfh/e+/Hn9+/fVi7hQTIDjneO21vfj3f/t3lRBHSXClpaWIxWKeudt1XQwMDGB0dFQlwumeYL3eL5XcpFrGFRUVHh/w2ymx5ff6Xn8KvL5BY37SKuPU39LCpH83KYVuSi77ZHT3kFatAYCK8Pqpr69X98+Gx/eCEr7+D5yfmrp61NavhpNMqTJl8HlxAeCaysXY+eKrsCyq5WvDChC52WAyqqxf/rek4Z7gnMNJJrUTiagNLJLgRAUI+uSJ10XPLe4HvRbO080yVGSZc7S1tuDY0aP4q7/+EF595RV84+tf9e8K+H71kugtKChQ78/o6ChCoZDKkoUvq5hOFFS6i8b1+rdBP0oaZOtII3gNhlOLX/hmg8QwfIJYH4cRy5PCX793POFL3dr0U+DVixbjuV07PdsRubm5yMvLU6IXMlH4xIkTYLLjGq3Tr959/JZb8fGbb1HpZpxTQrWw5P3ksR+heNo01K9ZFzjPiLnAlQ49cQs57zBKwNauhNLcwSkZXBvXaW3aiJbmjZg7dx7ef/31mDtvHjiAkB0GsxgeuO8eT2k0SnzTxe/w8DD6+/uV6IXMUSGP7/Tp09UcR3YJyEgy5Jyn2x6m2lghqLSZ/gMI2mzuJ2g8aMwPbXOqb6Elqo1KsUtJaykAHXJ98KfUCN8zArUu1tsjxmIxzyWezl0vwLIsdXmFfLUULGXMQmtLE2zLRv2dn/L8oqYTDH3RxMcjc71lh1Q1BkghrH+SSNQmE+JLJnYTkU9X2iPEc4itE1TmS2wNALCszM8K5xRRTj+ZZVloa21Bz7Fj+Iu//Cvs3v0qvvG1tPCdN2+esnA40s4BWeJmcHAQBQUFiEREFYw339R/y2Vnoh9kEsFT/WVtMBjGh86J/vFTwXiiOJuQvpiYbP1ePdJ7+RVXAgx4+cUXAVnCzF+6LBwOY9q0aWCajYyuRvb396u6tcQtt96Gm2/5hKy64IC70mbHgcd+9EP8+EePorZ+NepWr02LU5pTtGZD+jhjDHYoLGY1GbzhnItgkW0LcTxO3XqC5p2uzg60NjehrKwUN6z4C+1KK8czT2/Fr54W3lBqTEWVLIaHhz0lz+ATvdFoFDNmzADn3NNgSYdEsV/8TqXTpl/8PtvYqKK+Qe9C0BgmOU5jE72lcBotrrakpLhNyvt6lQa63wlglzwWMR0AtQ9ZsWJFVnvD2Ra+F5THd9myZdshL8lT9xd/j/DW5o3gnIvsUk3AijHx/i+prERz0wa13r/QL1tmicoQjC7PyBMBdx1wcCF45eUfdWLgrjjhyMoPLifvsANHfvldWWM4lUwgmUikT2q2Dcu2YNnBfzZmWbAtC3YoJBZb1Hvs7uzEFVdcqXxQQegnJs45YrEYiouLcfz4cbzxxhsZ/jA/dAlpMr+Qq6ur243oNRhOH3ROhBRfjY2NqK6u9ixT5TXf8itt+a62fEpbHvQt+j57fcv5zGT8vSR49b/FwquvVqIXcl6hlvFEMpnE0aNHkUqlPPY7v+hdePXVeObffo2Pffzj4NwFA5R978XnX8AXP/+PKCosQtdzL6J2tbA1cFXbXeS6pJIJuSSRSsklmUQyMYaRE0MYGxlBKikaEFFSdyqVkHkyFFAJkmteKquWomXTFvzVh27Cgw/ciz27d6v9PnDDClz/ASGkKIpNnmbGGObMmaOOo4teSB0wMDCAAwcOBIpeSMHrT3TL1hdgslB1j6B3IGgMkxz3i1pIcUfvOonYUenDHQYwpC0DAI4DOCHX0XajAMa02zGZsLnJJ3oXAUgbKAVBkd5zhQsq4hvUrchPbf1q1NavgWUxOClHFeMWolBYGzh30dbSjJAdQt3aOz2JWIyJbZTg5eKnk76Nk0rBlVUaIE8ihC6gXYo6K88UF/uqkwTTjgsV7fWSPrYb8Lfc1d2F7z7wAL745Qa4rouXX3oJX//qPwPyV/OsWbM8EV/Ik6x+Ozo6ir6+PoRCoUC/GHnO6IRyNn7BGQyGTBq1du7jXWon/P7S7duFbvaP+x+fbrJFl7ONn20m6+/VG1YAwDfvvg+f++zfesYgG1ToCWxEUVERpk2bhkQi4enEBgB333cfrrrqavVYTjX4wfcfxu5XX0XdmrWokpWMIGYdKXxlowrXgety2Ladnr+QrjrEGFMRXtu2wSxbzUsij0PeY0xEmmme0uYr3RYoVnEZ/d2I9/7JdZg3b76yZ+zduwffvf8+z/a5ubmYM2cOGGMqWZuYOXMmotEoBgYGVLJbQUEBACCRSCA3N9fT1Y1zjqGhIbU/pph7ol9toaivP2Uvc8YWTGZcKAghcqGJXX18Mo91K4O+HJJiV28IXQngarn9QQD/KcfHi/biHIj4XlDCl2CM8erq6vZsl/g6dj6vSnCR5YFBGPTJb9vW0gzbtlG/RghfUJRXi/AyRglaXuErThqurAQhqkZwnvZSkb1CfMy8CEHsiNcFZPUWi8tLOvIyk290TW0NbvzgX+Cyd78bLuf4l8cfx89++gQQIHxdXwMLSDE7PDwM13URDoeV8M3Pz1eJBnoN36mcIAwGw+lDv+z6uc99Dl/+8pc92fB0XpsqfhFMYjlonf/x6WQ8UTzeulPBZP29+vty1dWLsPDqRXj0+96yZpDClxKS9Q5tAHDJJZdk1KW9+777sfDqRelEYjn+yPc2IzcvD3Uywqvj+ruyiYlLXNVUVy29cw2zREUi2w6L/Bk1LoI3dEXUdR057Ym9aR5Ux/PNdcyysOq2W1FWVobrb1iRfi3gePCB+/HaXnFtgKwPl112GV599VW1f1CDi9HRURQUFKC3txeFhYVqTjt+/DgKCwtRUFCAQ4cOqWNgislu/pwjaiDjn6ORZQxZxoPGdPGa7f5EHvsFb4cc2wVgNoAKbb8lvu1/IF/L/Pnzcdddd/leoRcjfE8DJHjb29urKdqhr0/7mAAnJWwJIgtVlImxbRtgQFtzEwCgfu068atWlhqD+GPJj0BmFFhYGcSXWfxqFr9yPYtskxw04YjLS0IwK6Htw7K9+wph7T9hiUS9nzzxUzDG4HIXTzz+OH76xOOebWKxGKLRqPI4kT2kv78fjuMgLy8vw98bCoWQl5cHSHE8VS+UwWA4vfgn4DVr1uBTn/oULClWJnIbDodPmVAmdLF3rohljCOKs40H4Re+/vOyjl/4/s3Nt+DHj/7Qs42OLn57e3s9yWs6d9/3AK6+epF4oKKuwK6dO/HYoz9E25aHZf6J97XpwpdrFkAq/anmNu6KOveWqOBAcxvAhNVORoEt2Z2Tqe6jmVDEV3+fxPM44K6LlqaN2L9/H67/ADUBFjX0f/X00/jXXz3t8fxCJqxVVFQgGo2qK5mcc6RSMtAlI8NFRUUqnwWynTHnHAMDA6pCxlTnNv/37noA79fWB30iJjoG3ziJUf12vPtBj8nX+99yXSeAP5Hr/ljbXhe7dP9XAI7I15ItoU3HCN/TjP/DR+x88VWAi8v7VIJF1MwFACFyXddBW0szAKB+jRC/9HHjACC9wkqcahFfcHGyEYcTf1c6YQhvLwd3HNpMoKLFjnpdAEMolO4yR89rh0L6ngD0X9OCrq4OPHj/fWho/GcpzIGGL30JL78kvGOxWAyzZ89Wvdp13xS0y0H6ZZ+8vDxEo9FAz+/Z+AAbDIaT4z8P/uY3v1Hr6PxFwiRI+FKeQdB40O3pEMoIEMHnqhVDF73jJbYF2Rw+9JG/wU8f/7FnLBaLeSoRlJSUoKSkBK7roqenJ6Ne7a2fvA2f+OTtnjEw4Lldu/DYoz9E6+bvZf27+IUvoeYgGfSheU7MfWozNU6Jc0L4Uq3dzEARGPO0P9YOJF+LmAdbmjbi1//xr/jUp6UFhFlglPT2zNNqN6r2EIvFPFczXdf11J0/dOgQ5syZg/379wMyua2wsBCRSARDQ0NKDGOKVzL171x1dTUOtrdjnbZeV17Z7usEjdMYzyJyg8b89/cBeB3AAWlXeJ885nsDtnd9gpcsEP8m9zmZxYEwwvcMEJTZXL9mHerXrBHGexnlpZIuth2CK8Uwd11ULroKz720W31Z1XvGZXkW7QMILpPawFQE1pVfXEYnD/ULOgXXEV9sdaKR/6fHliVegx8RffYLX+92davuwA0rVuCKK69Uv7g//Fd/odbH43GUlZVlHKenpweJRAJc8zqFw2FEIhEkEgnEYjGMjo6qkmaY4qUgg8Fw5tAn4sWLF2PlypVq3eLFi/VNFdzX9IbEMUFCl0SULc9LokmNeEzrQ6FQhkA+3UIZASL4TEWXqTxWY2NjYCtiZBG+7778Crzy8kuAPEYoFEI0GgVjDIODgx7xG4/HcfDgQU/uxSdvux2fuO0OQHlxxfhzz6VFL7QfPH64dmVSzCniGFSlSLf5ifmMjiX/dpalfMKcorZcOHRt2dHUPxcKq0P6tYo7cp4ka4XrorOzA3d/+5tY9+m/1V4/xwP33euxPZD4JRHvysYWNEcODQ3BsixEo1EcOSJilYWFhaoF9LFjxzyJblMRvv6co7mAEr666prI/fHGECB0g0Qu3b4uFwDYL5Pg3iGXOePszzXBqwvfX2m1e5ubRaDwZGzduhVbt27FVEvGvV0uWuELALteehXcSVdTsGRim+M4oiC3pLV5IyzLxuq169SX3mIWYEnP1ElOHnBdtZ/YnAEQ1R/ol6jjpOA6DsZGR4TFgSIvlg2uTlLyV7PmN9bRhW9XZwcevP9eNDSKRDbLtvHySy/iy//0RbUNXS4jr25ubq66ZES1DYni4mJweQkoEokgEomoS0FTOSkYDIYzT7ZzIeEXwEuWLMkYpzEd15cfwHw5ESSISdhCnm/1saCFhHEoFPI8Pp1CmfCL4MlGl3Xhu2zZskCPr9/m4Gf69Okqt4L+ncPDw6p5UE5OjmpXDAC33bESn7x9pZApMuoqArQcd31mHdau+zQqq5aq7YPeNxKKnIs8FdIIDCKBWmkGGeShvyf9rRljyInlwQ6FxfOrjqcuvSyN9KN0Ilx6BDJwRLZB7nK0tTThwIEDuP4DN4jXz8R269auBmTEt6enB5dddplH+CYSCQwMDGBwcBBlZWUYHh6G4zjq/Zs+fToikQggG1y83YivX/gCwAOef/Hk72cb84tbuv+/cuEA6OfeOwFcKu9X+/YJOoa+zm9x0G0OE/H2Ekb4nkbaZfviIKsDANStFq0Wha0gHemFirjKbyHnaG1pAmMMtfWrYcn2jiqy6/kYal9eGqYThzT6kz0iMTaCZGIsfSKRHmMxiQAARVfEa7Es+bwkgH3ox6ldeTs+9OGPYP6CeeCuqKv45S99AS9pJXImAkV6qTd8X18fbNtWJ4upnBAMBsPZI2hCniq6CCZxrI8FiWT9PKWLJTqnUbRYF7X+W30ffVtLE8f6/Ugk4tmGBQi+U4FfxG7fvl2Ntbe3K/FLEWB/tNfPnDlzkEgkkEwm1b85FAqplsWDg4Mq2rto8RI81NQiEqN9DZTu+synsXrtnRmiN+h9ILGbFsBS/HIt+irXRSJRRHJyYNkymi9zYPRAj/73FnZCBvj+jkTQPlxZBNOiu+mh72Lf63/AB25YoebbZ7ZmWh5KSkrAOUdPTw/6+vpQVlaGsrIytc3LL7+s7s+ePVsdv7+/XwV28DbmOX8Dmfu1+/qKidz3P9bv/49mr/mDFLuQIved8v6f6pIkyzKe6PVXe+jwNa6YiLeXuPfee7Fnz54pv69vlwta+CLA20ZRTqK5bTOuufaP5K9JF5YdgptKefSs6zoAs9Da3ATLYqirXwNm27ClfUDA00JZfplVIoD84lJUxLKEaGZMXOKhqK/YHuISFV2mkpUd1OUlupykniP996Pnam3aiOMnTuBjN9+MZCIB13Hwki/aG4/HkZOTg76+PnDOPZd1yNKQl5eHwsJCJJNJDA4OeqK8eBudbQwGw9lHj/zSfb3Lon+bt0uQIPYLY/0xndvoPKef9/wi1i+A/WP+W8iIc9BxLF9EmcmI9amARPBE2hNDRo1jsZiKmNu2rSwjiUTCk3T8UFMLFi+pVNWESPju7O7Coz/8IVo2bdGOnF34Or5GGYCY0yzL8kaAmR70EXOUxYR/1w6FxXrfXEb7WTL4A/m3CLLzeZ9HQnXxOcfCy+fjuxu9l9af2fqUEr90BZOsebrgJfbt26cagxQWFqpavmNjYygsLFRR36nOdX7he6e0POiDfgWWbV22+/8hhe//kY91sUvbBd36l/FEr6sJ39/JxDc/kxG+5PE1wvc0oEc24vE4+vr6EI/HMTIy4hG/HTufB+eilq8SvzJRjEuPm+uKX6ptrS2wLBu1q9fIL7loZ+xBniQ45+pSjTiW7I5Gv6ghyqilv9iiVXHaO5UpbulkFXTScl0XLRs34PiJE7j5E7eq50slk/jSF7+Al158AZDiXy9jRpmuQ0NDGBoaQjweRzgcxtjYGPr7+5UVwp89bHy9BsPFw5kUykEiubKyUtsiPe4/P0KKWrrVbRbZboPGxrv1j5EVg2ki2X9+DoIxhoaGBiWEsxEOh5WQs2WS4ZEjR9SVt8VLKrGhqQWQVYGEH1fMHZ9Ztxb1a9ehsrJKsxIEzyGAyD3xwzkXlkAu8losacMjmwEAJW6ZrOpAXl/KjQGgNY6SQSGxgxLIYoCr106VjcS+6dfKOUfnjh349re+jk//7d/JeVq8lAfvuxd794r2xuT3pfbOhN7goqioSCVyj46OKrsf5beMjY1NWaD5rUV3AniXdxP5rk38vv8x3SeR6h/z3/rvB4ncoMcpKXp3yP0BoAwAVUyeqL93z549uPfee4GzqCEuaOEL8WXhkMIX8lK9n5q6eqyqrQMDYIdCcF0hdumLJz4p6fdpU2sLuru70LblEWVbECeU9BeUTrwEh4zIukL4CtHpFcGQQlt4p5iKDFuyDqL4cqdP7P6TVueOHXjwgfvw7bvvVa9WCO0Uvvi5f8SLUvjG43EUFxfDlU0rqISbZVkYHR3FwMCAKgFDiRRBnI1sTIPBcH5wpoSyP2pMAtkvnmmu04WUvvh9yHT/ZLdBY9luaV4gO0coFJqQ8CUikQiKi4thWVZAtHcJGBhSyQRcOVd0d3Xhh99/BE2tbZ7jwCdIdUTENz3fMa02Pc1BollFOlHNj5NKqcCNp4KDrAKhHtOPCNvWOpqSCJbBIcakUIcQxMpq4aB540M4eOAgPiArCTDGsGf3bjxw3z2AFL6QlhHLsjI6usHn7fUntRFTjfj6rzj7ha9ffemPJ7uOFn29fusf8wtcHjBGj38rRa/OldLbe2yS/l5d+J4tDXHBC1//By8bNbV1qKlbDYDDsm35i9MFY5b8QgohKL6sFrq7OtHW0oS61WuVb0qdRBiTgpiOnv6i619oEsquk0IqmUw301AnBnHCUL+kqXSavKzkP2fV3HEbPvo3H8dVVy+kH+Hgrovndu3CFz7392q7WbNmIRqNek5kfkZHR1W2axBn65eawWC4MDlTQlmPHOviWB93XReVlZXq3EjnZBKxUxXJ/n2+853v4Pe//72n0gRkhDcUEi3ng7pl6klti5dU4qGmZjBZFoyCFgDw6TvXon7NGiyprNL2FqRzVLz4hS+0uS0tfIXdQoylk9Yyjqa9f5DPSTky1O1NP7aYH124Lkkv+X/tR4vwMIv1Ludo2fAQDhw8iBtuuEEJ6ae3PoWnn/oloFkeGGMe0VtcXKw6tQ0ODoJLy58ufHW7w1Sivn798X4Af66t96sv/fF46/xj9G7pj/XxoDF98QtefWw/gJ/IfSHbE18pWyDT+ETLmEHz9071x8Sp4IIXvvC17fSv09nY3IaqpVXyhAAADI7jwpI2HSZFL31RRUvFJtTWr85MGvD/EmbC18TlyUEcUSYMuI5oVeyIZhrqGPIXMV0GohOFiBqkk+haNj6E5o0bcM99D+DKhQuloE0/9T9+9i688Pxz6QF54iwuLkZOTo5nnOjv78+oDUkY0WswGM4m/nP56RTKCLBZ0GNK6KM5oaqqSp27mVbOjWURvpZl4Z3vJEeml3g8jpKSEtWoIkgAg6K9i0VEm/N0Utvzu57Dw9/bjI0tbWLe0QIx6v/aGM1LovwYNKmUxnVdMIhEbcsKIRSWXl4Pek6KeEzb6POauJ9+L4QWoZwYYamgx8orrEWeIStGdO7YgW9982v49N/eJbzDcv5+5umt2PrLJ5V1gW7j8TiKiorUcY4cOaKaN0FaG1xZ/szPZCOUJxO+8L3L/nf8ZI9pjJZsj/23+uIXva9LsUuLzhIAC6XoPQyAMmQn4+81wvcMomcxL1u2bHu2KPCznd0AINy3XHnv5Zc1LXrVmKygANkRjgSwEKde9C8/6IMm2yXTl5ou44hzBwNFnrkqiZZ+DRxAW/NGJBIJfPL2O+A6LlJUG1g+56M/+D4e/cEj6jXE43GUlpaqk6nruh4BTII3HA4HfvGN6DUYDOcbfgF8uoUyQQLZdV1UVYmoK2MMlZWVao7o7u5GU5PoEqoTi8VQUlKiOmkGCeDFSyrx0MZmAFRzFwAXVy3vXF2PutWrVbRXzfRchFcyclMkliyhCamLGRNd0kgrqL1kArfy58oxxhgikRwlQPW5UN8OdHzLkuVDuRDcMsmbXp56bk380iLGXNTc/km8933vw/wFl6n5kYQvtJbGJSUlmDZtmrL5QdoBdQ4ePKgSvP1MVvi2+yqovF8uuuryK7Dx1hH+begx3fePBW2nC97t8jbd1iZNOYBLpOilqg5JAM8BENWmJ+7vhZbYdja1xEUjfP34P5DEqto61NTWy64w4kQynugFgOTYGLq6OrB5UxsYs1C3eg2qll6j1gNS2Lrp+ry0v0tfXpnUxiHsCYx+EdNJQ/7CpV/TzRseQkvTBtx2x0rcdscqQCYfpJJJODIx7/kXnsfnPpv23cRiMeTk5CA/P9+TsEYCeHR0FPn5+eCcqzqROmfzg2owGAxnCr8ADhLK/m1OJxT9dRwHf/jDH9T4huZ0tJdpidC7du7Elk1tmrdXXCHUa+UGVVIQSHudPBbngGWJIAzNQWJKTNsU9FvGGMKRHCmY0/qC9k5PY5a4oOnz9opttP0CBLpH/IKjecN3sX/fPtxw4wfFPlJQr65dpfYpLS1FPB4Hl1FjKh2qfjAAqtYvdW+jWszEZIUvxOtX/5i50uerqy6/AvM/zjYGOU7LZB7/r9bIgppZ+KmQyyUAZvpKmSUBHJ1VgdiSRZg/f/6Eo73nQmIbLmbhi4DLEERl1VI0tW4CKKNURloJ/YvoOCkkEwlRDcKy0N3dhS2bNoFZQgDrFgj9l68SvqqUmR7tlScWuhQkXwMAdHV0oLOzA2OjI7j1ttth2SH1C9x1XSQSY/IXLMMH/vz/qufzk5ubi5KSEiWAd+/ejfz8fE+5Mp2z+SE1GAyGcxm/CJ6sUK6urm73X4kkjy+V2wridzs6AdkWmHOuKjo8/L0tsCwbNbV1mkD0EnRVEoD016YjrjQHWpatIsAUkBEJblIUa89jh8IAoJK25T0hfuU2jIlqGEKIpqOutJ5ELSl1mjPF4fzRXxeLr3w3Nja3iscQ1kA96gsACxYsUPOt4ziqohEd++jRo8rXOzY2htLSUgwODiKRSEz50vzJhC98j/3rdPzr6B3S7wc9prH/0uwJQfyJvP0jTehSGTNakgCcWRX40eGDk4r04hxJbMPFLHyzRXyJyqoq1NQJ64IudPX7rusilUxfDnFSKThOCpZt47mdu7B58yZYUgADDNdc+0dyS/GeM4izi5MS+9Ax6VIUbdvV0YGujg60NG9EZVUVrl60GJ+49ZPi8pD2S5teTzKZxD989u88vt5p06ZhZGTE0+WHoMtA2ZiKqd9gMBgMwQSJ4HZfs6W8vDxEo1GkUinVIl5PaqusrMJDG5tk1QRRPlMkSLv41J1rUVtXL2wOas6SnlsOT0TXD7MsbRuxe6Z4FgeiCG+6upHwLdvhiAjeyCuU8mlVcEffFkDW10Lo4pTJUqHiWCIRjnOO5ocexP4D+3HDDStUNQjLsgOjvhRwSiQSYLIRCKS/NxqNYmBgANFoFAUFBRgbG8PQ0NApFb7QxKj/vk62cfgErV/gclnbl64NUAc3P5fKNsVzAMyW+7ly0cWuLoCTAJ6fVYE5SxZNOKGNOBf8vZBtmg0AysvLVckzAOjq7ER9zUrs7O5SYx7R6zhIjHqTDSzbRjgsyqJctfAqPPjdh9DU0oqWpg1oaXoIi65YgFW33YrmjRvQ1dGJzs5OhEIR2KGQiOTueBadO36Pro4OtDZtQGvTRlQuvBKtTRsBBnTuegFNrZuxqrYO4UhUZsTKX+Da8sMffN8jeql82YwZM1BWVqZKtxBG9BoMBsOZo7q6ut2/6NHhsrIydTUuHA6jpKQE06dP9wYupCBVdd8BJUaFl8DS7AgyWiqjodl0JuccqWQSqVQSTsqB46SQosRrFanVbXgMnMsgkJNCKplAIjEG1xH7OE4KToqOlwSoEYlu+cuI3qafh16T67pIpZJIJpNIJsbkkkAykUAqKRZRL1/uq/17yf6gB3gYY+jv78fQ0BAOHDigclr0HxZkcaDbZcuWeUtvTBD9Sil1V/OTVhZe0n+5YGjdHwD8Wi6fA/B5AJtkhPd12dziTwF8FcBy2aq4AcCtAK4D8A7fcXUhrX9UOIA3AYzm5+LGG2/06I6TsWfPHuzZI+orn20u2ogvtOLS1NQiFosF1vmtW70GtfVrPGOjIyc8n4hQWFzaocso4gvIEI5G1UeHc6CzYwfAOTa1tWBJZRU2tYqi497i4oL6Nd4Wk3RSoEs0om0lPCe17q5OfGbdWrWPnsFK+4VCIfUrNpVKqV7wfozoNRgMhjOD3uygrKwMjDGkUilYsuWybds4cOCA2r65dRMWXn01bGlzYPKqn23buKZyMTp2Pq8fPgOu2QvUGBclwnTbAonpdBlNKVqpSRNNhJz+x8Asf9lNEkeywYesekTPECSb6N+l7IBybrUsBpdzVQ+fu4566vdULcaG5hZxPPl8T2/diqefSie5QQZ7SktLAfleE/v27VPiOBqNIj8/H729vcAprOVLbYuzKa9s4wQH8O9SRP+PHHuX1rkNsnPb/5Hbpv+K6YS2k91mi/amAPzbrArc/LGPTtjXS9xzzz1K+J5t6+RFK3z1DyNFeoeGhgIrGQBA/eq1qF29Rn4RHYyODAuLgmUhFBZ94MWXUgTRybLAmCVOAtIjrHuZMn8p0X3xNwlHotrJR+BQzV9XnBAsS1SfAGPYsqkVWzZ5C5VfcskliEQiSpBT7UXiyJEj4L6WxTCi12AwGM4o+iXxsrIyFaCwbRvhcBipVApHjx5V2ze1tImmFUrwio6ju3btRFtLM5rbvC2K/QQJXyAdYNEXKsuWiTZ/ybsMoiEFiU9ldGCi06mogWyJyHPWBDshfCFfjwooyTr7XM5/XLZmFslxQFtLEw4dOoQVK0Q0EhCvob5mpTpuaWkpSktLA6OUuvAtLS1FKBRSjUJOtfAlxlNg2dZR5JhrglcXuNnu+wWufqvf14WvLnq7AMy58cZJWxz27NmDe+4RTUWm+j6eSoI+yRcFjY2NjQ0NDeshu7n19fVlFb0A0Ny0AbUrbwM4h5NKIRyJIpoTA2MWUkkXyaSjfFZCkFKJFmGLSCUTcHytIDO/eOmPabqWcPqLn0yMwdHM+LYtLjUJ0dumRC/9qi0uLsbY2BiOHDkCW/Z49z9nTk6OR/RWV1e3G9FrMBgMZw6/5/fYsWN44403MDg4iP7+fiQSiYzgxJJKUTNYRFPFfCFu/fPK5BBzl3dhtDDvYts27JBoZmFZYiELhIoO2xbsUFgkwqngjbQnaBYKPzQu5joxf4VCYdEAw7JgWcJuYVmiNbKoP8xhax3yyMu84oN/oY7b09Oj7kNrX/zKK69geHhY1fQdGhpS0d5Tid/uIP6CwWQbf5e2TBZdCOu3OqRE9AWzKvCcbFYxWZ566in/0FnlohW+0MSvP+Tuf0x0dnSgctFVaGttgSsFqB2KwrKFV8lxODgXhnpAFPlmlvzSh4IKfaehy0eqSQWzREtj1xGXeHy/jBkT3qrNba34k2uXYsumVrVueHgYsVgMubm5KCsrQ1lZGV5//XXlXaJIM2PM4xlraGhYv23btuVG9BoMBsOZwy98iVQqhWQyiZ6eHgwMDHjWMVkSDBDlxhgTFoPurk6PRe6UkI7JeId9ntz0QutdUWbTSYk2ytocZ9shNXcGQfY81zf3kfXBdUWjCy59y5BJ6bt3vwrGtKizbKkLLSjU09ODffv24ZVXXkFPT49HDFNEuKCgAEVFRWo8299osszzD0iC34Xs40EE/InGxS9+g/7MNPbM4YP4u7/7O9/ak+P39lLA8WxyUQtfSPFLfhOKdtLi35bY3NaKP772GmxqbUUqlRS/uCHaRYoM0/S2nAtTvivbEesnCYIxBjsUgmWHlOhlFhNfavpiB/wq3rKpDd/b7O/BLhgZGcHhw4fR29uLWCyG+fPnq+gBLboYNlFeg8FgODegphXZqKyqEvOOnEeYZQEMsK0Qujo7/JsHkDmfQApZvb4tWQxE9QQRiBGLWJdMJpBMjCGhEs7GRCIb+W+lXxjUoVQmvanSnZOSdemrn2mbA70WMUe6jhTJjMkGHQyWbWHBgssALZF7eHjYk9QdjUZRVFSk/L5DQ0MZgjhbQGwqZPtXjzeur8u23Xjof/Hgv76AhK4ugrsBFE6iXq+OHu0lneXZ4Cxw0QtfYtu2bcsp2lldXd1Ot7Q+FotlnIy2bG7Dde99D9atrUNXV6cUqy4YyOsrPp7qy+rIL6qvUwznshRaKoVUKimzaNMFvV3uegqBb97UhrX1NZ4oL6S14R3veIen/WJPTw8OHjyIkZERVFRUeIQvYUSvwWAwnBvEYjGUl5dj3rx5qKioQEVFRcbcAzDxn7S8CYEJAByVVUvlnCPmGrVoVw+DAikEzTu0DbVB9i7yeNq2tE7MZUlVWk0FdpiYHwnmCwBNBE6vTwly2RiKMVh2CEuveQ92v/qqEoau6wQ+B7UujsfjeMc73oEZM2YAAAYHB3Hs2LEMW8mpYq52P/NVCfwiVyfb+EQJ+qvTmH8dCd9OAOU33njBRHthhO/46Jc24vE4ysvLvRtIdnZ34VN31mPd2nrs2rVT1OSVXWmgfblFGRkhZMUlrBQSCVEuRixJVQuYwxWCV57Qujs7sam1BdcurcTmtlbs7BatlSFPlDNnzkRhYSEcx0FJSQny8/PV+uHhYRw4cAAHDx5UY4QRvQaDwXD2oUDLyMgI+vr6lGUtFouhoqLCs21d/WpxZZBZABN1d12tDa8QxOSLpSWMUCgEO5QtUU1gyTJj5O+17ZAa8y8eH7Cs5WtZlqpL76RSSIyNYuTEEMZGR0V5MyclSo8BAXLrJCjBLoU5PeauaHWsHY+EO0O6ox1RWlqq2hcThYWFKCoqQnFxMaZPn+6xOZwuxhOy462bCCd7Z/X1uvilZQeAJgCzppDMBil6z8VoL4zwzU57e3s1/TqJxWIYGRnBoUOH/Jt52NndhTvX1KK+diXqa+5AV1cXurtEHWDGmDpRiSUERn5eS5yIKDnAsmyAM+zs6sKm1ha8p2oxVtfVoE2WPtPJyclBNBpFJBJRv4DD4TDi8TimT5/u2dZfr9eIXoPBYDj76MnWkAnXhw4dwt69e3Hw4MGMoEWnsjNIycIAl7twXCctmLQoLF1xdBxHXE0cp5qCXySmBa4+V6VFMeWwhMJCXNuhMCxLiO5wJIpwJIpINAehsBgHRCMLUeNXRIU9InYclOjWku2obBlFf6EFmSxLlEQDgAWXCbuDHz0iHI1GkZOT46nnS0y1jq+OHvElJhvh9Y/5HwcRJHL99+kxB/B7ADNuvBEtLS1TEr1bt25Fe3v7ORntBS7icmYTQe/uRrV+g+rdToQllZUAgDtW1ciPqgWAo7urSyQpyC8rsbnNa2MIIjc3FxUVFejt7YXjOIG/UAcGBjy2BmgfQCN6DQaD4dyBurf5E6mi0ajn8nttXT1q6ler5DYR7RX+2RdeeAFtzU1obtsMkLBjsqVDOusso8oQ5HGCNIEQh3QM9T+5rdyeixlMRHxDQoQywJIlzCYDY0y1PabHQNp2IUQueY+F1UGs56hbdTuW/+mfYf78BcJqYVlwXRf33XM3dr/6KiDnzvLychUlFzXx0xJydHRUzZuJhOjOOtXas3o5s/cDuN6/gUbmOy/wj9O7TuPZHvvX+cuW+e//PwD/DeDGtxnl/bM/+zMsWrQIzc3N2Llz5zlRwkzHCN9xyHYSOlvk5OQA8ktJlJSUoKSkJKv49QvfqX55DQaDwXD60YVSfn4+bNuGK9vrkvitqatHbd1qEfUE4LgOnFQKruvAsmz80TVV6OhOd+/kgCeiysEDI4XZ9ICTyhTJkHYKf8yRWeIx7WPbNkLhiEdY6mQfFwl7dHzGZEUHaefgMqIN+RyMiahvzR23Ye2d66TtQ4hx13XxzNat+OWTvwB8wjclKzSln5fhyJEjCIfDGBoaQiQSQSKRAOc8+IWehMkIX2iC1Y8+rovZ8R7r9/0iV7//Gyl6pyp4IaO8x44dw5133onf/va3aGpqUuvONd1hrA7jQL9Sgkqe0Xp/AtzcuXMRi8VQUFDgSTKbLFR2BTJpbc6cOcqXVFhYqNb19vait7cXJSUlsG0bAwMDYLJM2cDAAEZHR9XrzPbvMBgMBsPZRxdJ0WhU+XQLCgpU4AMAujo75eV8F66MfqYR9ykBDVI6KpsAE1WIPJUXtD1d2RxCRVZlGTJZP00t4piUyyJeC+eZyXMcaZHqPy6XUWIB8yzp5LwUXLJFZLFoUOTWdV10dXYgmhNDTm6uaC7FGGzVulkwPDyM3t5evPXWW3jzzTdx9OhRtVBTp6GhIUBGfM/kvJlNXWcbnwz6p+T/k8s3AEx7G7YGak4xf/58XHvttbjllluU6KUSqWfy/ZsIRvhOAH/JM11I6r4V3QYxNDSEsbExRCIRQJ7EgiA/EXl1ieHhYbzrXe9CPB5XJwvIy0hFRUWeyC6JXwCqTNmRI0fQ39+vosPLli3bbqwNBoPBcH7gz93Q6e7qFBFOKXh1UZcZtM0YALR99OPbli29uiKhjdYzXyKbJT221DENEPXrLRKYstubLY/DZYthYccQIlYkuolKE2KOc2RCt0hSE+U9tTKfVmZ0mVAiWs6TjDHYdgiRaA4iObkqIqxD/6aZM2dixowZarEs67RVdZgowf/KzPGTPfazDUA7gH8GUHjjjSieouDdunUrtm7dirq6OuzYsQN33303AOD++/196U5tGbhThRG+k4BKntHi/4PqJWdIxJI/SP8ixeNxzJ0rbO5kVYjH4wiHw0ooA8Bbb72FkpISDA4Opk828he7HvWFFN1BXWboF5cRvQaDwXBus3379mV0f2xszHMZPjh4ootaESnl4Kipq8cmmQwtRKEUlHJhDLJag2gfDOXvdYVX13fpP0P0ygoOAvLaighzKplEMpnQqhTJqK2M4ApPrfAjizJrQQl4FOmlMmz0mryRZIJe186d3bj8iisAyMA0ANuyEI5EcPkVV2p7iLm3rKwMubm5niWIU5HYNlko9n0q+E8AXwJQcOONKNDE7mQEry52Fy5ciIULF+LEiRP4whe+gA9+8IOqJTGk7uCcs3NVdxjh+zbR7Q5U+YEiv3Si0sUsZMYupFBOJBLqxJJMJpVQ1reLx+MZXXsGBwc9j/0VG7Zt27b8XP7gGQwGgyE7Y2NjeOuttzA0NIQ33ngDR48e9azPFEWifrx/PMNawLlq+JAWrd5tCAq0iPKcFphlp6sR2VQiLYxwOIJwOIJQOIxwNIpoNIZwOIpQOCyiraosmqiyQM8nIrMi+U20PU4HeCBeHbgraxLLusEK7T6t79zxLC579xViT1dYNMS/QUSoodkIR0ZGMDw8rFoW0xKEP8g1Vfx/m4kw0X3+AOA/APxaLm0APg/gCwDypiB29+zZg61bt+Kee+5BXV0dFi1ahEWLFnlyjPLy8vD1r3/ds9/5UC3KJLedIhhj476R1dXV7XqS3Ny5c9HX1wfHcVBQUADIE93g4GBGdLikpAR79+7FnDlz1IduYGBAbUfe3fb29upz/QNnMBgMhmCWL1++baLJ1C2bNmPx4iVwaQ6XQpLm9GuXVuLZzm6vWJQIgetmyCpKllOCV4wqrzAgG2fI+7RN2kUgS40psemt+6t3ImXiiWhHgXypQmxnSj7XFRFpADJ6TUJepGutrlmF629YgXdfcYV6TtcR1SV+9i9P4KdPPK6ORWVKJ0LQFd6Jovu2r5dL5l/k5NA+ewG8Ju+/BuB/5P0FCxZgwYIF6u+9YMECzJuXrUGygMqN6WXHdu/ejT179mDZsmVYtmwZrrvuOlx33XX4yle+As45vvrVr2pHSHM+CF7CCN9TSFAVCBKk27ZtW07rqCj52ymPRlSfY2VCDAaDwTA1dJF0MlraNmPxkiVwHEeLkspIKXexeVMbHMfBypWrRDIagxKrnLuini+EWKbxzEVUVvAITvn8jAlfr3xCMc5l1FlGV1XyGwlkXWhrr8cPPT+kSCdIsHPp5+Wu+DfQJvU1d+D6D6zAZZdfDos8yrLc2VfWN+KVl19Sx8pGbm5uxhXUqVZ0QIDwJYKUFwlaP/o4CVy6728jzDlXQnb37t1qfM+ePZ51EPrBcwshYME5R3t7O9rb27F9+3Zs357d6XE+lkc1wvc0QeK3vb29muwQNOYXxzrV1dXtup9o+/bty4K2pSjvVH+FGgwGg+HcQr9yqHcKpfyR115LS6Da+tWoqVsN7jqagKRoqhCfVYuuwu92dKQ9uSry6q28AAhxKjSqFMJWWkgzka8mUdJXiUs/SrgyUUECUmyLJk7imCKRTfhz/ejCV8d1HBmpFtUnhBlCjAPA0sUL8djj/4JUKoVQKKwiwYxZ+Mr6L+OVl18GpLidNm0aXNdFKBTC6OiouppK1RyItxtc8v+Y0UUm0d7uncarq6szxiZDkKBdtkzYx4OeX6e9vR3Ll4//zyWdcr5qECN8zwKNjY2NlMTgF7X0gaJfT3RLH67z8UNmMBgMhpOji6R4PK4aJxF9fX2exx07n9cu/QshCBKvzMKmlmY4roOa2no5pkVdZcQV4OK/gP1JfAYJUdd1wV0HXMhk0siwVDc1TUQzcXzh4RVRYkqmo23EDvLGkzynIz3IskWziAALD3BXZwf+6z9/jQ/f9BGMjY0iHIkimUio9sk3f/QmdZSKigpEo1E4joNUKqVqJI+OjmZUdHi7l/B1+8q2bdtOKjxPJySm/RFcGh9PbJ+Pkd1sGOFrMBgMBsM5gD86eDLSUV9qSUCiVYjJtpYmpJJJ3LFylRK+FrOkGMwUlqQ1hdBNC9jsZOoHzrmK8uqCOZVKgjG9MgRLi2axZ/og9Pw+HEdWuZAL7cE5R33NHfjLv/oQLr/iCoyNjiIczcHoyAnYdhgvvfgivvaVtF7zC1896jwwMOBJJn87/l74hK8ues+EAJ6IoB2PC0ns6hjhazAYDAbDOUQ2ARyJiA5oFJUk4Qt5+V+EdKWdQSa71a26HbffsQqVlZVKUDKLeSKz6agv1cEV2wSJY4K8tgSDEKzUsc2yhMBmzBYRX2o+keEhznyO4GivqN6gotOcS6MD0LHjWTz04AP42je+5SmPlkiMwbJsvPjC8/jaV1TJfcydOxeubHrhZ3R0FEeOHAFOgc0B8qou5f/4150LkKgni+XFcHXZCF+DwWAwGM4x9DyR9evXN4RCIZSUlGBkZMRTzrJj5/PeaK8uVjlHZ8cOtDY3YWNzC0BJcD5rAwlfsgX4hS8JaS9a6TMuH0PUB9bRo76Q0VnPOkqQ08gmfPUkOr2qQ+3K2/HXH/4Irly4EJCJeyR+HcfB+oYvqcQ28veGw+GAf5OI+Pb39wOnINpL6MLXb2881VTLfCK/oKV1+u3FihG+BoPBYDCcg/ijhYWFhcjPz8fhw4fVNhT1DRKLIjLqorWlGU4qhZU1NR7/bDryKkUueYA1seoXroSq9OBbRVFc/x5Bx8hmaciKVmeYhHtXRwceuP9efO1b39G2k+JXtlD+8j99AS+/lK7oQJUbqA00dU8dHR1VovdURHsN5yaT+MQZDAaDwWA4k+iXyMfGxuC6rqdlfWtzE6BFUikKChKbjKG2rh52KIQtmzcHbKsOlRatWre2QMEq4bKGLnVhcxwHycQYUokEnFRKVlUQUDIaRXktOyTsFkFwN3AR8V6K9oqIbnPTBvzNx28GtOcCs2DZ5Ce2PaK3oqICc+bMwWWXXYbp06dj+vTpCIVCePPNN992eVHD+UGWT53BYDAYDIZzibGxMQwNDWV08mxraQJTEV4uqi0o8SvEbE1tHTa3tSohm77am24qkQ09MqwiwLKagi56XScFquIAEUOmI6jnoEgtyxYFhnBO6NvTYsnucZYlurzt7OpCIpHAVVctFKLYL34tC4//+Ef6oT1Qm+LS0lLk5uZ6KjqYaO+FixG+BoPBYDCcJ5w4ccI/lEZ6XwEtmUwJVwvNrW1Yu7pORXMpopv29GbiF7y02LatWhXbsjWxZdngEC2RXRmRdR3RThhahJi7rqrQoL8WWsjS4FkAKa6FyO7Y8Sy+++D9+Nbd96p/h8vTjTYEFn78mFf4Hjx4EK+++ir279+P/fv3o6enB8PDw56mFUb0XtgY4WswGAwGw3lMa3MTWpo3KtErEJFfgbA8LF5ShcrKpdi8qQ2WFKqWHZK2gMwkM/isE55xbWHUqtiyEAqFYYfEsallMR2Hbsn24DgppJIJsaSScFJJWRVCiyxTVJjaHMtnrV15O+65/0HYdkizZMgmHPI1PvboD+S9TEjs9vT0YP/+/Wr8fG3KYJg4RvgaDAaDwXCO4hdh8Xgc5eXlmDt3LqLRqBpva2nWNwOUaKUmERzMsrCqtg6cc7Q1N0sxKqXrOMlsJFb1hbG02CWBK+r0ygiy9PWmUik4TkodNx1l9i6e1yu9uZZlw7Zs2HZILKEwQuEw6lbdgXsfeAi2bYt/l3xu27alUBaVK378ox+qf0MsFsOsWbMwc+ZMRKNRRCIR7V+YRq+CYLgwMcLXYDAYDIZzFCp/FYvFMHfuXMTjccRiMYyMjAhbgEZba4vnMbR2vpZlKwFcW1cPgKO+dpUSm67rekRpph2CxKkQqI7jiAhtMinFrbA0JMbG4KSS4OCw7RDC0SjCkaiyQjCq72vZIupsh2DZIdi2DTsUgh0KCfGsRLVYIFst33HrLfjYzbdg0eIlSKVSUtAzWJawX1iWDXCOxx5Ni14AmDZtGqLRKMLhMPLz8wEA4XDYsw0uwGYNhkxs8zc2GAwGg+Hc49JLL30dANu+fXt1KpVCTk4OhoaGcOjQIQwNDcGyLOTl5amkrO6uToAxVFZWAZCJbWBwHQd2KCR9vwycA5VVVZhVXoF/bvwyLplVjvLyCiVuma+agz8qC9mgQjwWpcOorq7rOHCVN1d4blWk16KIr/TyyvrBfkhc+wdX3vYJfOzmW7B4SVW6SoR8feDp1/n8c8/hgfvuVrvGYjFMmzZN7UMCOJFISPEsaGhoWO+PsBsuPEwdX4PBYDAYzmEYY1kn6pKSEqRSKU+lh5q6etTU1kkBayGVSsK2LJX3xQFY0j/b1dmBtpYmVFVdg9rVawApanXhS5DlgRDJa96yZdx1ka4DLIStHQojHI0G1Pb1dW7TfMBiA/U/NG94CKMjw7j19jvgurrvWFg1HCcJx3HAOfD5f/gsXnj+ObkemDVrFiKRiLJo6Bw5cgSjo6Ombu9FhLE6GAwGg8FwDtPQ0LC+oaFB9dzVI5MjIyPIy8vzbN/W0gw7JDqTce4iFAoDvsYVJDgrq5aiuW0LODhamzZ6juNHj5NxLppjEBRtpTbCjDHYdgihSAS2bYP7PMKuS75hB1xWekg3IZbeY87RvOFBLLpiAUZHh3F7TZ2MWGsvREaTbdsGA8OLLzznEb0A8NZbb2F0dDTQX0xNLHAGuqoZzg1MxNdgMBgMhvMAvRUttEhwXl4eYrEYenp61LZ1q9egpq5eikRfVDUgmgtZD7irsxP1a9Zi6TXv8a9WVgFxXwhWivYqOwOzhOCWwpXLCLK/lTG0yK4/CmvZITRvfAjNG76LO2pqsXJVrfQQC8HsSN8ywZgodQYAf3/XZ/D8c7vUuvLycliWhd7eXriui+LiYiV2+/v7Vae2hoaG9cbfe3FghK/BYDAYDOchugUiPz8fx48f96yvX70WK2vrPGNUI5f5EuPEKhfdnR1oa2lBV1cn6lavQf2aO0Ukl4v1pBmcVEo9FtFTWUvXddIeXhlZZozBYr5IrW5p8NHW2oKx0VHcsUq2WLaET9lxHHBAtCNW9oq07eHv7/oMntu1Ux0nHo+jtLRUCevh4WElgHNycpTohXgtwb8GDBccmZ98g8FgMBgM5xV+0QsAzU0b0NYiWhoTVKmBu/5mDyJCu6SyCk2tbdjRtROu62LxVZejecNDSuT6F8hIsOOkkJJNKYB0K2PuuireTM8tEt28toPuzk60Nm9E5dVXIkGiVxgb1OtkTNbp1ZLtyBbx93d92iN6AaCvrw8HDx5UzSlyc3Mxe/ZsWJZlGlZcxJiIr8FgMBgM5yHLly/fNhFfam39atTU1gvBS3M+Y3CdlEowowoMQbS1tqCtpRmVVVWoqVsNAFi0aJFH/JLgFdFeG67rqPq9th0SJcw8/loLrc3CU9zStBFVVUuxuKoKd6ysEYJZs0Aooe26IuLruqJyhCs8zJ/920/huV1pewOVe/NTWlqKWCyGAwcOqLFt27YtN5UcLi6M8DUYDAaD4TzEL3zj8Tji8ThGRkbQ19fnEX+VVVXY2NyGUDis2hkzy0IqmZSCWO/6lkav2NDV2YnNm1oBAN1dXVhSWQnOgZWragDOsWjxIriuCzsUArhoXWyHQgiHI9i5s1seowMAQ0vTBtSvXgsOjpr6NXJ7WRJN8w4DolKE64rGFpwDjiO6u7ncxSNbNuH7D39PbRuPx1FUVITh4WG89dZbSCQSap0f4+u9ODHC12AwGAyG84z29vbq9vb26vXr1zdACr5p06aBMYa+vj709fUhGo2qGr9Ec2sbqq651mMfEIIzU/iSCKX7/ojwrl27wBhTjTO6uzo963WqlopkucrKSgBQpdMg/b8i6izqADupFFKuA7giSY5zKN+w41Ak2cKWTa145Hub1XPEYjHMnDlTbuOgt7cXo6Ojaj1Fdtvb26uN6L14McLXYDAYDIbzEIr4UjteyNJdfX19gEx4sywLg4ODnv1q6upRW79GJpx5o6s6rlb31pX1eSk5DgBCoZCyIACQndfCoBbITCW0cdFRjTEkEwmZ85ZudSyqTshIb8qB4wrx61BrZCq/xgHOHbgux5ZNbXh4yyb1WnXRyzkXyXVanV7CJLEZjPA1GAwGg+E8hSo7ZPO1jit+61ZLoZhuV0zo0V4lPpWXV6B7dgEmO7PZaj10mwKT6xjtJ6s+aMfjnMPlHMnEmLI7MBLbEGJ586ZWbGnLbM2ck5ODGTNmwJWtl3X27dsHGGuDQWKqOhgMBoPBcJ5CFQlGRkagN7mgy/rHjx/HyMgISktL9d3Q1tKM+tqV2LWzG0zZHbyBMBLDnHNYdgiWZcOybXFriWQ1zkVdXcdJwXUcpFLUQU1aKaiCg2VJ0WuByX1ln2GxUH0G14UlWxtTCTQuZDW2+ERvbm4u4vE45s6di7KyMuzbtw/JZNIjyPVorxG9BgCwzefAYDAYDIbzk0svvfT16urq7Zdeeuk+ANi+fXv1tm3bljc2Nq6vrq7evm/fvkv/8Ic/XJpMJjMsDW8cPoytT/0SO7u7Mau8HJdIuwRjTHRQUzV6hSVCRF3FY1GWjESwFLbKN+wtVaZHkxljYBDVGMBFS2PuunC5C+6KJhWkv8VrALZsbsO6NXXY2d1FLx0AlMiNRCLIzc1FaWkpjh07hmQyqZpUnDhxQhe/zFRwMBirg8FgMBgMFyiNjY2NlABHZLNFLKmsxKqaOlQtvUZUUJAthXUhTKTFLUQ8ljHYtvDxik1JBGdaammd/xbUHQ5C8La2bER3Vxd2jpM0R8yePRuxWAwA0NvbixMnTgCAEr3G5mAgjPA1GAwGg+ECpb29vXr58uXb6LFe8uzQoUPejSWVlVWoqa/HkiWV4JxLa4IUqNJ6YEsvL9eS3agbnB7tpW0oKsxl5QZC1yAisszR2bEDXR0daGttVuuI4uJiFBUVYWRkBEePHvWsKykpQUlJCXp7e9Hb26vGjeg16BjhazAYDAbDBYpe6zcWi6G8vByQXc36+vpQWFiIsbGxjLJnIAFcVw/bDqFy6VIpUkV5MYCCuzKiyzlSTgqWTFyjzmxc+nYZY2LMVy1C7MrR2iSbWcimFn6Ki4tRXFwMx3HQ39+PoaEh/yaA9P3qXdmM6DX4McLXYDAYDIYLFIr2tre3V8+aNUvZHA4fPqy2iUQiiEajSCQSgQKYqKxaiqqqpahcWoXFS0Q9XllkVwjflOjURjV3mZa4hoBIcPPGhwCeXewSubm5yM/PRzQaBQAMDQ2hv7/fvxmqq6vbSeQbwWvIhhG+BoPBYDBcoOhWh1gshmnTpuHw4cPIz8/H8YxI3GkAAALxSURBVOPHPdtGIhEAGLfbmU5lVZW8XYollVXCFiGjwN1dnbI6bxoGBjCgs6NDdnAbn9zcXFRUVGBkZATHjh3DjBkz1Dq9Pm91dXV7Q0PD+vXr1zc0NDSsb29vrzai15ANI3wNBoPBYLiACUpwI6qrq9uXLVu2PWh9tiS40wVVYtBLkOm+XcdxUFRUpLY5cuSIev1G6BomiqnjazAYDAbDBUxjY2Mj59xTyouipGQJ4JwzvQ4wAJSXl2Pu3LmIxWKIRqNqOZVQstrs2bNRWlqKcDiMcDis1lOSWklJCWzbxsDAAAAoSwZZGwyGiWIivgaDwWAwXCS0t7dXt7e3V5MI1sVwUCKcv/oD2SGi0WjWBDOCIrjwRXHj8Thyc3Nx8OBBzJ49G67rYmxsDD09PWobnWzVGiC9vNXV1e2mPq9hohjhazAYDAaDwWOJKC8vRywWw6FDh1RXt/G8v7T9a6+9hoKCgowkOX3feDyeYV8YGBhQ0VyKPOv2C9pexySwGaaCEb4Gg8FgMBgAUXmBQ0Z84/E4Dh06hGg0ikgkgqGhIU8imW4z0IXvyYjFYoFJa0eOHFGCmXPOGhsbG7dv374MmqWBRLERvIYpw2XxabOYxSxmMYtZzHJxL9XV1dtkMYaMpbq6etu2bduqg7YtLy/nc+fO5QB4YWEhLysrU/s1NDQ0btu2rVo/1rx58/i8efM4AB6NRj3P0dDQ0Oh/XUFjZjHLVBaT3GYwGAwGgwEAsG3btuXbtm1b7vfMUvUE/3gQY2NjGBwcVI/Jg6snzx08eFBZF3RbxLJly7arBxomwms4VRirg8FgMBgMhkDIYpBN8OoJcX78pcba29urybcbtA+J42zPZTCcCozwNRgMBoPBMCX8NYKrte5p27ZtWx7UTIK8uxTdNVUZDGcSI3wNBoPBYDC8bfxRXCNmDeciRvgaDAaDwWAwGC4KTHKbwWAwGAwGg+GiwAhfg8FgMBgMBsNFgRG+BoPBYDAYDIaLgv8frg9eTxMgkFkAAAAASUVORK5CYII=;" parent="N2gPjFTLfxUgMOe2XuZ2-31" vertex="1">
          <mxGeometry x="10" y="32" width="190.16" height="120" as="geometry" />
        </mxCell>
        <mxCell id="N2gPjFTLfxUgMOe2XuZ2-11" value="" style="points=[[0.005,0.09,0],[0.08,0,0],[0.76,0.25,0],[1,0.92,0],[0.91,0.995,0],[0.57,0.995,0],[0.045,0.955,0],[0.005,0.43,0]];verticalLabelPosition=bottom;sketch=0;html=1;verticalAlign=top;aspect=fixed;align=center;pointerEvents=1;shape=mxgraph.cisco19.3g_4g_indicator;fillColor=#036897;strokeColor=none;rotation=-90;" parent="N2gPjFTLfxUgMOe2XuZ2-31" vertex="1">
          <mxGeometry y="5" width="30" height="30" as="geometry" />
        </mxCell>
        <mxCell id="N2gPjFTLfxUgMOe2XuZ2-15" value="CyberTruck" style="text;html=1;align=center;verticalAlign=middle;resizable=0;points=[];autosize=1;strokeColor=none;fillColor=none;fontFamily=Comic Sans MS;fontStyle=1;fontSize=12;" parent="N2gPjFTLfxUgMOe2XuZ2-31" vertex="1">
          <mxGeometry x="49.999999999999886" width="90" height="30" as="geometry" />
        </mxCell>
        <mxCell id="N2gPjFTLfxUgMOe2XuZ2-26" value="" style="group" parent="N2gPjFTLfxUgMOe2XuZ2-36" vertex="1" connectable="0">
          <mxGeometry y="220" width="141" height="120" as="geometry" />
        </mxCell>
        <mxCell id="N2gPjFTLfxUgMOe2XuZ2-4" value="" style="shape=mxgraph.cisco.people.standing_woman;sketch=0;html=1;pointerEvents=1;dashed=0;fillColor=#036897;strokeColor=#ffffff;strokeWidth=2;verticalLabelPosition=bottom;verticalAlign=top;align=center;outlineConnect=0;" parent="N2gPjFTLfxUgMOe2XuZ2-26" vertex="1">
          <mxGeometry y="50" width="22" height="62" as="geometry" />
        </mxCell>
        <mxCell id="N2gPjFTLfxUgMOe2XuZ2-17" value="&lt;div style=&quot;line-height: 140%;&quot;&gt;Remote Agent&lt;div&gt;(Node-Red)&lt;/div&gt;&lt;/div&gt;" style="text;html=1;align=center;verticalAlign=middle;resizable=0;points=[];autosize=1;strokeColor=none;fillColor=none;fontFamily=Comic Sans MS;fontStyle=1;spacing=1;" parent="N2gPjFTLfxUgMOe2XuZ2-26" vertex="1">
          <mxGeometry x="36" width="100" height="50" as="geometry" />
        </mxCell>
        <mxCell id="N2gPjFTLfxUgMOe2XuZ2-22" value="" style="group" parent="N2gPjFTLfxUgMOe2XuZ2-26" vertex="1" connectable="0">
          <mxGeometry x="42" y="56" width="99" height="64" as="geometry" />
        </mxCell>
        <mxCell id="N2gPjFTLfxUgMOe2XuZ2-3" value="" style="shape=mxgraph.cisco.computers_and_peripherals.macintosh;sketch=0;html=1;pointerEvents=1;dashed=0;fillColor=#036897;strokeColor=#ffffff;strokeWidth=2;verticalLabelPosition=bottom;verticalAlign=top;align=center;outlineConnect=0;" parent="N2gPjFTLfxUgMOe2XuZ2-22" vertex="1">
          <mxGeometry width="99" height="64" as="geometry" />
        </mxCell>
        <mxCell id="N2gPjFTLfxUgMOe2XuZ2-16" value="Node-Red" style="text;html=1;align=center;verticalAlign=middle;resizable=0;points=[];autosize=1;strokeColor=none;fillColor=none;fontSize=6;fontFamily=Courier New;fontColor=#FFFFFF;fontStyle=1" parent="N2gPjFTLfxUgMOe2XuZ2-22" vertex="1">
          <mxGeometry x="27.5" y="14" width="50" height="20" as="geometry" />
        </mxCell>
        <mxCell id="N2gPjFTLfxUgMOe2XuZ2-25" value="" style="group" parent="N2gPjFTLfxUgMOe2XuZ2-36" vertex="1" connectable="0">
          <mxGeometry x="110" width="140" height="70" as="geometry" />
        </mxCell>
        <mxCell id="N2gPjFTLfxUgMOe2XuZ2-18" value="Database" style="text;html=1;align=center;verticalAlign=middle;resizable=0;points=[];autosize=1;strokeColor=none;fillColor=none;fontFamily=Comic Sans MS;fontStyle=1" parent="N2gPjFTLfxUgMOe2XuZ2-25" vertex="1">
          <mxGeometry x="60" y="20" width="80" height="30" as="geometry" />
        </mxCell>
        <mxCell id="N2gPjFTLfxUgMOe2XuZ2-24" value="" style="group" parent="N2gPjFTLfxUgMOe2XuZ2-25" vertex="1" connectable="0">
          <mxGeometry width="66" height="70" as="geometry" />
        </mxCell>
        <mxCell id="N2gPjFTLfxUgMOe2XuZ2-8" value="" style="shape=mxgraph.cisco.storage.relational_database;sketch=0;html=1;pointerEvents=1;dashed=0;fillColor=#036897;strokeColor=#ffffff;strokeWidth=2;verticalLabelPosition=bottom;verticalAlign=top;align=center;outlineConnect=0;" parent="N2gPjFTLfxUgMOe2XuZ2-24" vertex="1">
          <mxGeometry width="66" height="70" as="geometry" />
        </mxCell>
        <mxCell id="N2gPjFTLfxUgMOe2XuZ2-13" value="&lt;font style=&quot;font-size: 10px;&quot;&gt;SQL&lt;/font&gt;" style="text;html=1;align=center;verticalAlign=middle;resizable=0;points=[];autosize=1;strokeColor=none;fillColor=none;fontStyle=1;fontColor=#FFFFFF;fontSize=9;fontFamily=Comic Sans MS;spacing=2;" parent="N2gPjFTLfxUgMOe2XuZ2-24" vertex="1">
          <mxGeometry x="12" y="31" width="40" height="30" as="geometry" />
        </mxCell>
        <mxCell id="N2gPjFTLfxUgMOe2XuZ2-34" value="" style="group;rotation=90;" parent="N2gPjFTLfxUgMOe2XuZ2-36" vertex="1" connectable="0">
          <mxGeometry x="200" y="140" width="125" height="80" as="geometry" />
        </mxCell>
        <mxCell id="N2gPjFTLfxUgMOe2XuZ2-2" value="" style="shape=mxgraph.cisco.storage.cloud;sketch=0;html=1;pointerEvents=1;dashed=0;fillColor=#036897;strokeColor=#ffffff;strokeWidth=2;verticalLabelPosition=bottom;verticalAlign=top;align=center;outlineConnect=0;" parent="N2gPjFTLfxUgMOe2XuZ2-34" vertex="1">
          <mxGeometry width="125" height="80" as="geometry" />
        </mxCell>
        <mxCell id="N2gPjFTLfxUgMOe2XuZ2-12" value="Internet" style="text;html=1;align=center;verticalAlign=middle;resizable=0;points=[];autosize=1;strokeColor=none;fillColor=none;fontSize=14;fontColor=#FFFFFF;fontStyle=0;fontFamily=Comic Sans MS;" parent="N2gPjFTLfxUgMOe2XuZ2-34" vertex="1">
          <mxGeometry x="24.5" y="27" width="80" height="30" as="geometry" />
        </mxCell>
      </root>
    </mxGraphModel>
  </diagram>
</mxfile>
